<?xml version="1.0" encoding="utf-8"?>
<!-- Generator: Adobe Illustrator 25.2.3, SVG Export Plug-In . SVG Version: 6.00 Build 0)  -->
<svg version="1.1" id="Boston_Celtics" xmlns="http://www.w3.org/2000/svg" xmlns:xlink="http://www.w3.org/1999/xlink" x="0px"
	 y="0px" viewBox="0 0 256 256" style="enable-background:new 0 0 256 256;" xml:space="preserve">
<style type="text/css">
	.st0{fill:#008348;}
	.st1{fill:none;stroke:#008348;stroke-width:0.176;}
	.st2{fill:#FFFFFF;}
	.st3{fill:#A73832;}
	.st4{fill:none;stroke:#A73832;stroke-width:0.176;}
	.st5{fill:#BB9753;}
	.st6{fill:none;stroke:#BB9753;stroke-width:0.176;}
	.st7{fill:#FAB383;}
	.st8{fill:none;stroke:#FAB383;stroke-width:0.176;stroke-linecap:round;}
	.st9{fill:none;stroke:#FAB383;stroke-width:0.176;}
	.st10{fill:none;stroke:#00A65C;stroke-width:0.176;}
</style>
<g>
	<path d="M243.1,120.4c0-30.8-12-59.7-33.7-81.4c-18.8-18.8-42.9-30.3-69-33.1c-0.6-0.6-1.3-1.2-2.1-1.6c-9.2-5.9-16.9-1.5-22.2,1.1
		c-0.4,0.2-0.8,0.4-1.3,0.7c-10,1.1-19.7,3.6-28.8,7.2c-1.1-1.6-2.3-3.1-3.7-4.5C76.8,3.1,69.4,0,61.5,0C45.3,0,32,13.2,32,29.5
		c0,6.8,2.3,13.3,6.5,18.5c-16.1,19.8-25.7,45-25.7,72.4c0,30.8,12,59.7,33.7,81.4c10.6,10.6,23,18.9,36.4,24.6
		c-0.8,6.1,0.2,10.2,1.3,11.9c-1.7,1.4-2.4,2.3-2.7,3.9c-2.7,3.7,3.8,8.3,6.5,10.3c5.5,4.2,8.4,3.5,12.6,3.3
		c5.3-0.2,10.2-6.4,13.1-10.4c5.7-0.8,6.8,0.1,6.9,0.8c1.8-0.3,4.3-0.7,7.7-2.1c7.7-3.2,5.5-7.2,4.7-7.9c-0.2-0.2-0.4-0.4-0.5-0.8
		c18.3-0.7,35.8-5.7,51.4-14.4c0.5,0.6,1.1,1.3,1.7,2.1c1.7,2.5,2.6,10.6,2.9,14.8c0.4,4.2,1.1,7,3.1,13.6c2,6.6,2.8,1.8,2.9,0
		c0.1-1.8,0.4-8.2,0.2-12.8c-0.3-4.6-0.4-11.3,0.5-14.1c0.9-2.8-0.7-3.6-1.2-4.1c-0.4-0.5,0-0.7-1.2-4.4c-0.1-0.2-0.1-0.4-0.2-0.6
		c5.9-4,11.4-8.6,16.5-13.7C231.2,180,243.1,151.1,243.1,120.4z"/>
	<path class="st0" d="M100.8,227.8c4.3-0.2,10.2-1.5,13-2.7c0.4,0.1,0.9,0.4,1.8,0.8c0.4-2.9-1.5-8.8-2.5-11.5
		c-0.7-1.8-1.3-3-2.1-4.9c-2.4-0.4-5.4-1.7-7.5-2.6c0,1.7,0.3,6.1,0.7,9c-0.9,0.1-2.1,0.2-3.6,0.2
		C100.6,219.4,101,225.1,100.8,227.8z"/>
	<path class="st1" d="M100.8,227.8c4.3-0.2,10.2-1.5,13-2.7c0.4,0.1,0.9,0.4,1.8,0.8c0.4-2.9-1.5-8.8-2.5-11.5
		c-0.7-1.8-1.3-3-2.1-4.9c-2.4-0.4-5.4-1.7-7.5-2.6c0,1.7,0.3,6.1,0.7,9c-0.9,0.1-2.1,0.2-3.6,0.2
		C100.6,219.4,101,225.1,100.8,227.8z"/>
	<path class="st0" d="M181.3,218.4c-0.8-0.8,1-3.3,1.8-7.9c0.8-4.6,0.9-12.4-2.5-16.7c-1.6-2.1-2.4-3.5-2.7-4.4
		c-10.5,7.7-22.6,12.8-35.5,14.9c-0.2,0.3-0.3,0.5-0.4,0.7c-1.9,2.4-5.5,5.9-8.2,7.3c-2.7,1.4-5.8,2.5-7.5,3
		c-0.4,2.8-0.8,9.2-0.1,11.4c0.3,0.8,3.6,2.8,4.7,4.9c0.1,0.2,0.2,0.4,0.3,0.7c18.2-0.5,35.3-5.4,50.3-13.6
		C181.5,218.5,181.4,218.4,181.3,218.4z"/>
	<path class="st1" d="M181.3,218.4c-0.8-0.8,1-3.3,1.8-7.9c0.8-4.6,0.9-12.4-2.5-16.7c-1.6-2.1-2.4-3.5-2.7-4.4
		c-10.5,7.7-22.6,12.8-35.5,14.9c-0.2,0.3-0.3,0.5-0.4,0.7c-1.9,2.4-5.5,5.9-8.2,7.3c-2.7,1.4-5.8,2.5-7.5,3
		c-0.4,2.8-0.8,9.2-0.1,11.4c0.3,0.8,3.6,2.8,4.7,4.9c0.1,0.2,0.2,0.4,0.3,0.7c18.2-0.5,35.3-5.4,50.3-13.6
		C181.5,218.5,181.4,218.4,181.3,218.4z"/>
	<path class="st0" d="M207.1,41.3C189.6,23.7,167.2,12.7,143,9.5c1.9,3.8,2.2,8.2,2.4,11c3.5-1.5,6.1-2.3,7.6-4.6
		c1.4-2.3,3.4-1.9,4.6-0.2c1.2,1.7,1.2,3.8-2,5.9c-3.3,2-5.7,3-6.4,3.4c-0.7,0.4-0.1,1,0.7,2.3c0.8,1.3,2.8,4.6,3.2,11.6
		c0,0.1,0,0.1,0,0.2c13.1,4,25.1,11.2,35,21.2c16.1,16.1,24.9,37.4,24.9,60.2c0,13-2.9,25.7-8.5,37.1c0.7,0.4,1.7,3,2.1,6.4
		c0.2,1.8,0.1,3.7-0.4,5c-0.5,1.2-4.7,7.5-6.9,9.4c-0.8,0.7-2.7,0.6-3.5-0.5c-0.8-1.2-0.9-0.5-1.5,0.1c-0.6,0.6-2.8,3.7-3.3,4.5
		c-0.5,0.8-2.3,1.6-1.2,4.8c1.2,3.2,2.5,5.6,2,7.4c-0.4,1.8-0.6,2.3,1.8,4.4c2.4,2,2.3,4.5,1.2,6.1c-0.7,1-1.7,3.7-2.1,6.4
		c28.4-20.3,47-53.6,47-91.1C239.9,90.5,228.2,62.4,207.1,41.3z"/>
	<path class="st1" d="M207.1,41.3C189.6,23.7,167.2,12.7,143,9.5c1.9,3.8,2.2,8.2,2.4,11c3.5-1.5,6.1-2.3,7.6-4.6
		c1.4-2.3,3.4-1.9,4.6-0.2c1.2,1.7,1.2,3.8-2,5.9c-3.3,2-5.7,3-6.4,3.4c-0.7,0.4-0.1,1,0.7,2.3c0.8,1.3,2.8,4.6,3.2,11.6
		c0,0.1,0,0.1,0,0.2c13.1,4,25.1,11.2,35,21.2c16.1,16.1,24.9,37.4,24.9,60.2c0,13-2.9,25.7-8.5,37.1c0.7,0.4,1.7,3,2.1,6.4
		c0.2,1.8,0.1,3.7-0.4,5c-0.5,1.2-4.7,7.5-6.9,9.4c-0.8,0.7-2.7,0.6-3.5-0.5c-0.8-1.2-0.9-0.5-1.5,0.1c-0.6,0.6-2.8,3.7-3.3,4.5
		c-0.5,0.8-2.3,1.6-1.2,4.8c1.2,3.2,2.5,5.6,2,7.4c-0.4,1.8-0.6,2.3,1.8,4.4c2.4,2,2.3,4.5,1.2,6.1c-0.7,1-1.7,3.7-2.1,6.4
		c28.4-20.3,47-53.6,47-91.1C239.9,90.5,228.2,62.4,207.1,41.3z"/>
	<path class="st0" d="M78.6,203c-0.3-3-0.8-8.5,1.3-12.3c-4.3-3-8.4-6.3-12.1-10.1c-16.1-16.1-24.9-37.4-24.9-60.2
		c0-24.3,10.3-46.3,26.7-61.8c0.2-0.3,0.3-0.6,0.6-0.9c-2.8,0.9-5.7,1.3-8.7,1.3c-7.8,0-15.2-3-20.8-8.6
		c-15.9,19.8-24.6,44.2-24.6,70c0,29.9,11.6,58,32.8,79.1c10.1,10.1,21.9,18.1,34.6,23.6c0.5-2.4,1.2-5,2.3-7.8
		c1-2.6-0.5-8.5-3-11.7C81.5,203.2,79.8,203.1,78.6,203z"/>
	<path class="st1" d="M78.6,203c-0.3-3-0.8-8.5,1.3-12.3c-4.3-3-8.4-6.3-12.1-10.1c-16.1-16.1-24.9-37.4-24.9-60.2
		c0-24.3,10.3-46.3,26.7-61.8c0.2-0.3,0.3-0.6,0.6-0.9c-2.8,0.9-5.7,1.3-8.7,1.3c-7.8,0-15.2-3-20.8-8.6
		c-15.9,19.8-24.6,44.2-24.6,70c0,29.9,11.6,58,32.8,79.1c10.1,10.1,21.9,18.1,34.6,23.6c0.5-2.4,1.2-5,2.3-7.8
		c1-2.6-0.5-8.5-3-11.7C81.5,203.2,79.8,203.1,78.6,203z"/>
	<path class="st0" d="M108.3,10.2c-7.1,1.3-14,3.2-20.6,5.7c2.1,4.1,3.3,8.7,3.3,13.5c0,6.3-2,12.4-5.7,17.4
		c6.2-3.6,12.8-6.4,19.8-8.4c0.5-0.4,0.9-0.9,1.4-1.3c-2.6-4.3-6.1-11.1-3-20.4C104.3,14.2,106.2,12,108.3,10.2z"/>
	<path class="st1" d="M108.3,10.2c-7.1,1.3-14,3.2-20.6,5.7c2.1,4.1,3.3,8.7,3.3,13.5c0,6.3-2,12.4-5.7,17.4
		c6.2-3.6,12.8-6.4,19.8-8.4c0.5-0.4,0.9-0.9,1.4-1.3c-2.6-4.3-6.1-11.1-3-20.4C104.3,14.2,106.2,12,108.3,10.2z"/>
	<path class="st2" d="M153,43.9c2.5,1.2,5.3,4,4.2,9c-0.4,2-2.1,4-2.3,4.8c-0.3,1.3-3.1,3.6-4,5.4c-0.9,1.8-1,3.3-0.8,4c0,0,0,0,0,0
		c1.4,1.3,4.6,3.1,6.4,3.7c1.4,0.5,1.3,0.9,0.7,1.8c1,0.1,1.5,0.7,2.4,1.8c1,1.2,3.6,0.4,5.2-0.4c1.6-0.8,3.7-1.1,5.3,0.9
		c1.6,2,4,5.6,5.2,9c1.2,3.4,2.4,6.1,2.8,6.7c0.4,0.5-1.2,10.3-1.7,14.2c-0.4,3.9-0.8,5.6-0.9,6.2c-0.1,0.6,2.5-2.2,2.6,1.2
		c0.1,2.7,1.3,11.3,2.8,17.8c0.4,1.6,0.8,3.1,1.1,4.3c1.1,0.2,2,2.3,2.6,5.6c0.6,3.3,2,5.3,2,6.9c0.1,1.6,0.5,1.9,1.1,2.1
		c0.5,0.3,0.4,1.1-1.2,2.9c0.4,0.3,0.9,0.8,1.2,1.2c0.4-0.4,1.7-1.9,1.7-1.9s4.9,2,6,2.3c1.1,0.4,2.3-2.3,5.5-0.9
		c0.9,0.4,1.8,1.6,2.5,2.8c5-10.7,7.8-22.5,7.8-35.1c0-22.2-8.6-43.1-24.3-58.8c-9.6-9.6-21.1-16.5-33.6-20.5
		C153.1,42.4,153,43.5,153,43.9z"/>
	<path class="st2" d="M178.7,183.9c-1.2-0.6-2.1,0.3-2.7-4.6c-0.2-1.4-1.3-3.3-2.2-4.2c-0.9-0.9-1-2.6-0.5-4
		c0.7-2.2,0.9-4.3,0.8-6.1c-0.1-1.8,0.3-4,2.8-5.1c-0.9-1-1.3-2.2-1.6-3.2c-3.7-1.2-4.4-1.3-5.1-3.1c-1.2-3-2-7.3-2.4-9.7
		c-0.2-1.2-0.3-2.2-0.3-3.2c-1.2-2.2-3.8-7.1-5.8-10.8c-0.7-1.4-1.4-2.6-1.9-3.4c-1.8-3.1,0-7.2,0.9-9.6c0.9-2.4,1.6-4.5,0.8-6.9
		c-0.8-2.4-0.8-2.9-1-3.9c-0.2-1-1-2.2-2,1.2c-1.1,3.4-3.1,8.4-4.3,13.5c-0.7,2.9-1.1,6.1-1,9.2c0.1,2.4,0.6,4.6,1.6,6.7
		c2.3,4.8,5.1,9.3,4.7,11.9c-0.4,2.7-0.9,2.8-1,3.2c-0.4,5.2-2.7,15-3.8,17.9c-1.2,2.8-5.7,13.2-6.7,17.5
		c-0.7,3.3-2.8,10.5-4.6,14.7c13.3-2.5,25.5-8.2,35.8-16.3C179.6,185,179.5,184.3,178.7,183.9z"/>
	<path class="st2" d="M79.8,67.2c1,1.3,2.3,2.5,3.9,3.3c4.4,2.2,5.3,3.8,5.3,7.7c0,3.8,0.7,11.7,2,13c0.8-0.8,1.7-2,1.9-2.3
		c1.2,2.3,3.8,6.6,7.7,9.3c0.3,0.2,0.1,1.2,0.8,1.3c1.3,0.4,10,1.7,10.2,3.5c1.8-1.8,4.6-6.2,5.2-7.7c0.5-1.5,3.6-6.3,6-9
		c0-1.1,0-1.7,0.1-2c-0.6,0.5-1.6,1.9-3,2.5c-1.4,0.6-6.4,2.8-10,4.5c-1.2,0.6-3.5,1.3-4.4-5.2c-0.9-6.5,0-9.9,0.6-11.4
		c0.6-1.5,1.8-2.8,4-2.2c2.2,0.6,5.8,2,6.8,2c0.2-0.7,0.8-2-1.6-2.3c-1.7-0.2-6.2-1.5-8.7-4.9c-1-1.4-1.7-3.1-1.8-5.3
		c-5.1,0.8-16.7,2.3-19.3,2.9c-2.6,0.6-4.8,1.2-5.6-4.7c-0.4-2.5-1-6,0.8-4.7c1.4-1.1,3.4-2.3,6.8-1.8c0.6,0.1,1.4,0.6,1.7,1.1
		c0.2,0.9-0.2,2.3-0.6,3.6c-0.8,2.4-2.3,4.1,2.6,3c5.1-1.2,11.5-2.1,13.2-2.5c0.2-1.7,1.6-4.4,3.3-6.4c1.7-2,2-3.6,2-4.2
		c0.1-0.6-0.5-0.8-1.3,0c-1,0.9-3.9,2.7-6.7,2c-1.1-0.3-2.4-2.3-3.1-3.5c0.6-1.2,2.1-3.3,3.9-5.5c-9.5,3-18.3,7.8-26.2,14.1
		c-0.1,1,0.1,3.3,0.7,5.8C77.4,62.8,78.3,65.1,79.8,67.2z"/>
	<path class="st2" d="M86,188.7c3.6-1.4,6.5-1.4,9.3,2.4c0.8,1.1,1.4,4.2,8.3,1.4c-3.6-4.4-5.8-9.5-7.8-16.5
		c-3.2-11-10.3-23.4-7.7-29.1c-1.5-1.4-3.3-6.9-5.2-6.3c-1.3,0.4-3,0.4-1.6-3.7c0.6-1.9,1.7-4.2,3.7-6.9c2.4-3.3,6.3-7.4,12.5-12.2
		c0.5-0.4,0.6-0.8,0.3-1.2c-0.6-0.6-1.2-1.3-1.9-1.7c-0.6-0.4-1.3-0.2-1.8,0.4c-0.5,0.5-1.4,1.2-2,1.5c-0.5,0.4-4.8-3.8-7-6.9
		c-2.2-3-4.5-4-5.3-4.4c0.9-1,2.9-3.1,2.1-2.8c-1.3,0.4-3.7,0.7-6.1-1.8c-2.9-3.1-1.8-4.7-2.4-5.2c-0.6-0.4-3.8,0.3-6.2-3.5
		c-2.4-3.7-3.4-5.4-1.4-8c1-1.3,1.3-2,1.1-3.6c-0.3-1.7,0-2.8,2.2-4.9c2.2-2.1,3.6-4.1,4.5-3.9c0.8,0.1-1.5-2.7-2.8-4.8
		c-0.4-0.6-0.6-1.1-0.8-1.5c-0.4-0.9-0.9-2.3-1-3.9c-15.6,15.7-24.2,36.5-24.2,58.7c0,22.2,8.6,43.1,24.3,58.8
		c3.7,3.7,7.6,7,11.9,9.9C82.9,187,85.1,187.8,86,188.7z"/>
	<path class="st3" d="M38.7,13.2C46,15.1,51.5,21,53.9,24.3c0.6,0.8,1.2,0.7,1.5,0.1C56,23,57,18.8,57,15.5C57,8,58,5,59.9,1.6
		C51.2,2,43.5,6.5,38.7,13.2z"/>
	<path class="st4" d="M38.7,13.2C46,15.1,51.5,21,53.9,24.3c0.6,0.8,1.2,0.7,1.5,0.1C56,23,57,18.8,57,15.5C57,8,58,5,59.9,1.6
		C51.2,2,43.5,6.5,38.7,13.2z"/>
	<path class="st3" d="M34.3,36.1c13.7,1.2,18-6.4,18.9-7.6c0.9-1.2-0.2-1.9-0.6-2.5c-2.4-3.3-7.7-9.2-15-11.1
		c-2.6,4.2-4.1,9.2-4.1,14.5C33.5,31.8,33.8,34,34.3,36.1z"/>
	<path class="st4" d="M34.3,36.1c13.7,1.2,18-6.4,18.9-7.6c0.9-1.2-0.2-1.9-0.6-2.5c-2.4-3.3-7.7-9.2-15-11.1
		c-2.6,4.2-4.1,9.2-4.1,14.5C33.5,31.8,33.8,34,34.3,36.1z"/>
	<path class="st3" d="M88.7,35.6c-5.8-2.4-12.7-0.2-17.5,4.1c-4.9,4.3-7.4,7.6-9.1,17.7c-0.2,0-0.4,0-0.6,0
		c-7.2,0-13.8-2.8-18.8-7.3c8.4-2.1,15.4-6,23.3-13.4c7.9-7.5,11.8-16.2,12.9-20.3c1.1-4.1-0.5-1.7-1.3,0.2
		c-1.2,2.9-5.3,10.7-13.4,18.2c-8.1,7.6-14.3,11.3-22.8,14.1c-2.8-2.9-5-6.4-6.3-10.3c2.8,0.2,11.8-0.9,16.3-4.5
		c5.9-4.8,6.6-10.6,7.4-18.8c0.8-8.2,2-10.6,4-13.7c14.8,0.7,26.6,12.9,26.6,27.9C89.4,31.6,89.1,33.6,88.7,35.6z"/>
	<path class="st4" d="M88.7,35.6c-5.8-2.4-12.7-0.2-17.5,4.1c-4.9,4.3-7.4,7.6-9.1,17.7c-0.2,0-0.4,0-0.6,0
		c-7.2,0-13.8-2.8-18.8-7.3c8.4-2.1,15.4-6,23.3-13.4c7.9-7.5,11.8-16.2,12.9-20.3c1.1-4.1-0.5-1.7-1.3,0.2
		c-1.2,2.9-5.3,10.7-13.4,18.2c-8.1,7.6-14.3,11.3-22.8,14.1c-2.8-2.9-5-6.4-6.3-10.3c2.8,0.2,11.8-0.9,16.3-4.5
		c5.9-4.8,6.6-10.6,7.4-18.8c0.8-8.2,2-10.6,4-13.7c14.8,0.7,26.6,12.9,26.6,27.9C89.4,31.6,89.1,33.6,88.7,35.6z"/>
	<path class="st3" d="M87.9,38.4c-1.3-1.9-6.1-2.8-13.7,2c-0.7,0.4-1.2,0.8-0.4,1.6c1.6,1.6,4,4.6,5.7,8.7
		C83.4,47.4,86.3,43.2,87.9,38.4z"/>
	<path class="st4" d="M87.9,38.4c-1.3-1.9-6.1-2.8-13.7,2c-0.7,0.4-1.2,0.8-0.4,1.6c1.6,1.6,4,4.6,5.7,8.7
		C83.4,47.4,86.3,43.2,87.9,38.4z"/>
	<path class="st3" d="M77.4,52.4c-1.6-3.9-2.9-6.8-4.5-8.7c-0.8-1.1-1-1.5-2.5-0.2c-4.2,3.7-5.8,9.3-6.7,13.8
		C68.8,56.9,73.4,55.1,77.4,52.4z"/>
	<path class="st4" d="M77.4,52.4c-1.6-3.9-2.9-6.8-4.5-8.7c-0.8-1.1-1-1.5-2.5-0.2c-4.2,3.7-5.8,9.3-6.7,13.8
		C68.8,56.9,73.4,55.1,77.4,52.4z"/>
	<path class="st5" d="M111.7,227.4c0.6-0.3,1.4-0.6,1.7-0.4c0.4,0.3,2.5,1.8,3.8,2.9c1.3,1.2,1.8,1.5,0.7,2.1s-2,1.2-1.9,0.7
		c0.2-0.5,0.5-1.3-0.3-2c-0.7-0.7-2.5-2.1-3.2-2.7C112.1,227.8,111.7,227.4,111.7,227.4z"/>
	<path class="st6" d="M111.7,227.4c0.6-0.3,1.4-0.6,1.7-0.4c0.4,0.3,2.5,1.8,3.8,2.9c1.3,1.2,1.8,1.5,0.7,2.1s-2,1.2-1.9,0.7
		c0.2-0.5,0.5-1.3-0.3-2c-0.7-0.7-2.5-2.1-3.2-2.7C112.1,227.8,111.7,227.4,111.7,227.4z"/>
	<path class="st5" d="M106.6,228.9c-0.4,0.4-0.5,1.1,0,1.6c0.5,0.5,3.5,3,4,3.5c0.5,0.5,1.2,0.7,2,0.5c0.8-0.2-0.9,1-1.6,1.1
		c-0.7,0.1-1.4,0.1-2.1-0.5c-0.7-0.7-4.7-4.4-5.5-5.2c-0.8-0.8,0.2-0.8,0.9-0.8C105,229,105.7,229,106.6,228.9z"/>
	<path class="st6" d="M106.6,228.9c-0.4,0.4-0.5,1.1,0,1.6c0.5,0.5,3.5,3,4,3.5c0.5,0.5,1.2,0.7,2,0.5c0.8-0.2-0.9,1-1.6,1.1
		c-0.7,0.1-1.4,0.1-2.1-0.5c-0.7-0.7-4.7-4.4-5.5-5.2c-0.8-0.8,0.2-0.8,0.9-0.8C105,229,105.7,229,106.6,228.9z"/>
	<path class="st5" d="M101.7,206.1c0.3,0.8,0.4,1.6-0.9,1.4c-1.2-0.2-6.5-0.7-8-0.7c-0.4,0-0.2-0.9-0.8-0.5
		c-0.5,0.4-0.3,1.2-0.3,2.1c0,0.9-0.1,1.4,0,2c0,0.9,0.6,2.2,3,2.4c2.4,0.1,4.7-0.1,5.4-0.6c0.7-0.5,0-1.3-0.7-1.3
		c-0.7,0-4.7,0.3-5.5,0c-0.9-0.3-1.4-1.3-0.8-1.7c0.7-0.5,2.1,0.1,3.5,0.1c1.4,0,2.9-0.4,3.2-0.1c0.4,0.2,0.8,0.1,0.8,1.8
		c0,0.4,0.8,0.5,1.2,0.5c0.4,0,0.6,0.7,0.5,1.6c0,0.9,0,1.1-1.6,1.1c-1.6,0-8.5-0.1-9.5-0.1c-0.4,0-0.4-0.3-0.5-1.1
		c0-0.8-0.3-6.4-0.4-6.8c-0.1-0.4,1.1-0.5,2-0.3c0.9,0.2,2.1,0.4,3.6,0.4c1.5,0.1,3.8,0.3,3.8,0.3s1.2,0.1,1.3-0.2
		C101.2,206,101.6,205.9,101.7,206.1z"/>
	<path class="st6" d="M101.7,206.1c0.3,0.8,0.4,1.6-0.9,1.4c-1.2-0.2-6.5-0.7-8-0.7c-0.4,0-0.2-0.9-0.8-0.5
		c-0.5,0.4-0.3,1.2-0.3,2.1c0,0.9-0.1,1.4,0,2c0,0.9,0.6,2.2,3,2.4c2.4,0.1,4.7-0.1,5.4-0.6c0.7-0.5,0-1.3-0.7-1.3
		c-0.7,0-4.7,0.3-5.5,0c-0.9-0.3-1.4-1.3-0.8-1.7c0.7-0.5,2.1,0.1,3.5,0.1c1.4,0,2.9-0.4,3.2-0.1c0.4,0.2,0.8,0.1,0.8,1.8
		c0,0.4,0.8,0.5,1.2,0.5c0.4,0,0.6,0.7,0.5,1.6c0,0.9,0,1.1-1.6,1.1c-1.6,0-8.5-0.1-9.5-0.1c-0.4,0-0.4-0.3-0.5-1.1
		c0-0.8-0.3-6.4-0.4-6.8c-0.1-0.4,1.1-0.5,2-0.3c0.9,0.2,2.1,0.4,3.6,0.4c1.5,0.1,3.8,0.3,3.8,0.3s1.2,0.1,1.3-0.2
		C101.2,206,101.6,205.9,101.7,206.1z"/>
	<path class="st7" d="M69.7,83.6c-1.2-0.4-2,1-2.6,2c-0.5,1.1-1.2,2.2,0.5,4.6c1.7,2.4,2.7,3.8,5.7,3.7c1.4-0.1,2.7-1.2,3.1-1.8
		c0.4-0.6,0.5,0.4-0.2,1.5c-0.7,1.1-1.2,3.6,0.1,5.2c1.3,1.7,4.1,3.1,7.7,1c3.6-2.1,5.2-4.7,5.8-5.9c0.6-1.2,0.6-1.7,0-2.4
		c-0.6-0.7-2.7-4.1-3.1-10.8c-0.3-4,0.4-6.6-2-8c-2.5-1.4-8.2-4.8-8.9-11.4c-0.3-2.5-0.1-6.3-2.6-4.3c-2.5,2-2.5,3.5-2.8,5
		c-0.3,1.5,1,3.6,2,5c1.1,1.4,2.3,4.5,3.3,5.3c1,0.8,1.6,1.4,2.4,1.5c0.8,0.1,4,0.1,4.8,0.4c0.8,0.3,1.2,1.2-0.7,1.2
		c-2,0-5,0.5-6.3,0.7c-1.3,0.2-2.6,0.3-3.2,2.9c-0.6,2.7-1.5,5.8-1.6,6.8c-0.1,1-0.6,1.5-0.6,2s1.1,3.1,3.5,0.5
		c2.4-2.6,3.4-5.2,3.8-6.4c0.4-1.2,1-1.1,0.5,0.9c-0.4,2-0.6,6.9,0.4,8.5c1,1.8,3,3.7,5.6,2.4c0.5-0.3,1.4-0.7,2.1-0.6
		c0.7,0.1-0.1,1.3-0.8,1.9c-0.6,0.5-2.7,2.8-6.3-0.4c-0.9-0.8-2.1-2.6-2.4-4.8c-0.1-0.7-1.1-1-1.5-0.4c-0.4,0.6-2.8,2.8-4.5,1.2
		c-1.7-1.6-2.4-2.5-1.4-5.9C69.8,84.4,70.1,83.8,69.7,83.6z"/>
	<path class="st8" d="M69.7,83.6c-1.2-0.4-2,1-2.6,2c-0.5,1.1-1.2,2.2,0.5,4.6c1.7,2.4,2.7,3.8,5.7,3.7c1.4-0.1,2.7-1.2,3.1-1.8
		c0.4-0.6,0.5,0.4-0.2,1.5c-0.7,1.1-1.2,3.6,0.1,5.2c1.3,1.7,4.1,3.1,7.7,1c3.6-2.1,5.2-4.7,5.8-5.9c0.6-1.2,0.6-1.7,0-2.4
		c-0.6-0.7-2.7-4.1-3.1-10.8c-0.3-4,0.4-6.6-2-8c-2.5-1.4-8.2-4.8-8.9-11.4c-0.3-2.5-0.1-6.3-2.6-4.3c-2.5,2-2.5,3.5-2.8,5
		c-0.3,1.5,1,3.6,2,5c1.1,1.4,2.3,4.5,3.3,5.3c1,0.8,1.6,1.4,2.4,1.5c0.8,0.1,4,0.1,4.8,0.4c0.8,0.3,1.2,1.2-0.7,1.2
		c-2,0-5,0.5-6.3,0.7c-1.3,0.2-2.6,0.3-3.2,2.9c-0.6,2.7-1.5,5.8-1.6,6.8c-0.1,1-0.6,1.5-0.6,2s1.1,3.1,3.5,0.5
		c2.4-2.6,3.4-5.2,3.8-6.4c0.4-1.2,1-1.1,0.5,0.9c-0.4,2-0.6,6.9,0.4,8.5c1,1.8,3,3.7,5.6,2.4c0.5-0.3,1.4-0.7,2.1-0.6
		c0.7,0.1-0.1,1.3-0.8,1.9c-0.6,0.5-2.7,2.8-6.3-0.4c-0.9-0.8-2.1-2.6-2.4-4.8c-0.1-0.7-1.1-1-1.5-0.4c-0.4,0.6-2.8,2.8-4.5,1.2
		c-1.7-1.6-2.4-2.5-1.4-5.9C69.8,84.4,70.1,83.8,69.7,83.6z"/>
	<path class="st7" d="M71.5,78.7c-0.4,1.2-0.7,2.7-0.9,3.2c-0.2,0.5-1,1.7-1.7,0.2c-0.7-1.5-0.7-2.7,0.4-3.8
		c0.4-0.4,0.9-1.1,1.2-0.7C71,77.9,71.6,78.4,71.5,78.7z"/>
	<path class="st8" d="M71.5,78.7c-0.4,1.2-0.7,2.7-0.9,3.2c-0.2,0.5-1,1.7-1.7,0.2c-0.7-1.5-0.7-2.7,0.4-3.8
		c0.4-0.4,0.9-1.1,1.2-0.7C71,77.9,71.6,78.4,71.5,78.7z"/>
	<path class="st7" d="M75.5,74.6c-0.7,0.4-2.3,0.4-2.9,1.6c-0.4,0.8-1.8-0.1-1.1-1.1c0.7-1,1.3-0.9,1.7-1.2c0.4-0.3,0.6-1.1,1.5-0.6
		C75.7,73.8,75.9,74.4,75.5,74.6z"/>
	<path class="st8" d="M75.5,74.6c-0.7,0.4-2.3,0.4-2.9,1.6c-0.4,0.8-1.8-0.1-1.1-1.1c0.7-1,1.3-0.9,1.7-1.2c0.4-0.3,0.6-1.1,1.5-0.6
		C75.7,73.8,75.9,74.4,75.5,74.6z"/>
	<path class="st7" d="M134.1,30.5c-2.5,0.3-4.8,1.8-7.1,3.4c-2.3,1.6-10.7,8.6-12.6,10.1c2,1.1,2.6,3.2,1.9,6.8
		c-0.2,0.8,0,1.1,0.5,0.5c0.5-0.5,3-3.2,2.9-5.3c-0.1-2.1-1.1-3.4-1.2-3.7c-0.2-0.3,0.7-1.3,1.7,0.9c1,2.2,0.7,5.3-2.2,8.8
		c-2.9,3.5-5.3,3.4-6.5,4c-1.2,0.6-2.5,1.6-1.3,3.5c1.2,1.9,3.4,1.2,4.3,0.5c0.9-0.6,2.1-1.3,5-1.1c2.8,0.3,3.8-1.5,1.9-3.5
		c-0.6-0.6-2.2-2-0.3-2c1.2,0,2.6,2.6,3.4,3.3c0.8,0.7,2.6,1,5,1.2c2.4,0.2,6.1,1.1,6.1,3.4c0,1.4-0.8,1.8-1.8,0.7
		c-0.4-0.4-1,0.3-1.4,0.7c-1.5,1.5-5.4,5.6-8.1,6.3c-2.8,0.7-3.8-0.1-7.4-2c-3.6-2-7-3.9-8-4.5c-1-0.6-3-2.1-2,0.8
		c1,2.8,3.4,5.8,8.2,7.4c4.8,1.6,5.5,2.1,6.6,2.7c1.1,0.5,0.4,1.1-1,0.9c-1.2-0.2-2.6-1.2-1.5,1.2c1.1,2.4,2.7,5,7.6,4.4
		c4.9-0.6,5-1.7,8.1-6.8c0.5-0.9,1.1-0.3,0.7,2c2.4-1.2,3.7-1.5,5.2-1.9c1.4-0.4,5.1-1.6,7.6-6.1c1.2-2.3,1.9-3.1,1.7-5.5
		c-0.1-0.9,1.2-2.7,2.6-3.9c1.3-1.2,5-6,3.1-9.3c-1.9-3.4-5-1.7-6.5,0.8c-1.5,2.5-3.2,5.3-3.3,9.5c-1.1-0.4-2.2,0-2.7,0.9
		c-0.3,0.4-4.2-0.1-5.5,0.3c-1.3,0.4-1.8-0.4-0.4-2.3c1.4-1.9,6.4-8.6,6.1-13.7c-0.1-1.5,0.1-1.8,0.4-2.9c0.3-1.5,0.4-1.5-1.4-2.5
		c-1.2-0.6-1.3-2.5-1.5-3.9c-0.2-1.5-0.5-1.5-2.2-1.2C137.2,33.4,135.1,32.1,134.1,30.5z"/>
	<path class="st9" d="M134.1,30.5c-2.5,0.3-4.8,1.8-7.1,3.4c-2.3,1.6-10.7,8.6-12.6,10.1c2,1.1,2.6,3.2,1.9,6.8
		c-0.2,0.8,0,1.1,0.5,0.5c0.5-0.5,3-3.2,2.9-5.3c-0.1-2.1-1.1-3.4-1.2-3.7c-0.2-0.3,0.7-1.3,1.7,0.9c1,2.2,0.7,5.3-2.2,8.8
		c-2.9,3.5-5.3,3.4-6.5,4c-1.2,0.6-2.5,1.6-1.3,3.5c1.2,1.9,3.4,1.2,4.3,0.5c0.9-0.6,2.1-1.3,5-1.1c2.8,0.3,3.8-1.5,1.9-3.5
		c-0.6-0.6-2.2-2-0.3-2c1.2,0,2.6,2.6,3.4,3.3c0.8,0.7,2.6,1,5,1.2c2.4,0.2,6.1,1.1,6.1,3.4c0,1.4-0.8,1.8-1.8,0.7
		c-0.4-0.4-1,0.3-1.4,0.7c-1.5,1.5-5.4,5.6-8.1,6.3c-2.8,0.7-3.8-0.1-7.4-2c-3.6-2-7-3.9-8-4.5c-1-0.6-3-2.1-2,0.8
		c1,2.8,3.4,5.8,8.2,7.4c4.8,1.6,5.5,2.1,6.6,2.7c1.1,0.5,0.4,1.1-1,0.9c-1.2-0.2-2.6-1.2-1.5,1.2c1.1,2.4,2.7,5,7.6,4.4
		c4.9-0.6,5-1.7,8.1-6.8c0.5-0.9,1.1-0.3,0.7,2c2.4-1.2,3.7-1.5,5.2-1.9c1.4-0.4,5.1-1.6,7.6-6.1c1.2-2.3,1.9-3.1,1.7-5.5
		c-0.1-0.9,1.2-2.7,2.6-3.9c1.3-1.2,5-6,3.1-9.3c-1.9-3.4-5-1.7-6.5,0.8c-1.5,2.5-3.2,5.3-3.3,9.5c-1.1-0.4-2.2,0-2.7,0.9
		c-0.3,0.4-4.2-0.1-5.5,0.3c-1.3,0.4-1.8-0.4-0.4-2.3c1.4-1.9,6.4-8.6,6.1-13.7c-0.1-1.5,0.1-1.8,0.4-2.9c0.3-1.5,0.4-1.5-1.4-2.5
		c-1.2-0.6-1.3-2.5-1.5-3.9c-0.2-1.5-0.5-1.5-2.2-1.2C137.2,33.4,135.1,32.1,134.1,30.5z"/>
	<path class="st7" d="M123.7,58.4c-0.5,1.1-1.8,2.2-4.9,1.8c-1.6-0.2-3.1-0.2-3.3,1c-0.2,0.8-0.9,0.8-1.9,0.8c-1,0-2.1-0.3-2.2,0
		c0,0.4,4.4,3,5.8,3.6c1.5,0.7,3.6,2.3,5.3,2.1c2.3-0.2,4.3-1.4,7.7-5c1.4-1.5,2.5-2.3,1.2-2.9c-0.9-0.4-1.8-0.5-3-0.5
		C127.3,59.3,124.7,59.2,123.7,58.4z"/>
	<path class="st9" d="M123.7,58.4c-0.5,1.1-1.8,2.2-4.9,1.8c-1.6-0.2-3.1-0.2-3.3,1c-0.2,0.8-0.9,0.8-1.9,0.8c-1,0-2.1-0.3-2.2,0
		c0,0.4,4.4,3,5.8,3.6c1.5,0.7,3.6,2.3,5.3,2.1c2.3-0.2,4.3-1.4,7.7-5c1.4-1.5,2.5-2.3,1.2-2.9c-0.9-0.4-1.8-0.5-3-0.5
		C127.3,59.3,124.7,59.2,123.7,58.4z"/>
	<path class="st7" d="M107.1,58.4c-1.2,0-1.3-0.9-0.5-2.3c0.8-1.3,1.6-2.6,2.6-3.4c0.2,0.6,0.5,1.3,1.1,1.6
		c-0.7,0.8-1.6,1.7-1.5,3.6L107.1,58.4z"/>
	<path class="st9" d="M107.1,58.4c-1.2,0-1.3-0.9-0.5-2.3c0.8-1.3,1.6-2.6,2.6-3.4c0.2,0.6,0.5,1.3,1.1,1.6
		c-0.7,0.8-1.6,1.7-1.5,3.6L107.1,58.4z"/>
	<path d="M127.1,45.3c0.2-1.2,0-2.3-1.8-0.8c-1.7-1.2-3.2-2.8-3.7-3.1c-0.5-0.4-0.8-0.9-0.2-1.5c0.6-0.6,1.7,0.5,1.5-1.4
		c-0.1-0.6,1.4-0.2,1.7-0.4c0.4-0.2-0.2-1,1.5-0.6c0.5,0.1,0.3-0.9,1.4-0.7c1.1,0.2,1.6,0.6,1.8-0.3c0.2-0.8,0.5-1.4,1.8-0.5
		c0.9,0.6,1.3,0.2,1.4-0.2c0.1-0.4,0.9-0.2,1.7,0.3c0.8,0.4,2.6,1.4,4.8,4c0.5,0.6,0.8,1.3,0.4,1.4c-0.4,0.1-0.8,0-0.8,0.7
		c-0.1,0.7-0.4,1.3-0.8,0.5c-0.4-0.8-0.5,0.1-0.8-0.7c-0.3-0.8-0.7,0.3-0.9-0.3c-0.3-0.8-0.6,0.1-0.8-0.5c-0.1-0.3-1,0.4-1.2-0.1
		c-0.3-0.5-0.8,0.5-1.3,0c-0.4-0.6-0.4,0.6-1.2,0.4c-0.7-0.3-0.4,0.7-1.1,0.4c-0.7-0.3-0.5,0.9-1.2,0.7c-0.7-0.2-0.6,0.1-0.8,0.9
		c-0.1,0.8-0.5,3.7-0.4,4.4c0,0.7,1.5,0.5,3.7,0.2c2.2-0.3,6.2-1.5,8.2-3.2c0.8-0.7,1.5-0.6,1.6-0.4c0.1,0.2-0.2,0.9-0.8,1.4
		c-0.6,0.5-2.1,2-5.5,2.7c-3.4,0.7-6.3,1.2-6.8,1.1c-0.6-0.1,0.2,0.8,1.2,0.6c0.5-0.1,1.7,2,3.6,2c1.5,0,3.8-1.7,4.4-2.2
		c0.6-0.5,2.9-1.5,1.4,0c-1.5,1.5-3.1,3.2-4.7,3.2c-1.6,0-4-0.5-5.7-1.6c-1.7-1.2-2.3-1.8-2-3.6C127,46.1,127,45.8,127.1,45.3z"/>
	<path class="st9" d="M127.1,45.3c0.2-1.2,0-2.3-1.8-0.8c-1.7-1.2-3.2-2.8-3.7-3.1c-0.5-0.4-0.8-0.9-0.2-1.5
		c0.6-0.6,1.7,0.5,1.5-1.4c-0.1-0.6,1.4-0.2,1.7-0.4c0.4-0.2-0.2-1,1.5-0.6c0.5,0.1,0.3-0.9,1.4-0.7c1.1,0.2,1.6,0.6,1.8-0.3
		c0.2-0.8,0.5-1.4,1.8-0.5c0.9,0.6,1.3,0.2,1.4-0.2c0.1-0.4,0.9-0.2,1.7,0.3c0.8,0.4,2.6,1.4,4.8,4c0.5,0.6,0.8,1.3,0.4,1.4
		c-0.4,0.1-0.8,0-0.8,0.7c-0.1,0.7-0.4,1.3-0.8,0.5c-0.4-0.8-0.5,0.1-0.8-0.7c-0.3-0.8-0.7,0.3-0.9-0.3c-0.3-0.8-0.6,0.1-0.8-0.5
		c-0.1-0.3-1,0.4-1.2-0.1c-0.3-0.5-0.8,0.5-1.3,0c-0.4-0.6-0.4,0.6-1.2,0.4c-0.7-0.3-0.4,0.7-1.1,0.4c-0.7-0.3-0.5,0.9-1.2,0.7
		c-0.7-0.2-0.6,0.1-0.8,0.9c-0.1,0.8-0.5,3.7-0.4,4.4c0,0.7,1.5,0.5,3.7,0.2c2.2-0.3,6.2-1.5,8.2-3.2c0.8-0.7,1.5-0.6,1.6-0.4
		c0.1,0.2-0.2,0.9-0.8,1.4c-0.6,0.5-2.1,2-5.5,2.7c-3.4,0.7-6.3,1.2-6.8,1.1c-0.6-0.1,0.2,0.8,1.2,0.6c0.5-0.1,1.7,2,3.6,2
		c1.5,0,3.8-1.7,4.4-2.2c0.6-0.5,2.9-1.5,1.4,0c-1.5,1.5-3.1,3.2-4.7,3.2c-1.6,0-4-0.5-5.7-1.6c-1.7-1.2-2.3-1.8-2-3.6
		C127,46.1,127,45.8,127.1,45.3z"/>
	<path d="M153,50.9c-1,0.7-1.6,1-1.7,2.2c-0.1,1.2-0.3,3.4-0.8,3.6c-0.6,0.2-0.5-1.2-0.7-0.7c-0.3,0.6-1,0.4-1.3-0.2
		c-0.1-0.2-2.3-0.2-0.5-2.8c1.6-2.3,2.8-3.6,4-4.1C153.2,48.3,155.1,49.4,153,50.9z"/>
	<path class="st9" d="M153,50.9c-1,0.7-1.6,1-1.7,2.2c-0.1,1.2-0.3,3.4-0.8,3.6c-0.6,0.2-0.5-1.2-0.7-0.7c-0.3,0.6-1,0.4-1.3-0.2
		c-0.1-0.2-2.3-0.2-0.5-2.8c1.6-2.3,2.8-3.6,4-4.1C153.2,48.3,155.1,49.4,153,50.9z"/>
	<path class="st7" d="M196.6,156.7c-0.4-1,0.3-2.8,2.5-1.6c2.2,1.2,3.9,2.3,2.3,7.2c-1.6,4.9-2.8,7.7-3.4,9.8c-0.6,2-3,4.6-2.2,1.2
		c0.8-3.5,1.2-7.7,0.9-9.8c-0.6-3.9,0.6-3.7,0.2-5.5C196.8,157.4,196.7,157,196.6,156.7z"/>
	<path class="st8" d="M196.6,156.7c-0.4-1,0.3-2.8,2.5-1.6c2.2,1.2,3.9,2.3,2.3,7.2c-1.6,4.9-2.8,7.7-3.4,9.8c-0.6,2-3,4.6-2.2,1.2
		c0.8-3.5,1.2-7.7,0.9-9.8c-0.6-3.9,0.6-3.7,0.2-5.5C196.8,157.4,196.7,157,196.6,156.7z"/>
	<path class="st7" d="M205,160.9c0.6,1.9,1.3,6.3,0.3,8.1c-1.1,1.8-4.4,6.7-5.6,7.9c-1.2,1.2-2.2,0.7-1.4-0.6
		c0.8-1.3,1.9-3.1,1.9-3.7c0-0.6-0.1-1.3,1-3.4c1.1-2,2.9-8.9,3.1-9.4C204.4,159.2,204.8,160.3,205,160.9z"/>
	<path class="st8" d="M205,160.9c0.6,1.9,1.3,6.3,0.3,8.1c-1.1,1.8-4.4,6.7-5.6,7.9c-1.2,1.2-2.2,0.7-1.4-0.6
		c0.8-1.3,1.9-3.1,1.9-3.7c0-0.6-0.1-1.3,1-3.4c1.1-2,2.9-8.9,3.1-9.4C204.4,159.2,204.8,160.3,205,160.9z"/>
	<path class="st7" d="M182,177.3c-0.5-1.6-0.8-3.9-1.7-5.2c0.7-2,3.1-7.2,7-8.8c0.4-0.2,0.7-0.6,0.5-1c-0.2-0.4,0.5-0.6,0.9,0.6
		c0.4,1.2,1,4.8,1,4.8c0.2,0.8-0.2,1.4-0.4,2.5c-0.2,1.1-0.6,3.5-0.4,4.7c0.3,1.2,0.7,2.1,3.2,1.6c1.2-0.3,1.2-0.6,1.5-1.7
		c0.4-1.1,1.3-4.1,1.7-5.8c0.4-1.7,0-5.8-0.3-6.9c-0.4-1.1,0.1-4.7-0.1-5.4c-0.3-0.7-0.4-1.8-2.7-2.5c-2.2-0.7-2.9-0.9-4.4,0.6
		c-1.5,1.5-2,2.1-2.8,2.8c-0.7,0.7-2.5,0.1-1-1.3c1.5-1.4,2.9-2.9,3.4-3.3l-0.4-1.2h-0.8c-2.4,2.4-5.6,3.8-7.7,4.3
		c-0.8,0.2-2.3,0.3-1.2,1.7c0.3,0.4,0.4,1.3,1,1c0.6-0.4,1.6-2,2.5-1.2c0.9,0.7-0.2,2.4-1.2,3.2c-1.1,0.8-2.2,1.6-3,2
		c-0.8,0.4-1.3,0.9-1.2,2.3c0.1,1.4,0.2,4-0.6,6c-0.8,2-0.4,2.5,0.4,3.8c0.7,1.3,1.9,2.5,2.2,4.6c0.4,2.1,0.5,2.7,2,2.5
		c1.4-0.2,2-0.8,2.5-1.7L182,177.3z"/>
	<path class="st8" d="M182,177.3c-0.5-1.6-0.8-3.9-1.7-5.2c0.7-2,3.1-7.2,7-8.8c0.4-0.2,0.7-0.6,0.5-1c-0.2-0.4,0.5-0.6,0.9,0.6
		c0.4,1.2,1,4.8,1,4.8c0.2,0.8-0.2,1.4-0.4,2.5c-0.2,1.1-0.6,3.5-0.4,4.7c0.3,1.2,0.7,2.1,3.2,1.6c1.2-0.3,1.2-0.6,1.5-1.7
		c0.4-1.1,1.3-4.1,1.7-5.8c0.4-1.7,0-5.8-0.3-6.9c-0.4-1.1,0.1-4.7-0.1-5.4c-0.3-0.7-0.4-1.8-2.7-2.5c-2.2-0.7-2.9-0.9-4.4,0.6
		c-1.5,1.5-2,2.1-2.8,2.8c-0.7,0.7-2.5,0.1-1-1.3c1.5-1.4,2.9-2.9,3.4-3.3l-0.4-1.2h-0.8c-2.4,2.4-5.6,3.8-7.7,4.3
		c-0.8,0.2-2.3,0.3-1.2,1.7c0.3,0.4,0.4,1.3,1,1c0.6-0.4,1.6-2,2.5-1.2c0.9,0.7-0.2,2.4-1.2,3.2c-1.1,0.8-2.2,1.6-3,2
		c-0.8,0.4-1.3,0.9-1.2,2.3c0.1,1.4,0.2,4-0.6,6c-0.8,2-0.4,2.5,0.4,3.8c0.7,1.3,1.9,2.5,2.2,4.6c0.4,2.1,0.5,2.7,2,2.5
		c1.4-0.2,2-0.8,2.5-1.7L182,177.3z"/>
	<path class="st3" d="M182.6,181.4c-0.6,1.1-1.7,2.8-1.7,4.3c0,1.5-1.5,3.1-1.3,3.8c0.2,0.7,2.1,2.6,3.3,4.5c1.2,2,2.7,4.9,2.7,9.8
		c0,4.9-1.6,11.6-1.8,12.5c-0.2,0.9-0.6,1.6,0.7,2.8c1.3,1.2,3.5,3.6,4.3,8.8c0.8,5.3,1.3,8,1.7,8.3c0.4,0.3,0.3,0.7,0.3,1.7
		c0,1,0.9,6.6,1.5,7.7c0.6,1.1,0.5-6.1,0.5-8.1c-0.1-2,0.1-11.8,0.4-13.3c0.4-1.4,0.7-3-0.5-4.8c-1.2-1.8-3.4-4.9-1.8-10.1
		c1.6-5.2,4.2-5.1,3.4-7.1c-0.8-2-2.2-3.5-3.3-4.6c-1.1-1.2-0.2-3.9-0.3-5.1c-0.1-2.1-1.8-2.5-2-4.9c-0.2-2.4-0.4-4.4,1.4-6.8
		c1.8-2.4-0.6-2.3-1.4-3.8c-0.8-1.5-1.2-3.5-0.5-6.7c0.4-1.6,0.2-2-0.3-2.2c-0.4-0.2-2.3-0.5-2.3-0.5l-2.8,5.5
		c0.4,1.1,0.6,2.7,0.6,3.7L182.6,181.4z"/>
	<path class="st4" d="M182.6,181.4c-0.6,1.1-1.7,2.8-1.7,4.3c0,1.5-1.5,3.1-1.3,3.8c0.2,0.7,2.1,2.6,3.3,4.5c1.2,2,2.7,4.9,2.7,9.8
		c0,4.9-1.6,11.6-1.8,12.5c-0.2,0.9-0.6,1.6,0.7,2.8c1.3,1.2,3.5,3.6,4.3,8.8c0.8,5.3,1.3,8,1.7,8.3c0.4,0.3,0.3,0.7,0.3,1.7
		c0,1,0.9,6.6,1.5,7.7c0.6,1.1,0.5-6.1,0.5-8.1c-0.1-2,0.1-11.8,0.4-13.3c0.4-1.4,0.7-3-0.5-4.8c-1.2-1.8-3.4-4.9-1.8-10.1
		c1.6-5.2,4.2-5.1,3.4-7.1c-0.8-2-2.2-3.5-3.3-4.6c-1.1-1.2-0.2-3.9-0.3-5.1c-0.1-2.1-1.8-2.5-2-4.9c-0.2-2.4-0.4-4.4,1.4-6.8
		c1.8-2.4-0.6-2.3-1.4-3.8c-0.8-1.5-1.2-3.5-0.5-6.7c0.4-1.6,0.2-2-0.3-2.2c-0.4-0.2-2.3-0.5-2.3-0.5l-2.8,5.5
		c0.4,1.1,0.6,2.7,0.6,3.7L182.6,181.4z"/>
	<path class="st2" d="M156.8,73.1c-2.2,2.9-5.6,10.3-7.2,15c-1.6,4.6-5.2,15.7-2.7,23c2.6,7.3,7.7,2.7,8.8-0.1
		c1.2-2.8,2.9-7.5,3.5-8.7c0.5-1.2,0.8-2,1.8,1c1,2.9,2.4,10,2.4,10.6c0,0.6-1,2.4-2,5.2c-1.1,2.8-1.7,4.7-0.6,6.4
		c1.1,1.7,5.3,8.9,6.6,12c0.8,1.9,1.5,2.2,3.7,1.7c2.1-0.5,7.3-2.3,8.8-3c1.5-0.7,0.8-2,0.4-3.5c-0.7-2.3-3.4-15.1-3.4-16.8
		c0-1.7,0.5-3.9-1.8-1.4c-0.8,0.9-1.9,0-1.6-1.2c0.3-1.2,2.9-18.6,3.1-20.7c-1.5-3.3-6-13.7-7.2-15.6c-1.2-1.9-1.7-2-3.6-1
		c-1.9,1-6,2.5-7.6-1.1c-0.3-0.6-0.7-2,0.4-2.2l-0.8-0.3C157.7,72.2,157.1,72.8,156.8,73.1z"/>
	<path class="st2" d="M180.2,137.1c-1.7,0.9-7.3,3.4-9.6,3.7c-2.4,0.4-1.8,1-1.3,2.8c0.4,1.8,1.8,7.1,2.5,9c0.7,1.9,1.7,1.8,3.6,1.8
		c2.9-0.1,7.7-1.3,11.1-4.5c-1-1.2-2.7-6.7-3.2-9.1C182.6,138.3,182.6,135.7,180.2,137.1z"/>
	<path class="st2" d="M129.2,85.8c-0.2,0.4-0.8,1.4-2.2,1.4s-2.6-0.4-3.5,0.8c-0.9,1.2-5.8,7.2-6.9,10.9c1.1,2.2,2.5,6.2,3.6,9.1
		c3.5-2.9,14.6-13.8,16.6-15.8c0.8-0.8,0.9-1.5-0.3-2.3c-1.2-0.8-5.4-3.5-6.1-3.9C129.7,85.4,129.3,85.4,129.2,85.8z"/>
	<path class="st2" d="M101.1,101.4c-0.7,2.7-2,7.6-4.3,11.3c0.9,1.4,1.6,2.7,2.7,3.1c2.5-1.8,7.2-6.1,8.5-7.7c1.3-1.6,3-4,3-4.5
		s-0.6-0.7-1.4-0.5c-0.8,0.2-4.1-1.1-7.3-1.8C101.5,101.1,101.2,101.1,101.1,101.4z"/>
	<path class="st2" d="M99.2,98.8c-1-0.2-4.4-3.8-5.5-5.8c-1.2-2-1.3-1.8-1.8-0.4c-0.4,1.4-2.1,4.5-3.3,6.1c-1.2,1.5-4.2,5.4-5,6.3
		c-0.8,0.9,0,1.2,0.7,2c0.7,0.7,4.4,5.2,5.2,6.1c0.8,1,1.7,2.8,3.8,0.8c2.1-2,4.7-5.5,5.9-9.2c1.2-3.6,1.2-5.6,2.2-5.3l0-0.8
		l-0.3-0.4l-0.5-0.4c0.1,0.3,0.1,0.6-0.1,0.9C100.3,99,99.6,98.9,99.2,98.8z"/>
	<path class="st2" d="M153.6,16.9c-2.4,2.8-7.2,5.3-15.3,7.4c-8.1,2-15.8,7.7-19.1,10.5c-3.3,2.8-11.6,9.6-15.6,11.2
		c-1.1,0.4-3.3,2-0.4,2.3c2.1,0.3,3.6-1,8.3-4.4c4.6-3.4,8.2-5.8,11.8-9.3c3.3-3.2,9.3-6.2,15.7-8c6.4-1.8,14.8-4.6,17.3-7.2
		c1.2-1.2,1.2-1.9,0.2-2.9C155.2,15.5,154.6,15.7,153.6,16.9z"/>
	<path class="st2" d="M112.8,44.9c-0.7,0.4-1,0.8-1.8,3.4c-0.8,2.6-0.7,4.1,0,4.7c0.5,0.5,1.2,0.5,1.6,0.5c0.3,0,0.5,0.1,0.5-0.7
		c0-0.8-0.1-4,2.3-5.4c0.4-0.3-0.1-2.1-1.6-1.9C113.1,45.6,113.7,44.4,112.8,44.9z"/>
	<path class="st2" d="M85.3,55.1c1.3,0,2.1,0,2,1.4c-0.1,1.4-0.7,3.4-0.8,4.7c-0.1,1.3-0.1,1.9,0.7,1.9c0.8,0-1.2,0.8-2.2,1
		c-1.1,0.2-2.7,0.8-3.6-3.7c-0.3-1.4-0.2-3.6-0.3-4.2C82.2,55.6,83.8,55.1,85.3,55.1z"/>
	<path class="st2" d="M108.9,58.9c0.3,1.8,0.8,1.8,0.5,2c-0.4,0.3-0.7-0.7-2.2-0.4c-1.4,0.2-12.6,2-13.4,2.1
		c-2.5,0.3-2.6-0.1-0.3-0.6c2.3-0.5,10.8-2,13.3-2.5L108.9,58.9z"/>
	<path class="st2" d="M95.4,195c1.2,0.7,3.9,1.5,8.6-0.4c4.7-2,10-0.6,10.8,2.8c0.8,3.4,0.8,7.7-0.6,9.6c-1.2,1.6-2.4,1.4-3.8,1
		c-2.6-0.8-8.5-3.6-10.2-4.4c-1.7-0.8-4.5-1.7-6.6-1.7c-0.8-1.7-0.7-4.6-0.2-5.7c0.5-1.1,0.5-2.1,1-1.9
		C94.8,194.5,95.4,195,95.4,195z"/>
	<path class="st2" d="M114.1,210.7c1.2,0,3.2,0.5,3.9,2.6c0.5,1.7,4,2.1,5.5,2c1.5-0.1,1.2,0.7,1.2,1.6c-0.1,0.9-0.4,3.6-0.4,4.6
		c0,1.1,0.3,4.8,0.4,5.5c0.2,0.7-0.4,1.1-1.2,1.4c-0.8,0.4-3.7,1.2-5.6-0.1c-1-0.7-2.1-1.7-1-1.8c1.2-0.1-1.4-10.1-2.1-11.9
		C114.1,212.9,112.1,210.7,114.1,210.7z"/>
	<path class="st2" d="M83.5,189.7c0.5,0.2,0.7,0.6,1.1,1.3c0.4,0.6,0.5,1.2-0.1,1.8c-1,1.1-2.1,6-2,9.4c-0.6-0.2-2-0.4-2.7-0.3
		c-0.3-2-0.1-8.1,0.8-10.1C81.6,189.9,82.4,189.4,83.5,189.7z"/>
	<path class="st2" d="M83.7,244c2.2,2.5,6.4,6.3,9.5,7.7c3.1,1.3,5.2,1.8,7.9,1.5c2.2-0.2,1.8,0.7,0,1c-1.8,0.3-5.9,0.3-8.5-1.2
		c-2.7-1.4-6.9-4.1-9.6-7.9C82.4,244.2,83,243.2,83.7,244z"/>
	<path class="st2" d="M130.1,237.8c-1.8,0.8-5.2,2.5-8.4,3.3c0.4,1.6,0.4,2.3,0.4,2.8c2,0,5.7-1.4,8.8-3.3c0.7-0.4,1-1,0.7-1.6
		C131.4,238.3,131,237.3,130.1,237.8z"/>
	<path class="st2" d="M109,230.5c-0.4-0.4,2.1-1,2.6-1c0.6,0.4,1.8,1.4,2.2,1.8c0.3,0.3,0.1,0.4-0.1,0.6c-0.3,0.2-1.8,0.6-2.5,0.6
		C110.3,231.9,109.2,230.7,109,230.5z"/>
	<path class="st2" d="M113.7,193.5c-0.7-0.5-0.6-0.8-0.3-1.3c0.4-0.5,0.7-0.9,1.1-1.1c0.4-0.2,0.9-0.3,1.5,0.6c0.6,0.9,4,6.5,4.7,8
		c0.7,1.5,1.6,0.5,1.2-0.4c-0.3-0.9-1.1-2.4-1.3-2.8c1-3,2-7.7,2-10.7c0-3-0.7-6.1-1.2-7.1c2.4,0.1,7.6,0,9.7-0.6
		c2-0.6,0.4-0.8-0.4-0.7c-0.8,0.1-6.6,0.1-10.8-0.4c-7.3-0.9-14.5-5-16.7-7.8c-0.4-0.4-2.5-0.3-0.7,1.2c1.8,1.4,6.3,5.7,13,6.9
		c1.5,0.3,3.9,0.7,4.3,6.2c0.4,5.5-0.2,9.1-0.2,9.6s-0.4,0.7-0.8,0.1c-0.4-0.6-2-2.7-2.8-3.1c-0.8-0.4-1.3-0.4-2,0.2
		c-0.7,0.5-1.8,1.6-2.2,2.1L113.7,193.5z"/>
	<path class="st2" d="M99.4,210.9c-0.7,0-4.7,0.3-5.5,0c-0.9-0.3-1.4-1.3-0.8-1.7c0.7-0.5,2.1,0.1,3.5,0.1c1.4,0,2.9-0.4,3.2-0.1
		c0.4,0.2,0.8,0.1,0.8,1.8L99.4,210.9z"/>
	<path class="st2" d="M89.6,235.3c-1.2-0.7-2.5-4-2.8-10.6c-0.1-2.2,0.8-6,1.5-7.7c0.7-1.8-0.4-1.1-0.7-0.4c-0.3,0.6-1.2,3.1-1.4,5
		c-0.3,1.9-0.7,4.6,0,8.6c0.7,4,1.1,5.2,1.2,6L89.6,235.3z"/>
	<path class="st5" d="M126.1,16.7c0.2-0.4,0.3-0.9,0.5-1.3c-0.7,0.3-1.3,0.7-1.9,1C125.1,17,125.6,17.9,126.1,16.7z"/>
	<path class="st6" d="M126.1,16.7c0.2-0.4,0.3-0.9,0.5-1.3c-0.7,0.3-1.3,0.7-1.9,1C125.1,17,125.6,17.9,126.1,16.7z"/>
	<path class="st5" d="M142.2,17.6c-0.3-0.9-1.1,0.5-2.2,1.9c-1.1,1.3-2.7,0.5-2.9-0.1c-0.2-0.7-0.5-1.4-1.5-2.7
		c-1-1.3,0.9-3.1,1.7-3.3c0.8-0.2,1.8-0.4,2.1-0.6c0.2-0.2-0.2-1.5-0.4-2.5c-3.2,0.9-7.1,2.6-10.5,4.3c1,0.4,0.7,2.4,0.6,2.7
		c-0.1,0.3-0.5,2.1,0.3,1c0.8-1.1,1.1-1.5,2-1.7c0.8-0.3,1.8-0.2,1.8,1c0,1.2-0.5,1.2-0.7,2c-0.2,0.8,0,0.8,0.4,0.9
		c0.4,0.2,0.7,0.7,0.4,1.6c-0.3,0.8-1.6,0.9-2.8,0.8c-1.2-0.1-1.3,0-0.9,0.4c0.3,0.3,0.8,1,0.9,1.8c2.9-1.4,6.4-2.6,11.8-3.7
		C142.3,20.3,142.4,18.4,142.2,17.6z"/>
	<path class="st6" d="M142.2,17.6c-0.3-0.9-1.1,0.5-2.2,1.9c-1.1,1.3-2.7,0.5-2.9-0.1c-0.2-0.7-0.5-1.4-1.5-2.7
		c-1-1.3,0.9-3.1,1.7-3.3c0.8-0.2,1.8-0.4,2.1-0.6c0.2-0.2-0.2-1.5-0.4-2.5c-3.2,0.9-7.1,2.6-10.5,4.3c1,0.4,0.7,2.4,0.6,2.7
		c-0.1,0.3-0.5,2.1,0.3,1c0.8-1.1,1.1-1.5,2-1.7c0.8-0.3,1.8-0.2,1.8,1c0,1.2-0.5,1.2-0.7,2c-0.2,0.8,0,0.8,0.4,0.9
		c0.4,0.2,0.7,0.7,0.4,1.6c-0.3,0.8-1.6,0.9-2.8,0.8c-1.2-0.1-1.3,0-0.9,0.4c0.3,0.3,0.8,1,0.9,1.8c2.9-1.4,6.4-2.6,11.8-3.7
		C142.3,20.3,142.4,18.4,142.2,17.6z"/>
	<path class="st5" d="M114,35.2c-0.4-0.8-1-0.9-1.2-0.3c-0.2,0.6-0.7,2.7-2,3.3c-0.4,0.2-0.8,0.3-1,0.4c0.5,0.5,1,1,1.6,1.4
		c1.1-1.2,2.1-2.2,3.1-3.2C114.4,36.3,114.3,35.7,114,35.2z"/>
	<path class="st6" d="M114,35.2c-0.4-0.8-1-0.9-1.2-0.3c-0.2,0.6-0.7,2.7-2,3.3c-0.4,0.2-0.8,0.3-1,0.4c0.5,0.5,1,1,1.6,1.4
		c1.1-1.2,2.1-2.2,3.1-3.2C114.4,36.3,114.3,35.7,114,35.2z"/>
	<path class="st5" d="M127.3,24.5c-0.5-0.2-0.9,0.6-1.2,1.1c-0.3,0.5-1,1.4-2.1,1.3c-1.2-0.1-1.4-0.5-1.7-1.5c-0.3-1-1-1.3-1.9-1.3
		c-0.8,0-1.4-1-0.5-2.1c0.9-1.1,1.8-0.6,2.5-0.6c0.7,0,1.1-0.8,0.5-1.2c-0.5-0.3-1.3-1.2-1.4-1.9c-2.5,1.7-6.2,4.3-9.3,7.1
		c0.6,0.1,1.2,0.2,1.5,0.4c0.4,0.2,1.1,0.7,1,1.5c-0.1,0.8,0.2,1,0.7,0.4c0.5-0.5-0.1-2.1,1.6-2.8c1.6-0.6,1.9,0.6,1.8,1.5
		c-0.1,0.8,0,1.6,0.8,2c0.8,0.4,1.8,1.7,0,2.5c-1.9,0.8-2.9,1-3.6,1.2c-0.8,0.2-0.6,1,0,1.5c0.4,0.3,0.7,0.6,0.9,0.8
		c2.4-2.2,4.6-4,7.1-5.7c1.4-0.9,2.6-1.8,3.9-2.5C128,25.6,128.1,24.8,127.3,24.5z"/>
	<path class="st6" d="M127.3,24.5c-0.5-0.2-0.9,0.6-1.2,1.1c-0.3,0.5-1,1.4-2.1,1.3c-1.2-0.1-1.4-0.5-1.7-1.5c-0.3-1-1-1.3-1.9-1.3
		c-0.8,0-1.4-1-0.5-2.1c0.9-1.1,1.8-0.6,2.5-0.6c0.7,0,1.1-0.8,0.5-1.2c-0.5-0.3-1.3-1.2-1.4-1.9c-2.5,1.7-6.2,4.3-9.3,7.1
		c0.6,0.1,1.2,0.2,1.5,0.4c0.4,0.2,1.1,0.7,1,1.5c-0.1,0.8,0.2,1,0.7,0.4c0.5-0.5-0.1-2.1,1.6-2.8c1.6-0.6,1.9,0.6,1.8,1.5
		c-0.1,0.8,0,1.6,0.8,2c0.8,0.4,1.8,1.7,0,2.5c-1.9,0.8-2.9,1-3.6,1.2c-0.8,0.2-0.6,1,0,1.5c0.4,0.3,0.7,0.6,0.9,0.8
		c2.4-2.2,4.6-4,7.1-5.7c1.4-0.9,2.6-1.8,3.9-2.5C128,25.6,128.1,24.8,127.3,24.5z"/>
	<path class="st5" d="M109.9,32.9c0.1-0.9-0.6-1.2-1.1-1.3c-0.3-0.1-0.9-0.7-1.2-1.3c-0.4,0.6-0.8,1.2-1.1,1.8
		c0.2,0.6,0.4,1.2,0.6,1.7C108.2,33.7,109.9,33.6,109.9,32.9z"/>
	<path class="st6" d="M109.9,32.9c0.1-0.9-0.6-1.2-1.1-1.3c-0.3-0.1-0.9-0.7-1.2-1.3c-0.4,0.6-0.8,1.2-1.1,1.8
		c0.2,0.6,0.4,1.2,0.6,1.7C108.2,33.7,109.9,33.6,109.9,32.9z"/>
	<path class="st5" d="M147.5,74.4c-2.9-0.2-6.4,0.4-9.7,1.7c0.6,0.3,1.2,1.1,2.4,0.7c1.7-0.6,2.3,1.2,1.5,1.7
		c-0.8,0.5-1.1,1.7,0.4,0.8c1.5-0.9,2.8,0.4,2.2,1.4c-0.6,1-1.4,0.2-1.2,1.6c0.2,1.4-0.1,2.6-1.4,2.8c-1.2,0.2-1.5-1.6-2.1-1.5
		c-0.6,0.1,0.1,3.3-0.1,3.3c-0.9,0.1-1.7,0.9-2.1,1.4c0,0,0.1,0,0.1,0.1c4.9,3.5,6.1,1.6,6.8-0.1c0.7-1.7,2.3-6.7,2.8-9.3
		C147.3,77.4,147.7,75.8,147.5,74.4z"/>
	<path class="st6" d="M147.5,74.4c-2.9-0.2-6.4,0.4-9.7,1.7c0.6,0.3,1.2,1.1,2.4,0.7c1.7-0.6,2.3,1.2,1.5,1.7
		c-0.8,0.5-1.1,1.7,0.4,0.8c1.5-0.9,2.8,0.4,2.2,1.4c-0.6,1-1.4,0.2-1.2,1.6c0.2,1.4-0.1,2.6-1.4,2.8c-1.2,0.2-1.5-1.6-2.1-1.5
		c-0.6,0.1,0.1,3.3-0.1,3.3c-0.9,0.1-1.7,0.9-2.1,1.4c0,0,0.1,0,0.1,0.1c4.9,3.5,6.1,1.6,6.8-0.1c0.7-1.7,2.3-6.7,2.8-9.3
		C147.3,77.4,147.7,75.8,147.5,74.4z"/>
	<path class="st5" d="M136.9,84.1c0.3-0.7-0.4-1.2-1.2-0.8c-0.8,0.5-1.9,1.2-2.6-0.1c-0.8-1.3,0.8-1.4,0.9-2
		c0.1-0.6-0.5-0.7-0.2-1.7c0.3-1,1.4-0.7,2.2-0.2c0.9,0.6,0.7-0.9,0.5-1.4c-0.1-0.4-0.2-0.9-0.1-1.2c-1,0.4-1.9,0.9-2.8,1.5
		c-4.6,2.8-4.7,5.2-3.6,6.1c1,0.8,2.9,1.2,6.2,3.3C136.2,86.4,136.7,84.6,136.9,84.1z"/>
	<path class="st6" d="M136.9,84.1c0.3-0.7-0.4-1.2-1.2-0.8c-0.8,0.5-1.9,1.2-2.6-0.1c-0.8-1.3,0.8-1.4,0.9-2
		c0.1-0.6-0.5-0.7-0.2-1.7c0.3-1,1.4-0.7,2.2-0.2c0.9,0.6,0.7-0.9,0.5-1.4c-0.1-0.4-0.2-0.9-0.1-1.2c-1,0.4-1.9,0.9-2.8,1.5
		c-4.6,2.8-4.7,5.2-3.6,6.1c1,0.8,2.9,1.2,6.2,3.3C136.2,86.4,136.7,84.6,136.9,84.1z"/>
	<path class="st5" d="M122.3,81.4c-1.9-0.9-3.7-3-5-5.4c0,0,0.1-0.4-0.4-0.4c-0.5,0-2.5-0.2-5.8-1.3c-3.3-1.2-3.7-0.4-4.2,1
		c-0.4,1.4-0.8,4-0.9,8.3c-0.1,4.3,1.8,6.9,2.9,6.5c0.6-0.2,2-0.9,3.6-1.7c0-0.9,0.1-2.3,0.2-3c0.1-1-0.9-0.6-1.4-0.1
		c-0.4,0.5-1.3,1.4-2.1,1.3c-0.8-0.1-1.3-1.6-1.2-2.9c0.1-1.3-1.4-1.9-0.4-3.6c1-1.8,1.8,0.4,2.6,0.3c0.8-0.2,0.4-0.6,0-2
		c-0.4-1.4,1.3-1.8,2.3-0.8c0.7,0.6,1-0.8,2-0.6c1,0.2,1.6,0.8,1,1.8c-0.5,0.8-0.8,2.5,0.1,1.6c0.8-0.9,1.7-1.5,2.5-0.9
		c0.8,0.6,0.3,1.9,0,2.6c-0.2,0.7,1.4,1.5,0.3,2.3c-1.2,0.8-2.4-0.6-3.1-0.4c-0.7,0.2-0.8,1,0.1,1.6c0.6,0.4,1.2,0.7,1.6,0.9
		c1.9-0.6,4-1.8,4.7-2.3l1.2,0.1C122.9,82.7,122.8,81.7,122.3,81.4z"/>
	<path class="st6" d="M122.3,81.4c-1.9-0.9-3.7-3-5-5.4c0,0,0.1-0.4-0.4-0.4c-0.5,0-2.5-0.2-5.8-1.3c-3.3-1.2-3.7-0.4-4.2,1
		c-0.4,1.4-0.8,4-0.9,8.3c-0.1,4.3,1.8,6.9,2.9,6.5c0.6-0.2,2-0.9,3.6-1.7c0-0.9,0.1-2.3,0.2-3c0.1-1-0.9-0.6-1.4-0.1
		c-0.4,0.5-1.3,1.4-2.1,1.3c-0.8-0.1-1.3-1.6-1.2-2.9c0.1-1.3-1.4-1.9-0.4-3.6c1-1.8,1.8,0.4,2.6,0.3c0.8-0.2,0.4-0.6,0-2
		c-0.4-1.4,1.3-1.8,2.3-0.8c0.7,0.6,1-0.8,2-0.6c1,0.2,1.6,0.8,1,1.8c-0.5,0.8-0.8,2.5,0.1,1.6c0.8-0.9,1.7-1.5,2.5-0.9
		c0.8,0.6,0.3,1.9,0,2.6c-0.2,0.7,1.4,1.5,0.3,2.3c-1.2,0.8-2.4-0.6-3.1-0.4c-0.7,0.2-0.8,1,0.1,1.6c0.6,0.4,1.2,0.7,1.6,0.9
		c1.9-0.6,4-1.8,4.7-2.3l1.2,0.1C122.9,82.7,122.8,81.7,122.3,81.4z"/>
	<path class="st5" d="M115.7,101c-0.7-1.6-1-0.4-2.9,2.8c-1,1.6-3.5,4.5-6.7,7.8c2.2,0.4,6.9,1.6,4.1,3.9c-3,2.5-1.7,2.3-0.4,2.1
		c1.3-0.2,3.6,0.6,1.9,3.7c-1.7,3-2.9,5.2-4.5,6.1c-1.6,1-3.9,0.9-4.5-1.4c-0.5-2.3-2,0-2.1,1.5c-0.1,1.5-0.3,4.1-0.1,5l-3.4-0.2
		c-0.1-1.4-0.1-4.3,0.2-5.6c0.3-1.3,0.2-2.9-1.9-2.3c-1.3,0.4-2.3,0.1-2.7-0.2c-4,3.5-6,6-7.3,8.1c1,0.9,2.6,1.6,4.4,0.9
		c2-0.8,5.2,0.2,3.2,3.2c-2,3-1.9,4.5,0.1,2.7c2-1.9,5.1-5.1,6.1-1.7c0.6,2.2-1.4,2.9-1.3,4.7c0.1,1.8,1.9,3.6-0.6,5.7
		c-2.5,2.1-3.6-1.5-5.3-1c-1,0.3-1.2,1.3-1.2,2.1c2.2,3.1,5.4,7.6,6.6,9.5c1.8,2.9,1.8,6.5,2.5,6c0.7-0.5,2.4-2.1,2.9-2.6
		c0.5-0.4,1.1-1,0.8-2c-0.3-1-1.3-6.2-1-9.9c0.4-4.2,2.3-8.8,3.7-11.4c1.4-2.5,5.5-10.6,6.5-12.7c1-2.1,2.8-4.6,3.2-6.6
		c0.5-2,2.1-6.5,2.9-8.6C118.8,108.8,117.6,105.2,115.7,101z"/>
	<path class="st6" d="M115.7,101c-0.7-1.6-1-0.4-2.9,2.8c-1,1.6-3.5,4.5-6.7,7.8c2.2,0.4,6.9,1.6,4.1,3.9c-3,2.5-1.7,2.3-0.4,2.1
		c1.3-0.2,3.6,0.6,1.9,3.7c-1.7,3-2.9,5.2-4.5,6.1c-1.6,1-3.9,0.9-4.5-1.4c-0.5-2.3-2,0-2.1,1.5c-0.1,1.5-0.3,4.1-0.1,5l-3.4-0.2
		c-0.1-1.4-0.1-4.3,0.2-5.6c0.3-1.3,0.2-2.9-1.9-2.3c-1.3,0.4-2.3,0.1-2.7-0.2c-4,3.5-6,6-7.3,8.1c1,0.9,2.6,1.6,4.4,0.9
		c2-0.8,5.2,0.2,3.2,3.2c-2,3-1.9,4.5,0.1,2.7c2-1.9,5.1-5.1,6.1-1.7c0.6,2.2-1.4,2.9-1.3,4.7c0.1,1.8,1.9,3.6-0.6,5.7
		c-2.5,2.1-3.6-1.5-5.3-1c-1,0.3-1.2,1.3-1.2,2.1c2.2,3.1,5.4,7.6,6.6,9.5c1.8,2.9,1.8,6.5,2.5,6c0.7-0.5,2.4-2.1,2.9-2.6
		c0.5-0.4,1.1-1,0.8-2c-0.3-1-1.3-6.2-1-9.9c0.4-4.2,2.3-8.8,3.7-11.4c1.4-2.5,5.5-10.6,6.5-12.7c1-2.1,2.8-4.6,3.2-6.6
		c0.5-2,2.1-6.5,2.9-8.6C118.8,108.8,117.6,105.2,115.7,101z"/>
	<path class="st5" d="M154.5,140.5c-2.3-3.8-2.8-5.3-3.1-9.3c-0.2-2.5,0-5.7,0.3-8.8c-0.7-0.1-1.6,0.1-1.7,1.1
		c-0.1,1.7-0.9,4.1-1.4,5.3c-0.5,1.2-2.3,1.2-3.4,1.2c-1.1,0.1-1.1-0.6-0.4-2.2c0.7-1.6,1-2.3,0.8-3.7c-0.2-1.4-0.9-0.2-1.5,1.1
		c-0.6,1.2-2.4,3.7-4.5,3.5c-2-0.3-1.5-3.4-1.3-4.4c0.2-1.1-0.4-1.2-1.2-1.4c-0.8-0.2-2.4-0.5-1.5-3.1c0.9-2.6,1.9-2.3,3.1-1.9
		c1.2,0.4,1.4-0.4,0.3-0.8c-1.2-0.4-2.4-1.4-2.3-2.7c0.2-3.3,2.3-3,3.9-2.7c1.4,0.3,3.2-0.5,4.3-1.8c0-0.1,0-0.2-0.1-0.2
		c-2.4-9.1,2.1-20.2,3.4-23.3c1.3-3.1,6.1-11.9,7.7-14.5c-0.9-0.4-3.2-1.6-4.5-2.3c-1.3-0.7-2-1-2.4-0.5c-0.4,0.5-0.8,0.8-1.4,1.6
		c-1.2,1.8-0.2,1.5,0.2,1.5c0.4,0,1.9,2,2.1,2.4c0.3,0.4,0,0.8-0.6,2.2c-0.8,1.9-1.3,6.1-2,8.7c-2.2,7.8-5.5,7-7,6.1
		c-1.5-1-2,0.5-3.5,2.7c-0.4,0.5-1.3,1.5-2.5,2.7c1.4,0.6,3.4,2.5,1,4.3c-2.8,2.1-3.3,3.3-2,3c1.3-0.3,2.7-2.3,4.2-0.9
		c1.5,1.4-0.5,3-1.3,3.5c-0.8,0.4-2.4,1.2-2,2.9c0.4,1.7,0.7,4-1.5,4.5c-2.2,0.5-3.1-0.4-3.7-1.6c-0.6-1.2-1.2-0.4-1.5,1.1
		c-0.3,1.4-0.4,2.5-0.4,3c0,0.5-1.6-0.3-2.3-1c-0.7-0.7-1.6,1.2-2.4,0.3c-0.8-1,1-4,1.6-5.1c0.6-1,0.3-2.4-3.2-0.8
		c-1.1,1.9-2.1,4.7-3.5,9c-2,6-6.4,14.1-8.2,17c-4.8,7.7-5.7,15-4.9,19.5c0.7,4.5,1.3,4.2,2.3,4.2c1,0,3.4,3,5,4.9
		c1.6,1.9,2.2,1.1,3,0.4c2.6-2,7.7-5.3,15-8.8c3.1-1.5,7.3-3.1,11.3-4.4c0.1-1.7,0.5-3.7,0.6-4.5c0.2-0.9-0.7-1.2-1.6,0
		c-0.9,1.2-3.3,4-4.9,3.3c-1.6-0.7-2.9-2.5-2-4c0.9-1.5-0.4-2-1-2.8c-0.6-0.8-0.6-3.9,1.3-4.2c2-0.3,2.6,1.4,3.9,1.9
		c1.3,0.4,2.4,0.4,0.7-1.5c-1.7-1.9-3.7-1.2-2.7-3.7c1.1-2.6,2.6-2.4,4.4-1.9c1.8,0.5,2.7-0.4,3.8-1.2c1.2-0.8,3.5-1.9,5.1,0
		c1.6,1.9-1.2,3.6-1.8,4.2c-1.2,1.2-1.4,3.5-0.1,2.1c1.3-1.3,3.6-6.2,5.2-2.1c0.9,2.3-0.8,3.2-0.5,4.6c0.3,1.4,2.7,3.4,0.7,5.2
		c-2,1.8-4.7,0.3-5.9-0.8c-1.2-1.1-2.4-1.6-1.9,0.4c0.4,1.4,0.6,3,0.6,3.9c3.9-1.1,7.3-1.7,9-1.6c2.5,0.2,4.4,1,4.4-1.3
		C158.1,145.9,156.8,144.3,154.5,140.5z"/>
	<path class="st6" d="M154.5,140.5c-2.3-3.8-2.8-5.3-3.1-9.3c-0.2-2.5,0-5.7,0.3-8.8c-0.7-0.1-1.6,0.1-1.7,1.1
		c-0.1,1.7-0.9,4.1-1.4,5.3c-0.5,1.2-2.3,1.2-3.4,1.2c-1.1,0.1-1.1-0.6-0.4-2.2c0.7-1.6,1-2.3,0.8-3.7c-0.2-1.4-0.9-0.2-1.5,1.1
		c-0.6,1.2-2.4,3.7-4.5,3.5c-2-0.3-1.5-3.4-1.3-4.4c0.2-1.1-0.4-1.2-1.2-1.4c-0.8-0.2-2.4-0.5-1.5-3.1c0.9-2.6,1.9-2.3,3.1-1.9
		c1.2,0.4,1.4-0.4,0.3-0.8c-1.2-0.4-2.4-1.4-2.3-2.7c0.2-3.3,2.3-3,3.9-2.7c1.4,0.3,3.2-0.5,4.3-1.8c0-0.1,0-0.2-0.1-0.2
		c-2.4-9.1,2.1-20.2,3.4-23.3c1.3-3.1,6.1-11.9,7.7-14.5c-0.9-0.4-3.2-1.6-4.5-2.3c-1.3-0.7-2-1-2.4-0.5c-0.4,0.5-0.8,0.8-1.4,1.6
		c-1.2,1.8-0.2,1.5,0.2,1.5c0.4,0,1.9,2,2.1,2.4c0.3,0.4,0,0.8-0.6,2.2c-0.8,1.9-1.3,6.1-2,8.7c-2.2,7.8-5.5,7-7,6.1
		c-1.5-1-2,0.5-3.5,2.7c-0.4,0.5-1.3,1.5-2.5,2.7c1.4,0.6,3.4,2.5,1,4.3c-2.8,2.1-3.3,3.3-2,3c1.3-0.3,2.7-2.3,4.2-0.9
		c1.5,1.4-0.5,3-1.3,3.5c-0.8,0.4-2.4,1.2-2,2.9c0.4,1.7,0.7,4-1.5,4.5c-2.2,0.5-3.1-0.4-3.7-1.6c-0.6-1.2-1.2-0.4-1.5,1.1
		c-0.3,1.4-0.4,2.5-0.4,3c0,0.5-1.6-0.3-2.3-1c-0.7-0.7-1.6,1.2-2.4,0.3c-0.8-1,1-4,1.6-5.1c0.6-1,0.3-2.4-3.2-0.8
		c-1.1,1.9-2.1,4.7-3.5,9c-2,6-6.4,14.1-8.2,17c-4.8,7.7-5.7,15-4.9,19.5c0.7,4.5,1.3,4.2,2.3,4.2c1,0,3.4,3,5,4.9
		c1.6,1.9,2.2,1.1,3,0.4c2.6-2,7.7-5.3,15-8.8c3.1-1.5,7.3-3.1,11.3-4.4c0.1-1.7,0.5-3.7,0.6-4.5c0.2-0.9-0.7-1.2-1.6,0
		c-0.9,1.2-3.3,4-4.9,3.3c-1.6-0.7-2.9-2.5-2-4c0.9-1.5-0.4-2-1-2.8c-0.6-0.8-0.6-3.9,1.3-4.2c2-0.3,2.6,1.4,3.9,1.9
		c1.3,0.4,2.4,0.4,0.7-1.5c-1.7-1.9-3.7-1.2-2.7-3.7c1.1-2.6,2.6-2.4,4.4-1.9c1.8,0.5,2.7-0.4,3.8-1.2c1.2-0.8,3.5-1.9,5.1,0
		c1.6,1.9-1.2,3.6-1.8,4.2c-1.2,1.2-1.4,3.5-0.1,2.1c1.3-1.3,3.6-6.2,5.2-2.1c0.9,2.3-0.8,3.2-0.5,4.6c0.3,1.4,2.7,3.4,0.7,5.2
		c-2,1.8-4.7,0.3-5.9-0.8c-1.2-1.1-2.4-1.6-1.9,0.4c0.4,1.4,0.6,3,0.6,3.9c3.9-1.1,7.3-1.7,9-1.6c2.5,0.2,4.4,1,4.4-1.3
		C158.1,145.9,156.8,144.3,154.5,140.5z"/>
	<path class="st5" d="M122.9,156.4c-2.1,0.6-2.5-0.4-3.9-0.9c-1.4-0.5-1.5,0.7-0.5,2.2c1,1.5,2.1,2.9,0.9,2.9c-1.2,0-2,0.2-2.2,1.1
		c-0.2,0.9-2-0.2-2.5-2c-0.4-1.9-0.9-5.4-1.9-3.7c-1,1.8-1.9,4.7-4.4,3.4c-2.5-1.3-0.8-3.1-2-4.4c-1.2-1.2-2.4-2.8-1.2-5.1
		c1.3-2.2,2.3-0.4,3.5-0.4c1.2,0,1.3-1.1,0.3-1.9c-1.1-0.8-2.4-4.6,2.5-4.4c1.9,0.1,3.9-0.5,5.5-1.7c1.6-1.2,5.8-0.5,4.1,2.4
		c-1.7,2.9-1.2,3.6-0.2,2.5c1-1.1,2.2-3,4.1-2.5c1.9,0.5,1.1,2-0.1,3.6c-1.2,1.6-0.4,2.7,0.4,3.3C126.2,151.6,127.9,155,122.9,156.4
		z"/>
	<path class="st6" d="M122.9,156.4c-2.1,0.6-2.5-0.4-3.9-0.9c-1.4-0.5-1.5,0.7-0.5,2.2c1,1.5,2.1,2.9,0.9,2.9c-1.2,0-2,0.2-2.2,1.1
		c-0.2,0.9-2-0.2-2.5-2c-0.4-1.9-0.9-5.4-1.9-3.7c-1,1.8-1.9,4.7-4.4,3.4c-2.5-1.3-0.8-3.1-2-4.4c-1.2-1.2-2.4-2.8-1.2-5.1
		c1.3-2.2,2.3-0.4,3.5-0.4c1.2,0,1.3-1.1,0.3-1.9c-1.1-0.8-2.4-4.6,2.5-4.4c1.9,0.1,3.9-0.5,5.5-1.7c1.6-1.2,5.8-0.5,4.1,2.4
		c-1.7,2.9-1.2,3.6-0.2,2.5c1-1.1,2.2-3,4.1-2.5c1.9,0.5,1.1,2-0.1,3.6c-1.2,1.6-0.4,2.7,0.4,3.3C126.2,151.6,127.9,155,122.9,156.4
		z"/>
	<path class="st5" d="M132,135.4c-1.6,0.1-3.6-0.4-3.6-0.4c-0.2,1.7-1.8,4.1-3.5,6.6c-0.2,0.3-1.2,0.3-1.6-0.1c-0.4-0.4-1.7-1-0.7-2
		c1-1.1,2.6-3.3,2.3-4.3c-0.3-1-1-1.9-2-0.5c-1.1,1.3-2.8,4.1-4.6,4.2c-1.9,0.1-3.7-1.6-2.8-3.3c0.9-1.7,1.2-2.6-0.1-4.1
		c-1.2-1.5-0.8-3.4,1.9-4.6c0.8-0.4,2.2,0,3.2,0.8c1,0.8,1.5,0,0.2-0.8c-1.3-0.8-2.4-1.8-2.6-3.6c-0.2-1.7,0.9-3.5,3.2-2.5
		c2.3,1,3.7,0.2,4.7-0.6c1-0.8,5.1-1.8,4.5,1.9c-0.4,2.7-1.7,2.8-2,4.2c-0.4,1.4,0.7,0.5,1.3-0.5c0.6-1.1,2-5.4,5-2.1
		c0.7,0.8,0.4,2.1-0.4,3.6c-0.9,1.5-0.2,2.4,0.4,3.2C135.2,131.3,136.5,135.2,132,135.4z"/>
	<path class="st6" d="M132,135.4c-1.6,0.1-3.6-0.4-3.6-0.4c-0.2,1.7-1.8,4.1-3.5,6.6c-0.2,0.3-1.2,0.3-1.6-0.1c-0.4-0.4-1.7-1-0.7-2
		c1-1.1,2.6-3.3,2.3-4.3c-0.3-1-1-1.9-2-0.5c-1.1,1.3-2.8,4.1-4.6,4.2c-1.9,0.1-3.7-1.6-2.8-3.3c0.9-1.7,1.2-2.6-0.1-4.1
		c-1.2-1.5-0.8-3.4,1.9-4.6c0.8-0.4,2.2,0,3.2,0.8c1,0.8,1.5,0,0.2-0.8c-1.3-0.8-2.4-1.8-2.6-3.6c-0.2-1.7,0.9-3.5,3.2-2.5
		c2.3,1,3.7,0.2,4.7-0.6c1-0.8,5.1-1.8,4.5,1.9c-0.4,2.7-1.7,2.8-2,4.2c-0.4,1.4,0.7,0.5,1.3-0.5c0.6-1.1,2-5.4,5-2.1
		c0.7,0.8,0.4,2.1-0.4,3.6c-0.9,1.5-0.2,2.4,0.4,3.2C135.2,131.3,136.5,135.2,132,135.4z"/>
	<path class="st0" d="M130.4,22.8c1.2,0.1,2.5,0,2.8-0.8c0.3-0.8,0-1.4-0.4-1.6c-0.4-0.2-0.6-0.1-0.4-0.9c0.2-0.8,0.8-0.7,0.7-2
		c0-1.2-1-1.3-1.8-1c-0.8,0.3-1.2,0.7-2,1.7c-0.8,1.1-0.4-0.7-0.3-1c0.1-0.3,0.4-2.3-0.7-2.7c-0.6,0.3-1.2,0.6-1.8,0.9
		c-0.2,0.4-0.3,0.8-0.5,1.3c-0.4,1.2-1,0.3-1.4-0.3c0,0,0,0,0,0c-1.2,0.7-2.2,1.3-3,1.8c-0.1,0.1-0.2,0.1-0.3,0.2
		c0.1,0.7,1,1.6,1.4,1.9c0.6,0.4,0.2,1.2-0.5,1.2c-0.7,0-1.6-0.5-2.5,0.6c-0.9,1.1-0.3,2.1,0.5,2.1c0.8,0,1.6,0.3,1.9,1.3
		c0.3,1,0.6,1.4,1.7,1.5c1.2,0.1,1.8-0.8,2.1-1.3c0.3-0.5,0.7-1.3,1.2-1.1c0.7,0.3,0.6,1,0.4,1.8c0.8-0.5,1.7-1,2.6-1.4
		c-0.1-0.8-0.6-1.4-0.9-1.8C129,22.8,129.2,22.6,130.4,22.8z"/>
	<path class="st10" d="M130.4,22.8c1.2,0.1,2.5,0,2.8-0.8c0.3-0.8,0-1.4-0.4-1.6c-0.4-0.2-0.6-0.1-0.4-0.9c0.2-0.8,0.8-0.7,0.7-2
		c0-1.2-1-1.3-1.8-1c-0.8,0.3-1.2,0.7-2,1.7c-0.8,1.1-0.4-0.7-0.3-1c0.1-0.3,0.4-2.3-0.7-2.7c-0.6,0.3-1.2,0.6-1.8,0.9
		c-0.2,0.4-0.3,0.8-0.5,1.3c-0.4,1.2-1,0.3-1.4-0.3c0,0,0,0,0,0c-1.2,0.7-2.2,1.3-3,1.8c-0.1,0.1-0.2,0.1-0.3,0.2
		c0.1,0.7,1,1.6,1.4,1.9c0.6,0.4,0.2,1.2-0.5,1.2c-0.7,0-1.6-0.5-2.5,0.6c-0.9,1.1-0.3,2.1,0.5,2.1c0.8,0,1.6,0.3,1.9,1.3
		c0.3,1,0.6,1.4,1.7,1.5c1.2,0.1,1.8-0.8,2.1-1.3c0.3-0.5,0.7-1.3,1.2-1.1c0.7,0.3,0.6,1,0.4,1.8c0.8-0.5,1.7-1,2.6-1.4
		c-0.1-0.8-0.6-1.4-0.9-1.8C129,22.8,129.2,22.6,130.4,22.8z"/>
	<path class="st0" d="M140.3,9.9c-0.4,0.1-0.8,0.2-1.3,0.3c0.2,1,0.6,2.3,0.4,2.5c-0.3,0.2-1.3,0.4-2.1,0.6c-0.8,0.2-2.7,2-1.7,3.3
		c1,1.3,1.3,2.1,1.5,2.7c0.2,0.7,1.8,1.5,2.9,0.1c1.1-1.3,2-2.8,2.2-1.9c0.2,0.8,0.2,2.7,0,3.7c0.2,0,0.5-0.1,0.7-0.1
		C143.3,16.2,142.1,12.6,140.3,9.9z"/>
	<path class="st10" d="M140.3,9.9c-0.4,0.1-0.8,0.2-1.3,0.3c0.2,1,0.6,2.3,0.4,2.5c-0.3,0.2-1.3,0.4-2.1,0.6c-0.8,0.2-2.7,2-1.7,3.3
		c1,1.3,1.3,2.1,1.5,2.7c0.2,0.7,1.8,1.5,2.9,0.1c1.1-1.3,2-2.8,2.2-1.9c0.2,0.8,0.2,2.7,0,3.7c0.2,0,0.5-0.1,0.7-0.1
		C143.3,16.2,142.1,12.6,140.3,9.9z"/>
	<path class="st0" d="M115.9,33.8c-0.6-0.5-0.8-1.2,0-1.5c0.8-0.2,1.8-0.4,3.6-1.2c1.9-0.8,0.9-2.2,0-2.5c-0.8-0.4-0.9-1.2-0.8-2
		c0.1-0.8-0.1-2.1-1.8-1.5c-1.7,0.6-1.1,2.2-1.6,2.8c-0.5,0.5-0.8,0.4-0.7-0.4c0.1-0.8-0.6-1.3-1-1.5c-0.3-0.1-1-0.3-1.6-0.3
		c-1.7,1.5-3.3,3.1-4.4,4.7c0.3,0.5,0.9,1.2,1.2,1.3c0.5,0.1,1.1,0.4,1.1,1.3c0,0.8-1.7,0.8-2.8,0.8c0.8,2.1,1.6,3.6,2.7,4.8
		c0.2-0.1,0.6-0.2,1-0.4c1.4-0.6,1.8-2.7,2-3.3c0.2-0.6,0.8-0.5,1.2,0.3c0.3,0.6,0.4,1.1,0.4,1.6c0.8-0.8,1.6-1.5,2.3-2.2
		C116.5,34.3,116.2,34.1,115.9,33.8z"/>
	<path class="st10" d="M115.9,33.8c-0.6-0.5-0.8-1.2,0-1.5c0.8-0.2,1.8-0.4,3.6-1.2c1.9-0.8,0.9-2.2,0-2.5c-0.8-0.4-0.9-1.2-0.8-2
		c0.1-0.8-0.1-2.1-1.8-1.5c-1.7,0.6-1.1,2.2-1.6,2.8c-0.5,0.5-0.8,0.4-0.7-0.4c0.1-0.8-0.6-1.3-1-1.5c-0.3-0.1-1-0.3-1.6-0.3
		c-1.7,1.5-3.3,3.1-4.4,4.7c0.3,0.5,0.9,1.2,1.2,1.3c0.5,0.1,1.1,0.4,1.1,1.3c0,0.8-1.7,0.8-2.8,0.8c0.8,2.1,1.6,3.6,2.7,4.8
		c0.2-0.1,0.6-0.2,1-0.4c1.4-0.6,1.8-2.7,2-3.3c0.2-0.6,0.8-0.5,1.2,0.3c0.3,0.6,0.4,1.1,0.4,1.6c0.8-0.8,1.6-1.5,2.3-2.2
		C116.5,34.3,116.2,34.1,115.9,33.8z"/>
	<path class="st0" d="M139.5,86.9c0.3,0-0.4-3.2,0.1-3.3c0.6-0.1,0.8,1.7,2.1,1.5c1.2-0.2,1.6-1.5,1.4-2.8c-0.2-1.4,0.6-0.6,1.2-1.6
		c0.6-1-0.7-2.3-2.2-1.4c-1.5,0.9-1.2-0.3-0.4-0.8c0.8-0.5,0.2-2.3-1.5-1.7c-1.2,0.4-1.8-0.4-2.4-0.7c-0.4,0.2-0.9,0.4-1.3,0.6
		c-0.1,0.3,0,0.8,0.1,1.2c0.1,0.6,0.4,2-0.5,1.4c-0.8-0.5-1.9-0.8-2.2,0.2c-0.3,1,0.3,1.1,0.2,1.7c-0.1,0.6-1.7,0.8-0.9,2
		c0.8,1.3,1.9,0.6,2.6,0.1c0.8-0.5,1.5,0.1,1.2,0.8c-0.2,0.5-0.6,2.3-0.7,3.4c0.4,0.2,0.7,0.5,1.1,0.8
		C137.8,87.8,138.6,87.1,139.5,86.9z"/>
	<path class="st10" d="M139.5,86.9c0.3,0-0.4-3.2,0.1-3.3c0.6-0.1,0.8,1.7,2.1,1.5c1.2-0.2,1.6-1.5,1.4-2.8
		c-0.2-1.4,0.6-0.6,1.2-1.6c0.6-1-0.7-2.3-2.2-1.4c-1.5,0.9-1.2-0.3-0.4-0.8c0.8-0.5,0.2-2.3-1.5-1.7c-1.2,0.4-1.8-0.4-2.4-0.7
		c-0.4,0.2-0.9,0.4-1.3,0.6c-0.1,0.3,0,0.8,0.1,1.2c0.1,0.6,0.4,2-0.5,1.4c-0.8-0.5-1.9-0.8-2.2,0.2c-0.3,1,0.3,1.1,0.2,1.7
		c-0.1,0.6-1.7,0.8-0.9,2c0.8,1.3,1.9,0.6,2.6,0.1c0.8-0.5,1.5,0.1,1.2,0.8c-0.2,0.5-0.6,2.3-0.7,3.4c0.4,0.2,0.7,0.5,1.1,0.8
		C137.8,87.8,138.6,87.1,139.5,86.9z"/>
	<path class="st0" d="M115.2,83.9c0.7-0.2,2,1.2,3.1,0.4c1.2-0.8-0.5-1.6-0.3-2.3c0.2-0.7,0.8-2,0-2.6c-0.8-0.6-1.6,0-2.5,0.9
		c-0.8,0.9-0.5-0.8-0.1-1.6c0.6-1,0-1.6-1-1.8c-1-0.2-1.3,1.2-2,0.6c-1.1-1-2.7-0.6-2.3,0.8c0.4,1.4,0.8,1.8,0,2
		c-0.8,0.2-1.6-2-2.6-0.3c-1,1.8,0.6,2.3,0.4,3.6c-0.1,1.3,0.4,2.8,1.2,2.9c0.8,0.1,1.6-0.8,2.1-1.3c0.4-0.5,1.5-0.9,1.4,0.1
		c-0.1,0.7-0.1,2.2-0.2,3c1.6-0.8,3.4-1.6,4.3-2c0,0,0.1,0,0.1,0c-0.5-0.2-1.1-0.5-1.7-0.9C114.4,84.8,114.6,84,115.2,83.9z"/>
	<path class="st10" d="M115.2,83.9c0.7-0.2,2,1.2,3.1,0.4c1.2-0.8-0.5-1.6-0.3-2.3c0.2-0.7,0.8-2,0-2.6c-0.8-0.6-1.6,0-2.5,0.9
		c-0.8,0.9-0.5-0.8-0.1-1.6c0.6-1,0-1.6-1-1.8c-1-0.2-1.3,1.2-2,0.6c-1.1-1-2.7-0.6-2.3,0.8c0.4,1.4,0.8,1.8,0,2
		c-0.8,0.2-1.6-2-2.6-0.3c-1,1.8,0.6,2.3,0.4,3.6c-0.1,1.3,0.4,2.8,1.2,2.9c0.8,0.1,1.6-0.8,2.1-1.3c0.4-0.5,1.5-0.9,1.4,0.1
		c-0.1,0.7-0.1,2.2-0.2,3c1.6-0.8,3.4-1.6,4.3-2c0,0,0.1,0,0.1,0c-0.5-0.2-1.1-0.5-1.7-0.9C114.4,84.8,114.6,84,115.2,83.9z"/>
	<path class="st0" d="M95.5,124.4c2-0.6,2.1,1,1.9,2.3c-0.3,1.3-0.3,4.2-0.2,5.6l3.4,0.2c-0.2-0.9,0-3.5,0.1-5
		c0.1-1.5,1.6-3.8,2.1-1.5c0.5,2.3,2.8,2.4,4.5,1.4c1.6-1,2.8-3.1,4.5-6.1c1.7-3-0.5-3.8-1.9-3.7c-1.3,0.2-2.7,0.4,0.4-2.1
		c2.8-2.3-1.9-3.5-4.1-3.9c-3.6,3.8-8,8-11.9,11.4c-0.5,0.4-1,0.8-1.4,1.2C93.2,124.5,94.2,124.8,95.5,124.4z"/>
	<path class="st10" d="M95.5,124.4c2-0.6,2.1,1,1.9,2.3c-0.3,1.3-0.3,4.2-0.2,5.6l3.4,0.2c-0.2-0.9,0-3.5,0.1-5
		c0.1-1.5,1.6-3.8,2.1-1.5c0.5,2.3,2.8,2.4,4.5,1.4c1.6-1,2.8-3.1,4.5-6.1c1.7-3-0.5-3.8-1.9-3.7c-1.3,0.2-2.7,0.4,0.4-2.1
		c2.8-2.3-1.9-3.5-4.1-3.9c-3.6,3.8-8,8-11.9,11.4c-0.5,0.4-1,0.8-1.4,1.2C93.2,124.5,94.2,124.8,95.5,124.4z"/>
	<path class="st0" d="M92,146.8c1.7-0.5,2.8,3.1,5.3,1c2.5-2.1,0.7-3.9,0.6-5.7c-0.1-1.8,2-2.5,1.3-4.7c-0.9-3.4-4.1-0.2-6.1,1.7
		c-2,1.9-2,0.4-0.1-2.7c2-3-1.3-4-3.2-3.2c-1.7,0.7-3.3,0-4.4-0.9c-0.8,1.2-1.3,2.3-1.9,3.5c-1.7,3.5-0.5,3.6,0.7,3.6
		c1.2,0,3.9,5.3,4.3,6.2c0.1,0.3,1,1.7,2.2,3.4C90.8,148.1,90.9,147.1,92,146.8z"/>
	<path class="st10" d="M92,146.8c1.7-0.5,2.8,3.1,5.3,1c2.5-2.1,0.7-3.9,0.6-5.7c-0.1-1.8,2-2.5,1.3-4.7c-0.9-3.4-4.1-0.2-6.1,1.7
		c-2,1.9-2,0.4-0.1-2.7c2-3-1.3-4-3.2-3.2c-1.7,0.7-3.3,0-4.4-0.9c-0.8,1.2-1.3,2.3-1.9,3.5c-1.7,3.5-0.5,3.6,0.7,3.6
		c1.2,0,3.9,5.3,4.3,6.2c0.1,0.3,1,1.7,2.2,3.4C90.8,148.1,90.9,147.1,92,146.8z"/>
	<path class="st0" d="M118,123.3c-0.2-1.7,0.9-3.5,3.2-2.5c2.3,1,3.7,0.2,4.7-0.6c1-0.8,5.1-1.8,4.5,1.9c-0.4,2.7-1.7,2.8-2,4.2
		c-0.4,1.4,0.7,0.5,1.3-0.5c0.6-1.1,2-5.4,5-2.1c0.7,0.8,0.4,2.1-0.4,3.6c-0.9,1.5-0.2,2.4,0.4,3.2c0.5,0.8,1.8,4.7-2.7,5
		c-1.6,0.1-3.6-0.4-3.6-0.4c-0.2,1.7-1.8,4.1-3.5,6.6c-0.2,0.3-1.2,0.3-1.6-0.1c-0.4-0.4-1.7-1-0.7-2c1-1.1,2.6-3.3,2.3-4.3
		c-0.3-1-1-1.9-2-0.5c-1.1,1.3-2.8,4.1-4.6,4.2c-1.9,0.1-3.7-1.6-2.8-3.3c0.9-1.7,1.2-2.6-0.1-4.1c-1.2-1.5-0.8-3.4,1.9-4.6
		c0.8-0.4,2.2,0,3.2,0.8c1,0.8,1.5,0,0.2-0.8C119.3,126.1,118.2,125.1,118,123.3z"/>
	<path class="st10" d="M118,123.3c-0.2-1.7,0.9-3.5,3.2-2.5c2.3,1,3.7,0.2,4.7-0.6c1-0.8,5.1-1.8,4.5,1.9c-0.4,2.7-1.7,2.8-2,4.2
		c-0.4,1.4,0.7,0.5,1.3-0.5c0.6-1.1,2-5.4,5-2.1c0.7,0.8,0.4,2.1-0.4,3.6c-0.9,1.5-0.2,2.4,0.4,3.2c0.5,0.8,1.8,4.7-2.7,5
		c-1.6,0.1-3.6-0.4-3.6-0.4c-0.2,1.7-1.8,4.1-3.5,6.6c-0.2,0.3-1.2,0.3-1.6-0.1c-0.4-0.4-1.7-1-0.7-2c1-1.1,2.6-3.3,2.3-4.3
		c-0.3-1-1-1.9-2-0.5c-1.1,1.3-2.8,4.1-4.6,4.2c-1.9,0.1-3.7-1.6-2.8-3.3c0.9-1.7,1.2-2.6-0.1-4.1c-1.2-1.5-0.8-3.4,1.9-4.6
		c0.8-0.4,2.2,0,3.2,0.8c1,0.8,1.5,0,0.2-0.8C119.3,126.1,118.2,125.1,118,123.3z"/>
	<path class="st0" d="M140.6,111.8c-1.6-0.4-3.7-0.6-3.9,2.7c-0.1,1.2,1.2,2.2,2.3,2.7c1.2,0.4,1,1.2-0.3,0.8
		c-1.2-0.4-2.2-0.7-3.1,1.9c-0.9,2.6,0.7,2.9,1.5,3.1c0.8,0.2,1.4,0.4,1.2,1.4c-0.2,1.1-0.7,4.2,1.3,4.4c2,0.3,3.8-2.2,4.5-3.5
		c0.6-1.2,1.3-2.5,1.5-1.1c0.2,1.4-0.1,2.1-0.8,3.7c-0.7,1.6-0.7,2.3,0.4,2.2c1.1-0.1,2.9,0,3.4-1.2c0.5-1.2,1.3-3.6,1.4-5.3
		c0.1-1.1,1-1.2,1.7-1.1c0.2-1.8,0.5-3.6,0.7-5.1c-3.5,0.5-6.5-3.7-7.5-7.4C143.8,111.2,142,112.1,140.6,111.8z"/>
	<path class="st10" d="M140.6,111.8c-1.6-0.4-3.7-0.6-3.9,2.7c-0.1,1.2,1.2,2.2,2.3,2.7c1.2,0.4,1,1.2-0.3,0.8
		c-1.2-0.4-2.2-0.7-3.1,1.9c-0.9,2.6,0.7,2.9,1.5,3.1c0.8,0.2,1.4,0.4,1.2,1.4c-0.2,1.1-0.7,4.2,1.3,4.4c2,0.3,3.8-2.2,4.5-3.5
		c0.6-1.2,1.3-2.5,1.5-1.1c0.2,1.4-0.1,2.1-0.8,3.7c-0.7,1.6-0.7,2.3,0.4,2.2c1.1-0.1,2.9,0,3.4-1.2c0.5-1.2,1.3-3.6,1.4-5.3
		c0.1-1.1,1-1.2,1.7-1.1c0.2-1.8,0.5-3.6,0.7-5.1c-3.5,0.5-6.5-3.7-7.5-7.4C143.8,111.2,142,112.1,140.6,111.8z"/>
	<path class="st0" d="M124,111.1c-0.6,1.1-2.4,4.1-1.6,5.1c0.8,1,1.7-1,2.4-0.3c0.7,0.7,2.3,1.5,2.3,1c0-0.5,0.2-1.6,0.4-3
		c0.3-1.4,0.9-2.2,1.5-1.1c0.6,1.2,1.5,2.1,3.7,1.6c2.2-0.5,2-2.8,1.5-4.5c-0.4-1.7,1.2-2.5,2-2.9c0.8-0.4,2.9-2,1.3-3.5
		c-1.5-1.4-2.8,0.6-4.2,0.9c-1.3,0.3-0.8-0.9,2-3c2.4-1.8,0.4-3.7-1.1-4.3c-3.8,3.9-10.6,10.1-12.1,11.5c-0.5,0.5-1,1.1-1.4,1.8
		C124.4,108.7,124.6,110.1,124,111.1z"/>
	<path class="st10" d="M124,111.1c-0.6,1.1-2.4,4.1-1.6,5.1c0.8,1,1.7-1,2.4-0.3c0.7,0.7,2.3,1.5,2.3,1c0-0.5,0.2-1.6,0.4-3
		c0.3-1.4,0.9-2.2,1.5-1.1c0.6,1.2,1.5,2.1,3.7,1.6c2.2-0.5,2-2.8,1.5-4.5c-0.4-1.7,1.2-2.5,2-2.9c0.8-0.4,2.9-2,1.3-3.5
		c-1.5-1.4-2.8,0.6-4.2,0.9c-1.3,0.3-0.8-0.9,2-3c2.4-1.8,0.4-3.7-1.1-4.3c-3.8,3.9-10.6,10.1-12.1,11.5c-0.5,0.5-1,1.1-1.4,1.8
		C124.4,108.7,124.6,110.1,124,111.1z"/>
	<path class="st0" d="M146.1,146.9c1.2,1.1,3.9,2.6,5.9,0.8c2-1.8-0.4-3.7-0.7-5.2c-0.3-1.4,1.4-2.3,0.5-4.6c-1.5-4-3.8,0.8-5.2,2.1
		c-1.3,1.3-1.1-0.9,0.1-2.1c0.6-0.6,3.4-2.3,1.8-4.2c-1.6-1.9-3.9-0.8-5.1,0c-1.2,0.8-2.1,1.8-3.8,1.2c-1.8-0.5-3.3-0.7-4.4,1.9
		c-1.1,2.6,1,1.9,2.7,3.7c1.7,1.9,0.6,2-0.7,1.5c-1.3-0.4-2-2.1-3.9-1.9c-2,0.3-2,3.4-1.3,4.2c0.6,0.8,1.9,1.2,1,2.8
		c-0.9,1.5,0.4,3.3,2,4c1.6,0.7,4-2.1,4.9-3.3c0.9-1.2,1.8-0.9,1.6,0c-0.2,0.8-0.6,2.8-0.6,4.5c1.4-0.4,2.7-0.8,4-1.2
		c0-0.9-0.2-2.4-0.6-3.9C143.7,145.3,144.9,145.8,146.1,146.9z"/>
	<path class="st10" d="M146.1,146.9c1.2,1.1,3.9,2.6,5.9,0.8c2-1.8-0.4-3.7-0.7-5.2c-0.3-1.4,1.4-2.3,0.5-4.6
		c-1.5-4-3.8,0.8-5.2,2.1c-1.3,1.3-1.1-0.9,0.1-2.1c0.6-0.6,3.4-2.3,1.8-4.2c-1.6-1.9-3.9-0.8-5.1,0c-1.2,0.8-2.1,1.8-3.8,1.2
		c-1.8-0.5-3.3-0.7-4.4,1.9c-1.1,2.6,1,1.9,2.7,3.7c1.7,1.9,0.6,2-0.7,1.5c-1.3-0.4-2-2.1-3.9-1.9c-2,0.3-2,3.4-1.3,4.2
		c0.6,0.8,1.9,1.2,1,2.8c-0.9,1.5,0.4,3.3,2,4c1.6,0.7,4-2.1,4.9-3.3c0.9-1.2,1.8-0.9,1.6,0c-0.2,0.8-0.6,2.8-0.6,4.5
		c1.4-0.4,2.7-0.8,4-1.2c0-0.9-0.2-2.4-0.6-3.9C143.7,145.3,144.9,145.8,146.1,146.9z"/>
	<path class="st0" d="M111.5,143.4c1.9,0.1,3.9-0.5,5.5-1.7c1.6-1.2,5.8-0.5,4.1,2.4c-1.7,2.9-1.2,3.6-0.2,2.5c1-1.1,2.2-3,4.1-2.5
		c1.9,0.5,1.1,2-0.1,3.6c-1.2,1.6-0.4,2.7,0.4,3.3c0.9,0.6,2.5,4-2.4,5.4c-2.1,0.6-2.5-0.4-3.9-0.9c-1.4-0.5-1.5,0.7-0.5,2.2
		c1,1.5,2.1,2.9,0.9,2.9c-1.2,0-2,0.2-2.2,1.1c-0.2,0.9-2-0.2-2.5-2c-0.4-1.9-0.9-5.4-1.9-3.7c-1,1.8-1.9,4.7-4.4,3.4
		c-2.5-1.3-0.8-3.1-2-4.4c-1.2-1.2-2.4-2.8-1.2-5.1c1.3-2.2,2.3-0.4,3.5-0.4c1.2,0,1.3-1.1,0.3-1.9
		C107.9,147,106.6,143.2,111.5,143.4z"/>
	<path class="st10" d="M111.5,143.4c1.9,0.1,3.9-0.5,5.5-1.7c1.6-1.2,5.8-0.5,4.1,2.4c-1.7,2.9-1.2,3.6-0.2,2.5c1-1.1,2.2-3,4.1-2.5
		c1.9,0.5,1.1,2-0.1,3.6c-1.2,1.6-0.4,2.7,0.4,3.3c0.9,0.6,2.5,4-2.4,5.4c-2.1,0.6-2.5-0.4-3.9-0.9c-1.4-0.5-1.5,0.7-0.5,2.2
		c1,1.5,2.1,2.9,0.9,2.9c-1.2,0-2,0.2-2.2,1.1c-0.2,0.9-2-0.2-2.5-2c-0.4-1.9-0.9-5.4-1.9-3.7c-1,1.8-1.9,4.7-4.4,3.4
		c-2.5-1.3-0.8-3.1-2-4.4c-1.2-1.2-2.4-2.8-1.2-5.1c1.3-2.2,2.3-0.4,3.5-0.4c1.2,0,1.3-1.1,0.3-1.9
		C107.9,147,106.6,143.2,111.5,143.4z"/>
	<path class="st5" d="M129.1,81.1c-0.5,1.4-1.2,3.2-1.6,4.1c-0.4,0.9-2,0.5-1.9-0.1c0.3-1.3-1.6-0.4-1.4-1.5
		c0.2-0.9-0.2-2.3,0.8-2.3C126,81.3,127.8,81.1,129.1,81.1z"/>
	<path class="st6" d="M129.1,81.1c-0.5,1.4-1.2,3.2-1.6,4.1c-0.4,0.9-2,0.5-1.9-0.1c0.3-1.3-1.6-0.4-1.4-1.5
		c0.2-0.9-0.2-2.3,0.8-2.3C126,81.3,127.8,81.1,129.1,81.1z"/>
	<path class="st5" d="M126.1,16.7c0.2-0.4,0.3-0.9,0.5-1.3c-0.7,0.3-1.3,0.7-1.9,1C125.1,17,125.6,17.9,126.1,16.7z"/>
	<path class="st5" d="M142.2,17.6c-0.3-0.9-1.1,0.5-2.2,1.9c-1.1,1.3-2.7,0.5-2.9-0.1c-0.2-0.7-0.5-1.4-1.5-2.7
		c-1-1.3,0.9-3.1,1.7-3.3c0.8-0.2,1.8-0.4,2.1-0.6c0.2-0.2-0.2-1.5-0.4-2.5c-3.2,0.9-7.1,2.6-10.5,4.3c1,0.4,0.7,2.4,0.6,2.7
		c-0.1,0.3-0.5,2.1,0.3,1c0.8-1.1,1.1-1.5,2-1.7c0.8-0.3,1.8-0.2,1.8,1c0,1.2-0.5,1.2-0.7,2c-0.2,0.8,0,0.8,0.4,0.9
		c0.4,0.2,0.7,0.7,0.4,1.6c-0.3,0.8-1.6,0.9-2.8,0.8c-1.2-0.1-1.3,0-0.9,0.4c0.3,0.3,0.8,1,0.9,1.8c2.9-1.4,6.4-2.6,11.8-3.7
		C142.3,20.3,142.4,18.4,142.2,17.6z"/>
	<path class="st5" d="M114,35.2c-0.4-0.8-1-0.9-1.2-0.3c-0.2,0.6-0.7,2.7-2,3.3c-0.4,0.2-0.8,0.3-1,0.4c0.5,0.5,1,1,1.6,1.4
		c1.1-1.2,2.1-2.2,3.1-3.2C114.4,36.3,114.3,35.7,114,35.2z"/>
	<path class="st5" d="M127.3,24.5c-0.5-0.2-0.9,0.6-1.2,1.1c-0.3,0.5-1,1.4-2.1,1.3c-1.2-0.1-1.4-0.5-1.7-1.5c-0.3-1-1-1.3-1.9-1.3
		c-0.8,0-1.4-1-0.5-2.1c0.9-1.1,1.8-0.6,2.5-0.6c0.7,0,1.1-0.8,0.5-1.2c-0.5-0.3-1.3-1.2-1.4-1.9c-2.5,1.7-6.2,4.3-9.3,7.1
		c0.6,0.1,1.2,0.2,1.5,0.4c0.4,0.2,1.1,0.7,1,1.5c-0.1,0.8,0.2,1,0.7,0.4c0.5-0.5-0.1-2.1,1.6-2.8c1.6-0.6,1.9,0.6,1.8,1.5
		c-0.1,0.8,0,1.6,0.8,2c0.8,0.4,1.8,1.7,0,2.5c-1.9,0.8-2.9,1-3.6,1.2c-0.8,0.2-0.6,1,0,1.5c0.4,0.3,0.7,0.6,0.9,0.8
		c2.4-2.2,4.6-4,7.1-5.7c1.4-0.9,2.6-1.8,3.9-2.5C128,25.6,128.1,24.8,127.3,24.5z"/>
	<path class="st5" d="M109.9,32.9c0.1-0.9-0.6-1.2-1.1-1.3c-0.3-0.1-0.9-0.7-1.2-1.3c-0.4,0.6-0.8,1.2-1.1,1.8
		c0.2,0.6,0.4,1.2,0.6,1.7C108.2,33.7,109.9,33.6,109.9,32.9z"/>
	<path class="st5" d="M147.5,74.4c-2.9-0.2-6.4,0.4-9.7,1.7c0.6,0.3,1.2,1.1,2.4,0.7c1.7-0.6,2.3,1.2,1.5,1.7
		c-0.8,0.5-1.1,1.7,0.4,0.8c1.5-0.9,2.8,0.4,2.2,1.4c-0.6,1-1.4,0.2-1.2,1.6c0.2,1.4-0.1,2.6-1.4,2.8c-1.2,0.2-1.5-1.6-2.1-1.5
		c-0.6,0.1,0.1,3.3-0.1,3.3c-0.9,0.1-1.7,0.9-2.1,1.4c0,0,0.1,0,0.1,0.1c4.9,3.5,6.1,1.6,6.8-0.1c0.7-1.7,2.3-6.7,2.8-9.3
		C147.3,77.4,147.7,75.8,147.5,74.4z"/>
	<path class="st5" d="M136.9,84.1c0.3-0.7-0.4-1.2-1.2-0.8c-0.8,0.5-1.9,1.2-2.6-0.1c-0.8-1.3,0.8-1.4,0.9-2
		c0.1-0.6-0.5-0.7-0.2-1.7c0.3-1,1.4-0.7,2.2-0.2c0.9,0.6,0.7-0.9,0.5-1.4c-0.1-0.4-0.2-0.9-0.1-1.2c-1,0.4-1.9,0.9-2.8,1.5
		c-4.6,2.8-4.7,5.2-3.6,6.1c1,0.8,2.9,1.2,6.2,3.3C136.2,86.4,136.7,84.6,136.9,84.1z"/>
	<path class="st5" d="M122.3,81.4c-1.9-0.9-3.7-3-5-5.4c0,0,0.1-0.4-0.4-0.4c-0.5,0-2.5-0.2-5.8-1.3c-3.3-1.2-3.7-0.4-4.2,1
		c-0.4,1.4-0.8,4-0.9,8.3c-0.1,4.3,1.8,6.9,2.9,6.5c0.6-0.2,2-0.9,3.6-1.7c0-0.9,0.1-2.3,0.2-3c0.1-1-0.9-0.6-1.4-0.1
		c-0.4,0.5-1.3,1.4-2.1,1.3c-0.8-0.1-1.3-1.6-1.2-2.9c0.1-1.3-1.4-1.9-0.4-3.6c1-1.8,1.8,0.4,2.6,0.3c0.8-0.2,0.4-0.6,0-2
		c-0.4-1.4,1.3-1.8,2.3-0.8c0.7,0.6,1-0.8,2-0.6c1,0.2,1.6,0.8,1,1.8c-0.5,0.8-0.8,2.5,0.1,1.6c0.8-0.9,1.7-1.5,2.5-0.9
		c0.8,0.6,0.3,1.9,0,2.6c-0.2,0.7,1.4,1.5,0.3,2.3c-1.2,0.8-2.4-0.6-3.1-0.4c-0.7,0.2-0.8,1,0.1,1.6c0.6,0.4,1.2,0.7,1.6,0.9
		c1.9-0.6,4-1.8,4.7-2.3l1.2,0.1C122.9,82.7,122.8,81.7,122.3,81.4z"/>
	<path class="st5" d="M115.7,101c-0.7-1.6-1-0.4-2.9,2.8c-1,1.6-3.5,4.5-6.7,7.8c2.2,0.4,6.9,1.6,4.1,3.9c-3,2.5-1.7,2.3-0.4,2.1
		c1.3-0.2,3.6,0.6,1.9,3.7c-1.7,3-2.9,5.2-4.5,6.1c-1.6,1-3.9,0.9-4.5-1.4c-0.5-2.3-2,0-2.1,1.5c-0.1,1.5-0.3,4.1-0.1,5l-3.4-0.2
		c-0.1-1.4-0.1-4.3,0.2-5.6c0.3-1.3,0.2-2.9-1.9-2.3c-1.3,0.4-2.3,0.1-2.7-0.2c-4,3.5-6,6-7.3,8.1c1,0.9,2.6,1.6,4.4,0.9
		c2-0.8,5.2,0.2,3.2,3.2c-2,3-1.9,4.5,0.1,2.7c2-1.9,5.1-5.1,6.1-1.7c0.6,2.2-1.4,2.9-1.3,4.7c0.1,1.8,1.9,3.6-0.6,5.7
		c-2.5,2.1-3.6-1.5-5.3-1c-1,0.3-1.2,1.3-1.2,2.1c2.2,3.1,5.4,7.6,6.6,9.5c1.8,2.9,1.8,6.5,2.5,6c0.7-0.5,2.4-2.1,2.9-2.6
		c0.5-0.4,1.1-1,0.8-2c-0.3-1-1.3-6.2-1-9.9c0.4-4.2,2.3-8.8,3.7-11.4c1.4-2.5,5.5-10.6,6.5-12.7c1-2.1,2.8-4.6,3.2-6.6
		c0.5-2,2.1-6.5,2.9-8.6C118.8,108.8,117.6,105.2,115.7,101z"/>
	<path class="st5" d="M154.5,140.5c-2.3-3.8-2.8-5.3-3.1-9.3c-0.2-2.5,0-5.7,0.3-8.8c-0.7-0.1-1.6,0.1-1.7,1.1
		c-0.1,1.7-0.9,4.1-1.4,5.3c-0.5,1.2-2.3,1.2-3.4,1.2c-1.1,0.1-1.1-0.6-0.4-2.2c0.7-1.6,1-2.3,0.8-3.7c-0.2-1.4-0.9-0.2-1.5,1.1
		c-0.6,1.2-2.4,3.7-4.5,3.5c-2-0.3-1.5-3.4-1.3-4.4c0.2-1.1-0.4-1.2-1.2-1.4c-0.8-0.2-2.4-0.5-1.5-3.1c0.9-2.6,1.9-2.3,3.1-1.9
		c1.2,0.4,1.4-0.4,0.3-0.8c-1.2-0.4-2.4-1.4-2.3-2.7c0.2-3.3,2.3-3,3.9-2.7c1.4,0.3,3.2-0.5,4.3-1.8c0-0.1,0-0.2-0.1-0.2
		c-2.4-9.1,2.1-20.2,3.4-23.3c1.3-3.1,6.1-11.9,7.7-14.5c-0.9-0.4-3.2-1.6-4.5-2.3c-1.3-0.7-2-1-2.4-0.5c-0.4,0.5-0.8,0.8-1.4,1.6
		c-1.2,1.8-0.2,1.5,0.2,1.5c0.4,0,1.9,2,2.1,2.4c0.3,0.4,0,0.8-0.6,2.2c-0.8,1.9-1.3,6.1-2,8.7c-2.2,7.8-5.5,7-7,6.1
		c-1.5-1-2,0.5-3.5,2.7c-0.4,0.5-1.3,1.5-2.5,2.7c1.4,0.6,3.4,2.5,1,4.3c-2.8,2.1-3.3,3.3-2,3c1.3-0.3,2.7-2.3,4.2-0.9
		c1.5,1.4-0.5,3-1.3,3.5c-0.8,0.4-2.4,1.2-2,2.9c0.4,1.7,0.7,4-1.5,4.5c-2.2,0.5-3.1-0.4-3.7-1.6c-0.6-1.2-1.2-0.4-1.5,1.1
		c-0.3,1.4-0.4,2.5-0.4,3c0,0.5-1.6-0.3-2.3-1c-0.7-0.7-1.6,1.2-2.4,0.3c-0.8-1,1-4,1.6-5.1c0.6-1,0.3-2.4-3.2-0.8
		c-1.1,1.9-2.1,4.7-3.5,9c-2,6-6.4,14.1-8.2,17c-4.8,7.7-5.7,15-4.9,19.5c0.7,4.5,1.3,4.2,2.3,4.2c1,0,3.4,3,5,4.9
		c1.6,1.9,2.2,1.1,3,0.4c2.6-2,7.7-5.3,15-8.8c3.1-1.5,7.3-3.1,11.3-4.4c0.1-1.7,0.5-3.7,0.6-4.5c0.2-0.9-0.7-1.2-1.6,0
		c-0.9,1.2-3.3,4-4.9,3.3c-1.6-0.7-2.9-2.5-2-4c0.9-1.5-0.4-2-1-2.8c-0.6-0.8-0.6-3.9,1.3-4.2c2-0.3,2.6,1.4,3.9,1.9
		c1.3,0.4,2.4,0.4,0.7-1.5c-1.7-1.9-3.7-1.2-2.7-3.7c1.1-2.6,2.6-2.4,4.4-1.9c1.8,0.5,2.7-0.4,3.8-1.2c1.2-0.8,3.5-1.9,5.1,0
		c1.6,1.9-1.2,3.6-1.8,4.2c-1.2,1.2-1.4,3.5-0.1,2.1c1.3-1.3,3.6-6.2,5.2-2.1c0.9,2.3-0.8,3.2-0.5,4.6c0.3,1.4,2.7,3.4,0.7,5.2
		c-2,1.8-4.7,0.3-5.9-0.8c-1.2-1.1-2.4-1.6-1.9,0.4c0.4,1.4,0.6,3,0.6,3.9c3.9-1.1,7.3-1.7,9-1.6c2.5,0.2,4.4,1,4.4-1.3
		C158.1,145.9,156.8,144.3,154.5,140.5z"/>
	<path class="st0" d="M122.9,156.4c-2.1,0.6-2.5-0.4-3.9-0.9c-1.4-0.5-1.5,0.7-0.5,2.2c1,1.5,2.1,2.9,0.9,2.9c-1.2,0-2,0.2-2.2,1.1
		c-0.2,0.9-2-0.2-2.5-2c-0.4-1.9-0.9-5.4-1.9-3.7c-1,1.8-1.9,4.7-4.4,3.4c-2.5-1.3-0.8-3.1-2-4.4c-1.2-1.2-2.4-2.8-1.2-5.1
		c1.3-2.2,2.3-0.4,3.5-0.4c1.2,0,1.3-1.1,0.3-1.9c-1.1-0.8-2.4-4.6,2.5-4.4c1.9,0.1,3.9-0.5,5.5-1.7c1.6-1.2,5.8-0.5,4.1,2.4
		c-1.7,2.9-1.2,3.6-0.2,2.5c1-1.1,2.2-3,4.1-2.5c1.9,0.5,1.1,2-0.1,3.6c-1.2,1.6-0.4,2.7,0.4,3.3C126.2,151.6,127.9,155,122.9,156.4
		z"/>
	<path class="st0" d="M132,135.4c-1.6,0.1-3.6-0.4-3.6-0.4c-0.2,1.7-1.8,4.1-3.5,6.6c-0.2,0.3-1.2,0.3-1.6-0.1c-0.4-0.4-1.7-1-0.7-2
		c1-1.1,2.6-3.3,2.3-4.3c-0.3-1-1-1.9-2-0.5c-1.1,1.3-2.8,4.1-4.6,4.2c-1.9,0.1-3.7-1.6-2.8-3.3c0.9-1.7,1.2-2.6-0.1-4.1
		c-1.2-1.5-0.8-3.4,1.9-4.6c0.8-0.4,2.2,0,3.2,0.8c1,0.8,1.5,0,0.2-0.8c-1.3-0.8-2.4-1.8-2.6-3.6c-0.2-1.7,0.9-3.5,3.2-2.5
		c2.3,1,3.7,0.2,4.7-0.6c1-0.8,5.1-1.8,4.5,1.9c-0.4,2.7-1.7,2.8-2,4.2c-0.4,1.4,0.7,0.5,1.3-0.5c0.6-1.1,2-5.4,5-2.1
		c0.7,0.8,0.4,2.1-0.4,3.6c-0.9,1.5-0.2,2.4,0.4,3.2C135.2,131.3,136.5,135.2,132,135.4z"/>
	<polygon class="st2" points="205.4,64.7 208.1,62.7 214,71.5 217.5,69 211.4,60.4 214.1,58.6 220.5,67.6 224,65.2 214.4,51.7 
		198.6,62.9 207.3,75.3 210.8,72.8 	"/>
	<polygon class="st2" points="216.8,95 222,92.6 218.4,84.9 230.5,79.9 228.3,75.1 211.2,82.5 	"/>
	<polygon class="st2" points="219.9,103.2 220.4,108 231.9,106.6 232.3,111.6 237.4,111.2 236,94.5 230.9,94.9 231.3,101.8 	"/>
	<polygon class="st2" points="220.5,119.4 220.5,125.1 237.4,125 237.3,119.4 	"/>
	<path class="st2" d="M228.4,133.1c-2.8-0.5-6.2-0.1-8.5,1.7c-2.1,1.6-3.1,3.2-3.6,6.1c-0.3,1.8-0.1,4.3,0.5,6.4l4.5-1.5
		c-0.4-1-0.6-2.6-0.1-4.2c0.9-3,3.4-4.4,6.4-4c3.2,0.5,5,3.4,4.5,6.9c-0.2,1.4-0.9,2.6-2.5,3.5l2.8,3.3c2.2-1.4,3.9-4.1,4.3-6
		c0.6-3.2-0.1-5.4-1.6-8C233.4,134.9,231,133.6,228.4,133.1z"/>
	<path class="st2" d="M225.3,156.6c-2.4-0.6-5.6,2-7.1,3.5c-0.9,0.9-4,4-5.4,3.5c-1.3-0.4-0.9-2.4-0.5-3.7c0.6-1.9,1.6-3.4,3.1-4.5
		l-2.8-1.2c-1.4,1.1-2.9,3-3.5,4.8c-0.7,2.1-1,4.6-0.7,6.2c0.4,2,1.1,3.3,3.4,3.1c1.8-0.2,6.2-3.1,8.8-5.5c1.3-1.2,2.4-1.4,3-1
		c0.9,0.5,0.9,2.1,0.5,3.1c-0.4,1.3-1.1,3.4-2.2,4.2l3.8,2.5c1.6-1.6,2.4-3.9,2.8-6.1C229.7,160.3,226.8,157,225.3,156.6z"/>
	<path class="st2" d="M204.1,44.9c-0.3-2.6-1.8-5.6-3.2-6.9c-2.3-2-4.9-2.5-7.8-2.1c-2.9,0.4-5.6,2.2-7.1,4.4
		c-1.7,2.3-2.6,5.6-1.9,8.4c0.6,2.6,1.6,4.1,4.1,5.8c1.5,1.1,3.9,1.8,6,2.1l0.5-4.7c-1.1,0-2.6-0.5-3.9-1.6c-2.4-2.1-2.5-5.4-1-7.5
		c1.9-2.6,5.2-3.2,8.2-1.2c1.2,0.8,1.6,2,1.8,3.9L204.1,44.9z"/>
	<path class="st2" d="M32,141.9c0.1-1.3,0.1-3.6,1.4-3.9c1.3-0.3,2.2,1,2.5,2.3c0.4,1.9,0.9,3.4,0.2,5.1l3.6-0.4
		c0.6-1.7,0.4-3.9,0-5.8c-0.5-2.2-1.2-3.7-2.8-5.2c-1.6-1.4-2.7-1.7-5-1.3c-1.4,0.3-3.8,2.8-3.9,7.7c0,0.9-0.2,2.7-1.1,2.8
		c-1.1,0.1-1.9-1.2-2.1-2.3c-0.3-1.4,0.1-4.4,0.6-5.6l-3.8,0c-0.5,2.1-0.7,5.1-0.3,7.3c1,4.8,4,6.4,6.3,6.2
		C30.3,148.6,31.6,146,32,141.9z"/>
	<polygon class="st2" points="24.5,121.5 37.8,121.3 37.7,117.2 24.4,117.3 24.4,111.7 20.1,111.7 20.3,127.6 24.5,127.5 	"/>
	<polygon class="st2" points="48.5,79.8 38.2,73.9 38.3,73.8 51.8,73.6 55.1,68.6 38.3,58.9 35.8,62.9 47.2,70 31.7,70.5 29.5,74.7 
		46,84.2 	"/>
	<path class="st2" d="M31.9,105.1c5.7,0,10.3-4.6,10.3-10.3c0-5.7-4.6-10.3-10.3-10.3c-5.7,0-10.3,4.6-10.3,10.3
		C21.6,100.5,26.2,105.1,31.9,105.1z M31.9,89.5c3,0,5.4,2.4,5.4,5.4c0,3-2.4,5.4-5.4,5.4c-3,0-5.4-2.4-5.4-5.4
		C26.5,91.9,28.9,89.5,31.9,89.5z"/>
	<path class="st2" d="M48.8,162.5c0-5.7-4.6-10.3-10.3-10.3c-5.7,0-10.3,4.6-10.3,10.3c0,5.7,4.6,10.3,10.3,10.3
		C44.2,172.8,48.8,168.2,48.8,162.5z M38.5,167.9c-3,0-5.4-2.4-5.4-5.4c0-3,2.4-5.4,5.4-5.4c3,0,5.4,2.4,5.4,5.4
		C43.9,165.5,41.5,167.9,38.5,167.9z"/>
	<path class="st2" d="M50.9,174.3c-1.6,1.4-2.3,4.7-0.8,7c-1.6-0.8-4.9-1.1-6.4,0.2c-3.7,3.2,0.8,7.9,4.5,11.5l5.1,5.1l13.7-11.3
		l-5.5-6.4C59.4,177.9,54.1,171.4,50.9,174.3z M51.5,192.2c-1.4-1.6-5.4-4.8-3.7-6.4c1.6-1.6,5.7,3.4,6.2,4L51.5,192.2z M57.8,186.5
		l-0.4-0.4c-1.1-1.4-5-5.4-3.4-6.9c1.4-1.4,5.1,3.3,6.1,4.5l0.4,0.5L57.8,186.5z"/>
</g>
</svg>
