<?xml version="1.0" encoding="utf-8"?>
<!-- Generator: Adobe Illustrator 25.2.3, SVG Export Plug-In . SVG Version: 6.00 Build 0)  -->
<svg version="1.1" id="Layer_1" xmlns="http://www.w3.org/2000/svg" xmlns:xlink="http://www.w3.org/1999/xlink" x="0px" y="0px"
	 viewBox="0 0 256 256" style="enable-background:new 0 0 256 256;" xml:space="preserve">
<style type="text/css">
	.st0{fill:#95774D;}
	.st1{fill:#002147;}
	.st2{fill:#981E32;}
	.st3{clip-path:url(#SVGID_2_);fill:#95774D;}
	.st4{fill:#002B60;}
	.st5{fill:none;}
	.st6{clip-path:url(#SVGID_4_);fill:#FFFFFF;}
	.st7{fill:#FFFFFF;}
	.st8{clip-path:url(#SVGID_6_);fill:#FFFFFF;}
	.st9{clip-path:url(#SVGID_8_);fill:#FFFFFF;}
</style>
<g>
	<path class="st0" d="M78.1,131.7c-2.2-37.3,26.4-69.3,63.7-71.5c37.3-2.1,69.3,26.4,71.5,63.7c2.1,37.3-26.4,69.3-63.7,71.5
		C112.2,197.5,80.2,169,78.1,131.7z"/>
	<path class="st1" d="M210.1,124.1c2,35.6-25.1,66.1-60.7,68.1c-35.6,2.1-66.1-25.1-68.1-60.7c-2-35.6,25.1-66.1,60.7-68.1
		C177.5,61.4,208,88.5,210.1,124.1z"/>
	<path class="st2" d="M153.7,68.7c22.7,3.1,41.7,19.1,48.7,40.7c-17.2-16.8-39-26.6-61.5-25.9C141.8,76,147.8,71.1,153.7,68.7z
		 M132.1,69.8c3.3-0.8,6.7-1.3,10.1-1.5c1.5-0.1,2.9-0.1,4.3-0.1c-5,3.2-9.5,8.4-10.3,15.6c-3.1,0.3-6.2,0.8-9.2,1.5
		C128.2,78.5,130,73.1,132.1,69.8z M110.3,79.8c5.2-3.8,11-6.8,17.3-8.8c-1.8,3.6-3.5,8.9-4.6,15.3c-3.3,0.9-6.5,2.1-9.7,3.5
		C113.2,86.9,112.4,83.8,110.3,79.8z M91.1,103.7c3.6-8.2,9.1-15.5,15.8-21.3c2,2,2.3,5.8,2,9.4C102.9,94.9,96.9,98.8,91.1,103.7z
		 M88.6,110.6c0.1-0.4,0.3-0.9,0.4-1.3C88.9,109.8,88.8,110.2,88.6,110.6z M95.1,159.4c-5.1-8.2-8.3-17.8-8.9-28.1
		c-0.4-6.9,0.4-13.6,2.2-19.9c6.3-6,12.9-10.9,19.7-14.5l-0.1,0.2c-2.2,8.3-7.7,15.3-10.9,23.1C92,132.7,92.2,147.2,95.1,159.4z
		 M157.1,186.3c-2.6,0.5-5.3,0.8-8,1c-17.9,1-34.4-5.9-46-17.8c-6.3-12.4-7.5-31.8-3.2-44.7c2.3-6.9,8.8-16.3,10.9-23.4
		c0.7-2.6,1.4-4.8,1.9-6.8c3.2-1.5,6.4-2.7,9.6-3.6C118.5,118.7,123.9,162.4,157.1,186.3z M192.1,165.2c-7.6,9.4-18,16.5-30,19.9
		c-33.3-24.4-39.2-68.2-35.8-95.3c3.3-0.8,6.6-1.3,9.9-1.7c0.7,8.1,5.9,18.2,19,30.1C169.5,131.9,187.1,149.9,192.1,165.2z
		 M205.2,124.4c0.8,13.3-2.9,25.8-9.7,36.2c-5.2-14.8-21.9-31.2-36-44.6c-12.6-11.4-17.8-20.7-18.7-28.1
		c23.8-0.7,46.9,10.6,63.7,30.9C204.9,120.6,205.1,122.5,205.2,124.4z"/>
	<path class="st0" d="M242.1,166.5l-24.9-6.7c4.6-3.4,19.8-7.2,20-15.2c0-0.1,0-0.2,0-0.3c8.2-6.5,11-15.6,8.2-28.2L256,89.8
		c0,0-27.1,6.5-31.5,7.6l4.1-12.2L131.8,109c-23-10-50.9-2.1-72.8,10.8l-16.9-4.3c-15.3-3.9-28.8-7.3-42.1-4.3
		c10.2,9.1,23.6,12.7,38.9,16.6l5.9,1.6C39,134,34,138.9,30.2,143.5l-3.8,4.7l13.8-2.2c-31.9,50.4,20.6,69.2,56,25.1l36.7-9.6
		c-5.1,6.8-5.1,16.8-5.1,16.8l2.2-1.7c11.1-9.3,23.9-14,33.9-16l23.5,6.2c0,0.1-0.1,0.2-0.1,0.4c-0.8,13,5.2,21.8,18.5,23.9
		c0.8,0.2,1.3,0.3,2.3,0.4c-0.2-2.8-0.3-4.9-0.1-7.7c10.1,7.2,21.3,5.9,30.5-2.1l0.7,1.7c9.9,2.4,14.9-14.3,14.1-18.1
		C253.3,165.2,248,164.4,242.1,166.5z M211.8,173.4c0,0,8.3,5,19.8,4.4C225.3,182.1,213.4,178.4,211.8,173.4z"/>
	<path class="st1" d="M251.7,167.4c-5.5-1-9.1,1.3-9.2,1.3c-0.1,0-19.1-5.1-26.1-7l-3.7-1c2.4-3.2,6.9-4.6,11.5-6.6
		c2-0.9,4.7-1.9,6.7-3.3c3.7-2.6,4.2-4.3,4.2-4.3c-6.7,0.2-13-1.6-14.1-1.8c-2.9-0.6-5.9-0.7-8.7-0.4c-0.1,0-0.2,0-0.3,0
		c-7.6,0.9-14.4,4.9-18.5,10.9c0,0-0.5,0.7-0.7,0.8c-0.5,0.6-1.3,1.5-1.3,1.5l2.2,0.6c1.5,0.3,0.7,3.6-1.4,3.1l-9.8-2.6
		c-3.8,0.3-7.8,0.6-10.5,0.8c-1.4,0.1-2.9,0.3-4.6,0.5l21.7,5.7c-1.6,14.2,6.1,22.9,16.8,23.7c0-1.4-0.1-4.5,0-9.9
		c0,0,15.4,16.6,33.2-1.2c0.1-0.1,1.5,3.4,1.5,3.4C248.5,182.5,252,167.4,251.7,167.4z M211.8,173.4c0,0,8.3,5,19.8,4.4
		C225.3,182.1,213.4,178.4,211.8,173.4z"/>
	<g>
		<g>
			<defs>
				<path id="SVGID_1_" d="M221,146.3c-5.3-0.9-12.2-1.2-16.2,1.2c-4.1,2.3-9.7,8.2-9.7,8.2s-0.4,0.9,0.4,2.3
					c0.4,0.8,0.8,1.3,1.1,1.7c0-0.6,0.2-1.3,0.7-1.8c3.8-4.9,10.5-10.2,19.3-9.8c-8.7,1.5-14.6,7.1-18.3,12.2
					c-0.6,0.6-1,0.7-1.3,0.5c-0.1,1-0.8,2.4-1.7,2.5c-1,0.2-4.8,3.3-4.8,3.3v1.9l0.4,5.9c0,0,0.7,4.2,2,5.9
					c1.3,1.7,5.2,7.3,11.4,7.9c0,0,0.4-14.9,2.3-19.4c1.9-4.4,4.3-9.6,8.3-11.7c4-2.1,10.1-4.3,13.3-5.9c3.2-1.7,4.6-3.6,4.6-3.6
					S226.4,147.2,221,146.3z"/>
			</defs>
			<clipPath id="SVGID_2_">
				<use xlink:href="#SVGID_1_"  style="overflow:visible;"/>
			</clipPath>
			<path class="st3" d="M219.8,147.3c-9-1.6-17.3,1.2-23.2,9.7c1.2,0.7,1.9,2.5,1.8,4.4c-0.2,2.4-1.6,4.3-3.2,4.4c0,0.1,0,0.1,0,0.1
				c0,0,0,0,0,0c0.2,3.7,1.5,7.2,3.3,9.1c0.7-6.3,4.1-15,13.6-20.3c-9.5,8.3-11.3,20.1-10.7,28.3c-4.4-0.9-8.1-8.4-9.4-12.3
				c1,6.7,5.2,14.7,11.6,15.2c-1.3-12.9,3.7-26.3,12.2-30.8c3.5-1.9,8.4-3.1,13.7-6.5C223.6,148.2,221.8,147.7,219.8,147.3z"/>
		</g>
	</g>
	<path class="st4" d="M251.6,93.2c-0.1,0.1-21.4,5.2-30.6,7.4l4.1-12.2l-93.5,23.2c-21.5-9.8-48-3-69.3,9l41.4,10.4
		c-0.2,0.5-0.4,1.1-0.6,1.5l-62.9-15.8c-12.8-3.3-24.3-6.4-35.3-4.3c8.6,7.2,20.2,10,33,13.3l47,12.4c-0.9,0.4-1.7,0.7-2.3,1.1
		l-34.8-9.1C41.4,135,36,140.1,32,145l12.4-1.6c-35.5,56.9,21.9,64.1,49.1,25.8l45.1-11.3c-4.1,4.1-6.6,9.9-7.8,15.1
		c13.4-11.5,30.8-15.1,41.2-15.9c6.3-0.5,13.4-1.2,18.8-1.8l1.5-1.9c5-6.8,12.1-10.1,19.8-10.8c5.9-0.6,8,0.3,10.5,0.7
		c1.2,0.3,5.3,1.4,9.5,1.6c10.9-6.4,14.2-15.6,11-29L251.6,93.2z M93.7,135.3L47,123.1c-13.3-3.7-16.8-6.7-17.7-7.4l27.1,7
		l44.1,11.3C98.6,134.5,95.5,135,93.7,135.3z"/>
	<g>
		<g>
			<g>
				<path class="st1" d="M251.6,93.2c-0.1,0.1-21.4,5.2-30.6,7.4l4.1-12.2l-93.5,23.2c-21.5-9.8-48-3-69.3,9l41.4,10.4
					c-0.2,0.5-0.4,1.1-0.6,1.5l-62.9-15.8c-12.8-3.3-24.3-6.4-35.3-4.3c8.6,7.2,20.2,10,33,13.3l47,12.4c-0.9,0.4-1.7,0.7-2.3,1.1
					l-34.8-9.1C41.4,135,36,140.1,32,145l12.4-1.6c-35.5,56.9,21.9,64.1,49.1,25.8l45.1-11.3c-4.1,4.1-6.6,9.9-7.8,15.1
					c13.4-11.5,30.8-15.1,41.2-15.9c6.3-0.5,13.4-1.2,18.8-1.8l1.5-1.9c5-6.8,12.1-10.1,19.8-10.8c5.9-0.6,8,0.3,10.5,0.7
					c1.2,0.3,5.3,1.4,9.5,1.6c10.9-6.4,14.2-15.6,11-29L251.6,93.2z M93.7,135.3L47,123.1c-13.3-3.7-16.8-6.7-17.7-7.4l27.1,7
					l44.1,11.3C98.6,134.5,95.5,135,93.7,135.3z"/>
			</g>
		</g>
		<path class="st5" d="M242.1,166.5l-24.9-6.7c4.6-3.4,19.8-7.2,20-15.2c0-0.1,0-0.2,0-0.3c8.2-6.5,11-15.6,8.2-28.2L256,89.8
			c0,0-27.1,6.5-31.5,7.6l4.1-12.2L131.8,109c-23-10-50.9-2.1-72.8,10.8l-16.9-4.3c-15.3-3.9-28.8-7.3-42.1-4.3
			c10.2,9.1,23.6,12.7,38.9,16.6l5.9,1.6C39,134,34,138.9,30.2,143.5l-3.8,4.7l13.8-2.2c-31.9,50.4,20.6,69.2,56,25.1l36.7-9.6
			c-5.1,6.8-5.1,16.8-5.1,16.8l2.2-1.7c11.1-9.3,23.9-14,33.9-16l23.5,6.2c0,0.1-0.1,0.2-0.1,0.4c-0.8,13,5.2,21.8,18.5,23.9
			c0.8,0.2,1.3,0.3,2.3,0.4c-0.2-2.8-0.3-4.9-0.1-7.7c10.1,7.2,21.3,5.9,30.5-2.1l0.7,1.7c9.9,2.4,14.9-14.3,14.1-18.1
			C253.3,165.2,248,164.4,242.1,166.5z M83,173.6c-32.5,31.9-67.8,7.9-24.6-37.9c-4.9,1.4-15,3.7-15,3.4c3.7-3,7.4-5.7,11.2-8.2
			l18,4.9c-0.3,0.3-0.6,0.6-0.9,0.9c-40.1,41.8-13.7,48.9,15.5,32.8C87.7,169.3,83,173.6,83,173.6z M107.9,132.8
			c10.3-20.2-8.3-15.6-23.7-5.9l-15.6-4.1c26.9-13.6,52-14.2,62.7-3.7C131.2,118.7,110,131.2,107.9,132.8z M197.3,148.2
			c-19,2.9-39.1,3.8-55.8,11.6c7.3-7.5,26.5-11.7,47.7-15c23.3-3.5,48.3-9.3,39.5-22.6c-1.7-1.6-2.6-2-3.9-3.8
			c-5.8-7.8,4.1-16.6,15.2-15.9c0.8,0.1,2.8,0.4,2.7,0.4l-2.7,6.9c-2.2-3.6-9.5-4.4-10.4-0.1c-0.7,3.2,4.4,4.4,7.4,10
			c4.1,7.7-0.2,15.4-7.5,19.2c-2.9,1.5-5.8,2.7-8.8,3.8c-2.5,0.6-5,1.3-8.2,2.2C209.4,145.9,208.5,146.4,197.3,148.2z M211.8,173.4
			c0,0,8.3,5,19.8,4.4C225.3,182.1,213.4,178.4,211.8,173.4z"/>
	</g>
	<g>
		<g>
			<path class="st0" d="M243.5,170.5c1.9-0.9,4-1.3,6.1-1.6c-2.9,1.1-4.3,2.8-4.5,2.7c-0.7,1.6-0.6,3.3-4.3,5.1
				C241.9,175,243.6,172.9,243.5,170.5z"/>
		</g>
		<path class="st0" d="M207,173.6c3.9,8.7,15.5,10.7,22.4,9.3c-3.1,2.7-18.2,2.1-22.8-6.7L207,173.6z"/>
		<path class="st0" d="M211.2,162.6l29.8,7.7c1,0.2,0.6,3-0.7,2.7l-30.7-7.8C209.9,164.4,211,162.7,211.2,162.6z"/>
	</g>
	<g>
		<g>
			<defs>
				<path id="SVGID_3_" d="M219.8,147.3c-9-1.6-17.3,1.2-23.2,9.7c1.2,0.7,1.9,2.5,1.8,4.4c-0.2,2.4-1.6,4.3-3.2,4.4
					c0,0.1,0,0.1,0,0.1c0,0,0,0,0,0c0.2,3.7,1.5,7.2,3.3,9.1c0.7-6.3,4.1-15,13.6-20.3c-9.5,8.3-11.3,20.1-10.7,28.3
					c-4.4-0.9-8.1-8.4-9.4-12.3c1,6.7,5.2,14.7,11.6,15.2c-1.3-12.9,3.7-26.3,12.2-30.8c3.5-1.9,8.4-3.1,13.7-6.5
					C223.6,148.2,221.8,147.7,219.8,147.3z"/>
			</defs>
			<clipPath id="SVGID_4_">
				<use xlink:href="#SVGID_3_"  style="overflow:visible;"/>
			</clipPath>
			<path class="st6" d="M197.4,157.7c-1.3,1.6-0.7,4.2,1,2.4c3.7-5.1,9.6-10.7,18.3-12.2C207.9,147.6,201.2,152.8,197.4,157.7z"/>
		</g>
	</g>
	<g>
		<path class="st7" d="M164,108.5l2-0.4l0.2,5l4-6l2.7-0.7l-7.8,10.4L164,108.5z M215.2,96.5l-0.3,0l-1.6,0.4l-2.9,7.4l1.3-0.3
			c0.1,0,0.2-0.1,0.6-0.3l0.4-0.2l2.7-6.8C215.4,96.5,215.4,96.5,215.2,96.5z M211.6,104.9l-4,1l3.7-9.5l4-1
			c0.7-0.2,1.3-0.2,1.9-0.1c0.6,0.1,1,0.2,0.9,0.5l-2.7,7c-0.1,0.3-0.7,0.7-1.5,1.1C213,104.4,212.2,104.7,211.6,104.9z
			 M138.8,123.1c-0.6,0.1-1.3,0.2-1.9,0.2c-0.9,0-1.4-0.2-1.2-0.6l2.8-7.2c0.1-0.3,0.7-0.7,1.5-1.1c0.8-0.4,1.6-0.7,2.2-0.9l4-1
			l-0.7,1.7l-2.4,0.6l0.3-0.7l-0.7,0.1c-0.7,0.2-1.1,0.3-1.4,0.5c-0.3,0.1-0.3,0.2-0.4,0.3l-2.7,7c0,0,0,0.1,0.4,0.1
			c0.3,0,0.5,0,0.6-0.1c0.3-0.1,0.6-0.2,0.9-0.4c0.3-0.2,0.5-0.4,0.5-0.5l-0.2-0.3l2.7-0.7l-0.3,0.8c-0.1,0.4-0.8,0.8-1.8,1.3
			C140.3,122.6,139.5,122.9,138.8,123.1z M149,112.1l2.4-0.6l-3.3,8.4l4-1l-0.4,1l-6.5,1.6L149,112.1z M157.4,110l5.6-1.4l-0.4,1
			l-3.1,0.8l-1.1,2.8l3.1-0.8l-0.4,1l-3.1,0.8l-1.4,3.5l3.1-0.8l-0.4,1l-5.6,1.4L157.4,110z M174.8,105.7l5.6-1.4l-0.4,1l-3.1,0.8
			l-1.1,2.8l3.1-0.8l-0.4,1l-3.1,0.8l-1.4,3.5l3.1-0.8l-0.4,1l-5.6,1.4L174.8,105.7z M182.6,103.6l2.4-0.6l-3.3,8.4l4-1l-0.4,1
			l-6.5,1.6L182.6,103.6z M193.6,106.1l-2.3,0.6l-1.4,3.6l-2.5,0.6l3.3-8.3c0.2-0.4,0.8-0.9,1.8-1.3c0.8-0.4,1.6-0.7,2.4-0.9
			c0.7-0.2,1.4-0.2,2.1-0.2c0.7,0,1.1,0.2,1,0.6l-3.3,8.3l-2.4,0.6L193.6,106.1z M195.4,101.4c0,0-0.1,0-0.3,0c-0.3,0-0.6,0-0.7,0
			c-0.1,0-0.4,0.1-0.9,0.3c-0.2,0.1-0.3,0.2-0.4,0.2l-1.5,3.7l2.3-0.6L195.4,101.4L195.4,101.4z M203.3,104.3l-1-3.7l-2.5,7.3
			l-2.4,0.6l3.7-9.5l2.5-0.6l0.8,3.3l1.5-3.8l2.4-0.6l-3.7,9.5l-2.5,0.6L203.3,104.3z"/>
		<g>
			<path class="st7" d="M112.9,135l3.8,2.3c-2,5.6-10.6,17.6-15.5,21.2l8.6-22.9l-6.6,1.7l-10.8,27.5l13.8-3.6
				c0.3-0.1,12.4-9.7,19.4-29.6L112.9,135z"/>
			<path class="st7" d="M72.7,159.2c-0.1,0-5,10.3-6.1,12.4l6.8-1.8l4.6-9.6l5.5-1.6l-3.8,9.6l7.3-1.9l11.2-27.8
				C94.5,139.8,81.2,140,72.7,159.2z M85.4,154.7l-5.4,1.6c0,0,4.5-8.8,9.2-10.2L85.4,154.7z"/>
			<path class="st7" d="M211.2,124.6c-0.4-0.5-0.7-1.7-0.7-1.7c0.2-0.1,0.5-0.2,0.7-0.4c4.5-2.5,9.4-10.1,9.2-15.3
				c-6.3,1.7-16.8,4.4-16.8,4.5l-10,27.5l6.5-1.7l4.3-11.8c0.5,1.1,3.4,7.9,9,8.5c6.5,0.7,10.2-5.7,10.2-5.7
				C221.9,130,214.2,130.6,211.2,124.6z M205.9,122l3.2-8.8l5-1.3C213.3,113.8,212,118.9,205.9,122z"/>
			<path class="st7" d="M122.1,146.6c-0.1,0-5,10.1-6,12.2l6.9-1.8l4.5-9.4l5.5-1.6l-3.8,9.5l7.2-1.8l11.2-27.6
				C144.4,127,130.7,127.5,122.1,146.6z M134.9,142.2l-5.4,1.6c0,0,4.5-8.8,9.2-10.2L134.9,142.2z"/>
			<polygon class="st7" points="172.7,119.4 161.9,147.1 168.8,145.3 179.5,117.7 			"/>
			<path class="st7" d="M180.1,139.2l3.4-8.1l9.4-5.1l-7.6,0.6l3.3-8.8c4.1-1.3,6.2,0,8,2.6l3.1-7.7l-16.6,4.2l-10.7,27.6l16.9-4.4
				l3.6-8.6C189.3,135.6,185.1,138.4,180.1,139.2z"/>
			<path class="st7" d="M149.6,147l9-24l-7.2,1.8l-10.6,27.7l18.3-4.7l4-9.8C158.2,143.8,155.7,146,149.6,147z"/>
		</g>
	</g>
	<g>
		<g>
			<defs>
				<path id="SVGID_5_" d="M251.6,93.2c-0.1,0.1-21.4,5.2-30.6,7.4l4.1-12.2l-93.5,23.2c-21.5-9.8-48-3-69.3,9l41.4,10.4
					c-0.2,0.5-0.4,1.1-0.6,1.5l-18.3,5.6c-0.9,0.4-1.7,0.7-2.3,1.1l-34.8-9.1C41.4,135,36,140.1,32,145l12.4-1.6
					c-35.5,56.9,21.9,64.1,49.1,25.8l45.1-11.3c-4.1,4.1-6.6,9.9-7.8,15.1c13.4-11.5,30.8-15.1,41.2-15.9c6.3-0.5,13.4-1.2,18.8-1.8
					l1.5-1.9c5-6.8,12.1-10.1,19.8-10.8c5.9-0.6,8,0.3,10.5,0.7c1.2,0.3,5.3,1.4,9.5,1.6c10.9-6.4,14.2-15.6,11-29L251.6,93.2z"/>
			</defs>
			<clipPath id="SVGID_6_">
				<use xlink:href="#SVGID_5_"  style="overflow:visible;"/>
			</clipPath>
			<path class="st8" d="M242.7,103l-2.7,6.9c-2.2-3.6-9.5-4.4-10.4-0.1c-0.7,3.2,4.4,4.4,7.4,10c4.1,7.7-0.2,15.4-7.5,19.2
				c-2.9,1.5-5.8,2.7-8.8,3.8c-2.5,0.6-5,1.3-8.2,2.2c-2.9,0.8-3.8,1.3-15,3.1c-19,2.9-39.1,3.8-55.8,11.6
				c7.3-7.5,26.5-11.7,47.7-15c23.3-3.5,48.3-9.3,39.5-22.6c-1.7-1.6-2.6-2-3.9-3.8c-5.8-7.8,4.1-16.6,15.2-15.9
				C240.8,102.6,242.8,102.9,242.7,103z"/>
		</g>
		<g>
			<defs>
				<path id="SVGID_7_" d="M251.6,93.2c-0.1,0.1-21.4,5.2-30.6,7.4l4.1-12.2l-93.5,23.2c-21.5-9.8-48-3-69.3,9l41.4,10.4
					c-0.2,0.5-0.4,1.1-0.6,1.5l-18.3,5.6c-0.9,0.4-1.7,0.7-2.3,1.1l-34.8-9.1C41.4,135,36,140.1,32,145l12.4-1.6
					c-35.5,56.9,21.9,64.1,49.1,25.8l45.1-11.3c-4.1,4.1-6.6,9.9-7.8,15.1c13.4-11.5,30.8-15.1,41.2-15.9c6.3-0.5,13.4-1.2,18.8-1.8
					l1.5-1.9c5-6.8,12.1-10.1,19.8-10.8c5.9-0.6,8,0.3,10.5,0.7c1.2,0.3,5.3,1.4,9.5,1.6c10.9-6.4,14.2-15.6,11-29L251.6,93.2z"/>
			</defs>
			<clipPath id="SVGID_8_">
				<use xlink:href="#SVGID_7_"  style="overflow:visible;"/>
			</clipPath>
			<path class="st9" d="M131.2,119.1c-0.1-0.3-21.2,12.1-23.4,13.8c13.5-26.4-22.5-10.4-36.2,4c-40.1,41.8-13.7,48.9,15.5,32.8
				c0.6-0.3-4.1,4.1-4.1,4.1c-32.5,31.9-67.8,7.9-24.6-37.9c-4.9,1.4-15,3.7-15,3.4C78.5,110.7,117.2,105.3,131.2,119.1z"/>
		</g>
	</g>
	<path class="st0" d="M209.1,170.5c-0.1,8.6,16.8,15.9,27.6,5.3C220.1,178.4,209.3,170.5,209.1,170.5z M211.8,173.4
		c0,0,8.3,5,19.8,4.4C225.3,182.1,213.4,178.4,211.8,173.4z"/>
</g>
</svg>
