<?xml version="1.0" encoding="utf-8"?>
<!-- Generator: Adobe Illustrator 25.2.3, SVG Export Plug-In . SVG Version: 6.00 Build 0)  -->
<svg version="1.1" id="Layer_1" xmlns="http://www.w3.org/2000/svg" xmlns:xlink="http://www.w3.org/1999/xlink" x="0px" y="0px"
	 viewBox="0 0 256 256" style="enable-background:new 0 0 256 256;" xml:space="preserve">
<style type="text/css">
	.st0{fill-rule:evenodd;clip-rule:evenodd;fill:#0855A6;}
	.st1{fill-rule:evenodd;clip-rule:evenodd;fill:#F6B333;}
	.st2{fill-rule:evenodd;clip-rule:evenodd;fill:#0C141B;}
	.st3{fill-rule:evenodd;clip-rule:evenodd;fill:#FFFFFF;stroke:#2D2E2F;stroke-width:0.3945;stroke-miterlimit:2.6131;}
	.st4{fill-rule:evenodd;clip-rule:evenodd;fill:#FFFFFF;stroke:#0C141B;stroke-width:0.3945;stroke-miterlimit:2.6131;}
	.st5{fill-rule:evenodd;clip-rule:evenodd;fill:#FFFFFF;}
	.st6{fill-rule:evenodd;clip-rule:evenodd;fill:#F6B333;stroke:#F6B333;stroke-width:0.4335;stroke-miterlimit:2.6131;}
	.st7{fill-rule:evenodd;clip-rule:evenodd;fill:#0855A6;stroke:#0855A6;stroke-width:0.4335;stroke-miterlimit:2.6131;}
	.st8{fill:none;stroke:#0855A6;stroke-width:0.4335;stroke-miterlimit:2.6131;}
	.st9{fill-rule:evenodd;clip-rule:evenodd;fill:#0855A6;stroke:#0855A6;stroke-width:0.3543;stroke-miterlimit:2.6131;}
	.st10{fill-rule:evenodd;clip-rule:evenodd;fill:#00A7C3;stroke:#00A7C3;stroke-width:0.4335;stroke-miterlimit:2.6131;}
	.st11{fill-rule:evenodd;clip-rule:evenodd;fill:#0C141B;stroke:#0855A6;stroke-width:0.4335;stroke-miterlimit:2.6131;}
	.st12{fill-rule:evenodd;clip-rule:evenodd;fill:#0C141B;stroke:#00A7C3;stroke-width:0.4335;stroke-miterlimit:2.6131;}
	.st13{fill-rule:evenodd;clip-rule:evenodd;fill:#00A7C3;}
</style>
<g>
	<path class="st0" d="M125.8,44.7L37.2,85.5v85l88.6,40.5l88.6-40.5v-85L125.8,44.7L125.8,44.7z M126,30.2l104.2,47.9v99.9
		L126,225.8L21.8,178.1V78.2L126,30.2L126,30.2z"/>
	<path class="st1" d="M125.9,44.8L37.3,85.6v85l88.6,40.5l88.6-40.5v-85L125.9,44.8L125.9,44.8z M126,38.8l95,43.7v91.1l-95,43.5
		l-95-43.5V82.6L126,38.8L126,38.8z"/>
	<path class="st2" d="M245.5,123.7c-6.6-6.6-15.3-10.4-24.6-10.6c0,0,0-0.1,0-0.1c-1.7-3.5-7.8-3.6-9.7-2.7
		c-1.3,0.6-2.8,0.8-4.3,0.8c1.1-1,3.8-2.7,8.2-2.5c6,0.3,10.1-0.6,12.1-2.6c1-1,1.4-2.2,1.3-3.6c-0.2-3.1-3.7-5.3-9.3-5.7
		c0.1-2.2,0-6.5-4.4-7.1c-3.4-0.4-7.6,1.9-11.5,6.5c-1.6-1.4-3.2-2-4.9-1.7c-2.4,0.4-4.2,2.7-5.1,4.6c-0.4,0.8-0.8,2-1.3,3.3
		c-0.7,1.9-2,5.5-2.6,5.8c-1.9,0.7-4.2,2-5.1,5.6c-11.8,2.5-31,3.1-37.2,2.8c0-0.1-0.1-0.3-0.1-0.5c-0.1-0.4-0.2-0.8-0.4-1.2
		c2.7-1.9,15.6-9.8,23.9-11.3c9.1-1.7,20-6.9,24.6-9.9c2.4-1.6,14.4-9.8,18.8-18.7c4.6-9.2,3.6-17.1-2.6-21.6
		c-5.6-4.1-20.3-0.7-26.4,1c-6.2,1.7-17.2,8-25.1,12.7c-1.5-2.3-3.9-5.2-8.5-5.4c-4.5-0.2-7.3,3.6-9.7,7l-0.3,0.5
		c-0.2-0.1-0.5-0.2-0.8-0.2c-0.5-0.1-1-0.3-1.5-0.5c3.7-5.6,6.7-10,9.3-13c1.4-1.5,1.7-1.5,2-1.5c0.6,0,1.1-0.1,2.3-1.1
		c1.6-1.3,1.5-2.5,1-3.2c-0.6-0.8-2-1.1-3.6-0.1c-2.7,1.8-10.4,13.2-13.1,17.8c-3.5-1.2-9.7-1.5-13.5-1c-8-4.7-17.4-9.4-18.9-9.5
		c-1.2-0.1-3.4-0.1-4.5,0.9c-0.4,0.4-0.6,0.8-0.6,1.4c0,0.6,0.3,1.1,0.8,1.5c1,0.7,2.6,0.4,3.4,0c0.6-0.3,2.2-0.8,3.7-0.2
		c1,0.4,8.6,4,12.7,6.5c-1.4,0.4-3,1.1-4.1,1.7l-0.1,0c-0.1,0-0.2,0-0.4,0c-1.7-0.1-6.3-0.3-9.7,1c-7.7,3.2-7.6,11.8-7.3,14.5
		c-0.4,0.8-1.6,3-1.8,8.4c-0.2,5.3,2.8,11.5,4.7,14c-0.1,0.1-0.2,0.1-0.3,0.2c-0.7,0.4-1.7,1-2.7,1.1c-1.2,0.1-1.9-0.5-2-1
		c-4.5-11.9-14-24.9-23.5-32.3c-15-11.7-26.7-17.9-35.8-19c-12.2-1.5-22.1,0.3-29.6,5.2C4.3,62.8,0.5,66.3,0,71.2
		c-0.4,4.3,1.9,8.8,6.7,13.5c5.6,5.4,10.7,7.3,14.1,8.5c0.9,0.3,2.5,0.8,4.5,1.5c5.7,1.8,14.8,4.8,19.6,7.3
		c-12.2,2.5-14.1,9.9-14.4,11.4c-0.5,2.9,0.9,5.4,4.4,8c-0.8,0.9-1.6,2.3-1.9,4.1c-0.1,1.2,0.3,3,1.6,4.4c0.9,1,2.7,2.2,5.7,2
		c4.8-0.2,9.7-3,12.9-7.3c4.4-1.6,7.5-4.9,8.6-6.3c0.6-0.5,6.2-0.5,8.1-0.3c0.1,0,0.3,0,0.4,0.1c0.1,0.2-0.1,0.6-0.4,0.9
		c-2.2,2.2-3.3,4.4-3.1,6.4c0.1,1.6,1.1,3,2.7,4.1c3.3,2.2,9.1-1.4,12-3.4c-0.6,2.3-0.7,5.3-0.2,7.3c-1.2,0.6-7,1.9-13,2.9
		c-4.9,0.8-6.5,2-7.5,3.6c-1.3,2-1.9,3.2-2.6,5.1c-0.3,0.8-0.5,1.1-0.6,1.3c-0.1-0.1-0.2-0.3-0.3-0.6c-0.2-0.6-0.5-1.3-1.1-1.4
		c-0.6-0.1-1,0.4-1.2,0.7c-0.3,0.3-0.5,0.5-0.7,0.5c-0.3,0-0.7-0.2-1.1-0.6c-0.3-0.3-0.7-0.7-1.1-1.2c-1.4-1.5-3.5-3.7-6.3-6.2
		c-1.5-1.3-2.9-1.9-4.3-1.8c-1.9,0.1-3.6,1.5-5.5,3.6c-3.4-1-13-3.4-21.5,4.3c-9.4,8.6-3.8,19.4-3.7,19.5c0,0,0,0,0,0
		c0,0,0,0.1,0,0.2c-0.1,0.5-0.3,1.2,0.2,3.1c1.1,5.3,7.7,11.6,22.6,13.6c14.4,2,18.5,3.4,23.7,6c4,2,9.1,1.2,12.1-0.5
		c1.4-0.8,2.4-1.6,2.9-2.6c2.1,4.4,7.5,11.4,13.1,15.7c17,13.2,41.1,8.7,49.1,7.2c6.8-1.3,26.9-8.9,31.3-13.5l-0.5-0.8
		c-1.9,0.7-8.5,2.8-12.7-0.1c-4.4-3-7.1-7.9-8.2-14.9c-0.9-5.8-3.5-10.7-4.9-13.3l-0.2-0.5c-1.2-2.3-5.9-7.7-10.4-10.4
		c1.6-0.5,3.5-1.5,4.9-2.5c2,0.4,6.9,1.9,9.2,2.7c0.2,0.1,0.5,0.2,0.7,0.2c1.8,0.6,4.2,1.4,4.5,3.3c-0.9,1.5-3.5,5.7-5.1,9.3
		c-0.8,1.7-0.9,3-0.5,3.9c0.4,0.7,1.1,1.1,2.1,1.3c1.9,0.3,3.8,0,6.1-0.6c2.2-0.6,3.6-0.6,4.4,0c0.9,0.7,0.9,2.4,0.9,4.2l0,0.5
		c0,3.6,0.8,6.2,2.4,7.7c0.8,0.8,3.4,3.1,3.8,4.1c0.5,1.2,1.8,2.2,3.5,2.8c4.9,1.8,9.2-3.7,13.4-9l0.6-0.8c3.7-4.7,6-6.1,11.5-8.8
		c1,1.3,2,2.5,3.2,3.6c6.8,6.8,15.8,10.6,25.4,10.6c9.6,0,18.7-3.7,25.5-10.5c6.8-6.8,10.6-15.8,10.6-25.4
		C256,139.6,252.3,130.5,245.5,123.7L245.5,123.7z M43.1,142.6c-1.2-0.7-1.6-1-1.8-1.2c0.1-0.1,0.3-0.2,0.4-0.2
		c0.7-0.4,1.9,0,2.8,0.8c0.2,0.2,0.6,0.5,0.9,0.9c0.5,0.5,1.2,1.1,1.9,1.8C46.1,144.1,44.8,143.5,43.1,142.6L43.1,142.6z
		 M69.1,143.9c-1.2,1-2.1,1.7-2.8,2.4v0l-0.4,0.4c-0.4,0.4-0.8,0.4-0.9,0.4c0-0.1,0-0.3,0.3-0.6c0.7-1,2.5-2.3,4.1-2.6L69.1,143.9
		L69.1,143.9z M70.2,167c-0.6-0.3-1-1-0.9-1.6c0-0.7,0.6-1.2,1.5-1.4C70.5,165.1,70.3,166,70.2,167L70.2,167z M76.5,153
		c-1.1-0.1-3.3-0.2-5.3-0.2c-0.1-0.2-0.2-0.4-0.2-0.6c-0.1-0.2-0.2-0.4-0.2-0.6c2.5-0.1,5.7-0.5,8.2-0.9
		C78.1,151.4,77.2,152.3,76.5,153L76.5,153z M78.1,145.8c-3,1.2-5.9,2.1-8,2.5c1.9-1.2,4-2.4,6.4-3.5c1.3-0.6,2.9-0.4,3.2-0.1
		C79.7,144.9,79.4,145.2,78.1,145.8L78.1,145.8z M85.9,146c0.1-1.2-0.2-2.6-0.7-3.6c0,0,0,0,0.1,0c0.2,0.3,0.5,0.6,0.9,1
		c0.5,0.6,1.1,1.3,1.7,1.9C87.1,145.6,86.4,145.8,85.9,146L85.9,146z M155.1,144.2c-1.8-3.8-1.5-4.7-1.3-4.9
		c0.4-0.4,1.6,0.2,2.2,0.6c0.8,0.6,1.3,2,2.2,5.3c0.7,2.4,0.9,4.1,1,5.2C157.1,148.2,155.7,145.4,155.1,144.2L155.1,144.2z
		 M173.3,141.5c-0.3,0.6-1.2,1.8-1.9,2.6c-0.3,0.4-0.5,0.7-0.7,0.9c-0.5,0.6-1.9,2.4-3.7,3.9c0.3-0.7,0.6-1.5,1.1-2.4
		c1.2-2.2,2.7-4.7,3.5-5.4c0.4-0.4,1.3-0.4,1.6-0.2C173.3,141.1,173.5,141.2,173.3,141.5L173.3,141.5z M178.9,139.1
		c-0.1-0.2-0.1-0.4-0.3-0.6c-0.8-1.1-2.9-1.8-6.3-2l-0.6,0c-2-0.2-4-0.3-5,1.2l-0.1,0l-0.2,0.5l-0.2,0.4l0,0
		c-0.8,1.8-2.3,5.8-3.4,8.8c-0.3-2-0.8-4.5-1.5-7.1c-1.1-3.6-2.1-4.3-3.2-4.7c-1-0.4-3.8-0.9-6-0.8c-1.9,0-3,0.2-3.7,1
		c-0.5,0.6-0.6,1.4-0.5,2.4l-0.1-0.1l0.2,1.3l0,0.2l0,0c0.6,3.2,3.1,7.5,5.4,10c-0.2,0.2-0.5,0.3-0.7,0.5c-0.1,0-0.1,0.1-0.2,0.1
		c0-0.1-0.1-0.1-0.1-0.2c-0.5-0.7-1.1-1.6-4-2.5l-0.9-0.3c-2.4-0.7-6.5-1.9-6.9-2.6c4.1-3.4,7.6-10.5,8-16.1c7.5-3,30.3-7.1,36.9-8
		c0.1,0.1,0.1,0.2,0.2,0.3c0.4,0.6,0.8,1.3,2.1,2.1c3.4,2.3,6.5-0.3,7.8-1.4c0.2-0.1,0.8-0.2,1.5-0.3c-4.4,3.7-8,8.4-10.3,13.8
		C183.6,136,180.7,137.8,178.9,139.1L178.9,139.1z"/>
	<path class="st3" d="M55.7,146.9c0.4-0.5,0.6-0.5,0.7,0.3c0.1,0.6,0.1,1.5-0.4,0.8C55.4,147.4,55.4,147.2,55.7,146.9L55.7,146.9z"
		/>
	<path class="st3" d="M60.3,150.6c1.2-1.7,1.9-2.5,2.2-3c0.3-0.5,0.7-0.5,1.1,0.1c0.3,0.6,0.5,0.9-0.2,1.4c-0.7,0.5-2.6,1.8-2.7,2.6
		c-0.1,0.8-0.6,0.2-0.8-0.4C59.7,151.2,60.1,150.9,60.3,150.6L60.3,150.6z"/>
	<path class="st3" d="M67.8,151.8c-0.3,0.2-0.8,0.8-1.1,1.1c-0.1,0.1,1.2,0.3,1.7,0.2C69.1,152.9,68.1,151.6,67.8,151.8L67.8,151.8z
		"/>
	<path class="st4" d="M12.1,160.3c-1.9-3.5-2.5-12.9,7.7-17.8c10.1-4.9,16.7-1,19.2,0.6c2.5,1.6,3.7,4.3,3.9,5
		c1.2,0.5,5.6,1.8,5.6,1.8s-1.3-2.6-1.8-3.4l1.6,1.1c0,0,1.9,2.8,2.4,3.7c1.3,0.3,3.5,1.2,4.4,1.6c-0.4-1.4-0.9-3-0.9-3l1.5,0.6
		c0,0,1.5,3.2,1.8,4.2c1.5,0.6,3.9,1.6,4.7,1.9c-0.2-0.6-0.2-1.3-0.2-1.3c2.1,0.2,5.7,0.7,9.5,0.8c1.5,1.2,3.5,3,0.1,4.9
		c-3.4,1.9-6,2.8-4.4,5.9c1.7,3.1,2.8,7,3,8.7c-5.5-4.5-9.7-5.7-11.9-6.7c-2.2-1-11.9-7.9-16.8-10.3c-5-2.4-11.7-5.4-22.1-2.5
		C16.1,157.1,13.6,158.6,12.1,160.3L12.1,160.3z"/>
	<path class="st4" d="M153.5,152.6c-1.1,1.4-6,9-7.4,11.5c-1.4,2.6-3,4.9-0.7,5c1.9,0.1,3.7-0.6,5.3-0.9c1.6-0.3,6.7-1.1,7.4,2.7
		c0.7,3.9-0.9,7.1,2.3,10.7c0.9,1,1.9,1.8,2.8,1.8c0.7-2.5,0.6-3.7,6.5-11.4c1.2-1.6,3.7-5.5,5.8-8.5c2.6-3.7,7.8-10.1,11.2-13.3
		c3.8-3.4,9.6-8.7,15.2-9c-1.7-3.6-6.6-4.8-11.3-4.7c-4.8,0.1-8.4,1.6-11.7,5.1c-0.6,1.5-1.1,4.9-1.2,5.3c-1.2,1-3.4,3.1-4.1,3.6
		c0.2-1.1,0.1-2.7-0.5-2.5c-0.6,0.3-0.6,2.8-0.6,3.4c-1.1,0.8-2.8,2-3.2,2.4c0-1.5,0.3-3.5-0.4-3.1c-0.7,0.4-0.9,3.4-1,4.3
		c-1.3,1.1-2.9,2.2-3.2,2.4c0.1-1.2,0.2-3.3-0.3-3c-0.5,0.3-1.1,1.3-1.5,3.2c-0.4,1.9-0.7,5.2-0.8,8.9c-0.1,3.7-0.1,8.4-0.1,9.6
		c0,0.6-0.8,1.3-1.3,1.7c-0.7,0.5-1.2-0.5-1.4-2.5c-0.2-2-0.2-8.9,0-12c0.2-3.1,0.5-6.4,0.6-7.3c0.1-0.7-0.2-1-0.5-1.3
		c-1.1-1-3.1-2.6-3.7-3.2C155.1,151.3,154.2,151.6,153.5,152.6L153.5,152.6z"/>
	<path class="st5" d="M52.3,104.2c-3.4,2.2-7.6,7.9-8.3,13.9c-2.9,1.4-7.6,2.4-9.4,0.2c-1.8-2.2-3.2-7.2,5-11.6
		C43.1,104.8,48.2,103.9,52.3,104.2L52.3,104.2z"/>
	<path class="st5" d="M44.5,120.1c0.9,2.7,2.4,4.4,6.1,4.9c-1.2,2-5.7,5-10.8,4.5c-5.9-0.5-4-7-1.9-7.7
		C40.4,121.6,42.6,120.9,44.5,120.1L44.5,120.1z"/>
	<path class="st5" d="M68.4,103.4c-2.5-1.2-6-3-11.3,0.2c-5.3,3.2-9.9,7.1-10.8,13.4c-0.9,6.3,6.8,6.1,9.3,4.6
		c2.4-1.6,4.9-4.5,5.5-7.1c0.6-2.5,1.6-5.4,2.4-5.9c0.8-0.5,2-0.7,0.9,0.9c-0.5,0.8-1.1,1.8-1.2,2.6c-0.2,1.2-0.4,3.8-0.6,4.3
		c2.6-0.3,7.1-0.4,8.8-0.1c1.7,0.3,2.2-2.7,1.6-4.1c-0.6-1.4-1.3-2.6,0.5-2.8c1.1-0.1,2.1,2.6,1.9,4.3c-0.3,2.6-1.4,4.6-3.2,6.5
		c-1.8,1.9-4.3,4.4-2.1,6.4c2.2,2,7.4,0.9,10.2-2.5c2.9-3.4,3.5-6.3,3.7-7.5c0.2-1.2,1.5-1.9,1.2,0.9c-0.3,2.7-1.2,4.1-1.6,5
		c-0.4,0.8,1.2,1.4,2.5-0.3c1.4-1.7,2.3-4.6,1.4-7.4c-0.9-2.7-2.4-3.5-3.8-1.4C78.5,108.8,71.6,104.8,68.4,103.4L68.4,103.4z"/>
	<path class="st5" d="M186.8,113.3c0-2.7,3.5-3.7,5.1-2.7c1.6,0.9,2,2.4,2.7,1.9c1-0.6-0.4-2.5-2.8-3.8c0.8-2.3,1.5-4.4,2.2-6.2
		c1.3-3.3,2.8-5.9,5.4-6c1.9-0.1,2.6,1.2,2.3,1.7c-0.3,0.5-2.4,4.8-3.6,6.6c-0.5,0.8,0,2.3,1.2,0.5c1.2-1.7,2.4-4.9,5.6-8.1
		c3.2-3.3,5.9-5.7,8.7-5.8c2.3-0.1,4.2,1,3.5,5.5c-4.8,0.6-10.7,4-15.1,8.1c-1.5,1.4-0.4,1.8,0.8,0.8c1.3-0.9,6.2-5.6,11.5-6.6
		c5.3-1,8.7-0.9,10.8,0.7c2.1,1.6,3.8,3.8-0.2,5.6c-4,1.8-8.6,1.5-11.2,1.7c-2.6,0.2-7.5,0.9-10,4.5c-1.5,0.1-2,0.1-2.9,0.1
		c-0.8,0-1.5,1-0.1,1.4c1.4,0.3,4.8,0.4,9.9-0.8c5.1-1.3,7.8-0.3,8.8,1.4c0.9,1.7,0.5,5.2-2.5,6.7c-3,1.6-5.2,2-12.1-0.3
		c-1.9-0.6-6.6-0.4-7.8-0.3c0.3-1.5,0.3-2.3,0.1-2.9c-0.2-0.5-1.4-0.6-1.5,0.4c-0.1,1.1-1.2,3.1-2.5,3.8c-1.4,0.7-3.6,1.2-2.8,0.1
		c0.9-1.1,3-1.9,3.2-4.1c0.2-2.2-1.2-5.1-3.7-4.3L186.8,113.3L186.8,113.3z"/>
	<path class="st6" d="M201.5,121.3c-0.2,0-0.5,0-0.7,0c-4.9,3.4-8.9,8-11.4,13.4l0,0c6-0.5,10.8,0.4,16.1,6.1c0,0,0,0,0,0
		c1.2-8.1-0.3-14.3-3.2-19.4C202,121.4,201.7,121.3,201.5,121.3L201.5,121.3z"/>
	<path class="st6" d="M221.3,148.6l5.7,2.5c5.2-10.7,16.5-15.1,23.3-16.8c-3.4-6.9-9-12.5-16-15.8L221.3,148.6L221.3,148.6z"/>
	<path class="st6" d="M228.6,151.8l22.7,9.9c1.5-3.9,2.4-8.1,2.4-12.5c0-4.7-0.9-9.2-2.7-13.3C243.7,137.6,233,142.7,228.6,151.8
		L228.6,151.8z"/>
	<path class="st6" d="M228,153.2c-3.7,8.9-4.3,17.2-2.1,29.3c11.1-2,20.4-9.4,24.9-19.3L228,153.2L228,153.2z"/>
	<path class="st6" d="M226.4,152.5l-5.7-2.5l-13.3,30.5c3.8,1.5,8,2.4,12.4,2.4c1.5,0,2.9-0.1,4.3-0.3
		C222.1,170,222.5,161.7,226.4,152.5L226.4,152.5z"/>
	<path class="st6" d="M209.1,145c1.4,2.7,1.9,5.9,0.3,9.2c-3.3,6.6-9.2,12.5-15.9,15.7l-0.1,0.1c0,0-0.1,0-0.1,0
		c3.3,4.3,7.6,7.7,12.6,10l13.3-30.5L209.1,145L209.1,145z"/>
	<path class="st6" d="M221.5,115.3c0.2,1.6-0.2,3.2-1.1,4.6c-1.7,2.6-4.8,4.1-8.3,3.9c-1.7-0.1-4.4-0.9-6.7-1.6
		c-0.3-0.1-0.6-0.2-0.8-0.3c2.3,4.6,4.1,10.9,2.6,20.2c0.1,0.1,0.2,0.2,0.3,0.3l12.5,5.4l13.1-30.1
		C229.4,116.4,225.6,115.5,221.5,115.3L221.5,115.3z"/>
	<path class="st5" d="M55.7,146.9c0.4-0.5,0.6-0.5,0.7,0.3c0.1,0.6,0.1,1.5-0.4,0.8C55.4,147.4,55.4,147.2,55.7,146.9L55.7,146.9z"
		/>
	<path class="st5" d="M60.3,150.6c1.2-1.7,1.9-2.5,2.2-3c0.3-0.5,0.7-0.5,1.1,0.1c0.3,0.6,0.5,0.9-0.2,1.4c-0.7,0.5-2.6,1.8-2.7,2.6
		c-0.1,0.8-0.6,0.2-0.8-0.4C59.7,151.2,60.1,150.9,60.3,150.6L60.3,150.6z"/>
	<path class="st5" d="M67.8,151.8c-0.3,0.2-0.8,0.8-1.1,1.1c-0.1,0.1,1.2,0.3,1.7,0.2C69.1,152.9,68.1,151.6,67.8,151.8L67.8,151.8z
		"/>
	<path class="st7" d="M175.2,145.3c0-0.6,0.7-1.4,0.8-0.6c0.1,0.5,0.1,1.1,0,1.6c0,0.5-0.8,1.1-0.8,0.4
		C175.1,146,175.2,145.5,175.2,145.3L175.2,145.3z"/>
	<path class="st7" d="M170.4,149.4c0-0.6,0.7-1.4,0.8-0.6c0,0.5,0,1.1,0,1.6c0,0.5-0.9,1.1-0.9,0.4
		C170.4,150.1,170.4,149.6,170.4,149.4L170.4,149.4z"/>
	<path class="st7" d="M165.8,153.4c0-0.6,0.7-1.4,0.8-0.6c0.1,0.5,0.1,1.1,0,1.6c0,0.5-0.9,1.1-0.8,0.4
		C165.8,154.6,165.8,154.1,165.8,153.4L165.8,153.4z"/>
	<path class="st7" d="M174.6,139.7c-1.2-0.3-4-0.2-4.4,0.5c-0.8,1.1-4.1,7.2-4.7,8.6c-0.6,1.4-1.5,2.9-1.9,3.5
		c-0.3,0.4-0.7,0.3-0.2-1c0.3-0.8,2.8-8.4,4-11.1c0.8-1.7,1.4-2.7,5.2-2.2c3.8,0.5,5.9,1.1,4.5,2.9c-1,1.3-2,2.2-2.6,2.6
		c-0.7,0.5-1.1,0.4-0.3-0.5C175,142,176,140,174.6,139.7L174.6,139.7z"/>
	<path class="st0" d="M162.8,153.6c-0.6-0.1-0.9-0.4-1-1.3c-0.1-2.7-0.5-6.5-1.3-9.8c-0.9-3.9-2.6-5-3.9-5.2
		c-1.4-0.3-3.9-0.4-4.9-0.2c-1.5,0.4-2.5,0.4-1.5,4c1.2,4.2,4.2,8.1,6.3,10.2c2.6,2.6,4.8,3.8,4.6,4.8c-0.3,1.2-1,8.6-0.9,10.2
		c0.1,1.6,0,7.4,0,9.1c-0.1,1.7,0.9,1.7,1,0.5c0.1-1.2-0.1-5.5-0.1-6.7c0-1.2-0.1-4.6,0.2-7.5c0.3-2.5,0.4-5.2,1.3-6.2
		C163.4,154.5,163.4,153.7,162.8,153.6L162.8,153.6z M160.2,152.8c-0.1,0.7-0.6,0.2-1.3-0.3c-0.6-0.5-2.2-2.5-3.9-4.8
		c-1.3-1.8-2.6-4.5-3.2-7c-0.5-2.3,0.9-2.4,3.6-1.9c1.8,0.3,2.6,1.4,3.1,3C159.1,143.1,160.5,150.3,160.2,152.8L160.2,152.8z"/>
	<path class="st8" d="M162.8,153.6c-0.6-0.1-0.9-0.4-1-1.3c-0.1-2.7-0.5-6.5-1.3-9.8c-0.9-3.9-2.6-5-3.9-5.2
		c-1.4-0.3-3.9-0.4-4.9-0.2c-1.5,0.4-2.5,0.4-1.5,4c1.2,4.2,4.2,8.1,6.3,10.2c2.6,2.6,4.8,3.8,4.6,4.8c-0.3,1.2-1,8.6-0.9,10.2
		c0.1,1.6,0,7.4,0,9.1c-0.1,1.7,0.9,1.7,1,0.5c0.1-1.2-0.1-5.5-0.1-6.7c0-1.2-0.1-4.6,0.2-7.5c0.3-2.5,0.4-5.2,1.3-6.2
		C163.4,154.5,163.4,153.7,162.8,153.6L162.8,153.6z M160.2,152.8c-0.1,0.7-0.6,0.2-1.3-0.3c-0.6-0.5-2.2-2.5-3.9-4.8
		c-1.3-1.8-2.6-4.5-3.2-7c-0.5-2.3,0.9-2.4,3.6-1.9c1.8,0.3,2.6,1.4,3.1,3C159.1,143.1,160.5,150.3,160.2,152.8L160.2,152.8z"/>
	<path class="st9" d="M39.1,140.4c-0.7,0.6-1.8,0.1-1.4-0.4c0.7-0.8,1.9-2,3.4-2.3c1.6-0.3,2.4,0.6,4,2c1.6,1.5,3.1,2.5,4.5,3.8
		c1.4,1.3,1.7,2,1.9,2.3c-2-1.3-5.6-4.8-6.6-5.6c-1-0.7-2.4-1.3-3.2-1C40.9,139.4,39.8,139.8,39.1,140.4L39.1,140.4z"/>
	<path class="st9" d="M42.6,144.7c0.5,0.8,0.7,1.2,1.1,1.7c0.3,0.5,2,1.1,1.5,0.3c-0.3-0.5-0.6-1-1.4-1.9
		C43.3,144.4,42.2,143.9,42.6,144.7L42.6,144.7z"/>
	<path class="st9" d="M50.9,149c-0.3-0.9,0.7-0.6,1-0.2c0.5,0.9,0.8,1.5,0.8,1.6c0.2,0.5-1,0.5-1.3-0.4
		C51.3,149.7,51.1,149.4,50.9,149L50.9,149z"/>
	<path class="st9" d="M59.3,152.8c0.4,0.4,0.5,0.6,0.6,1.1c0.1,0.5-0.4,1.1-0.9,0.1C59.8,155.6,57.4,151.2,59.3,152.8L59.3,152.8z"
		/>
	<path class="st9" d="M68.8,146.8c-1.3,0.9-2.6,2-3.3,2.6c-0.7,0.7-0.2,0.8,1.3-0.3c1.5-1.1,6.5-4,8.5-5c2-1,5.2-2,5.8-0.4
		c0.5,1.6,0.6,3.2-3,4.2c-3.5,0.9-8.4,2.5-9.5,2.8c-0.7,0.2-1.4,0.7,0.6,0.5c2-0.3,10.9-1.7,12.7-2.6c1.7-0.8,3.2-2.9,1-6.1
		c-2.2-3.2-6.6-0.4-9.3,1.3C72.3,144.7,69.8,146.1,68.8,146.8L68.8,146.8z"/>
	<path class="st9" d="M79.5,153.9c-1.7,0.2-4.3,0.4-6.2,0.4c-2.3,0.1-9.4-0.7-10.2-0.8c-1.1-0.2-2.4-1-2.6-0.7
		c-0.2,0.3,0.9,1.2,2,1.4c1.4,0.3,8.9,1.2,12.4,1c1.8-0.1,3.3-0.2,4-0.3L79.5,153.9L79.5,153.9z"/>
	<polygon class="st10" points="207.7,144.1 207.7,147 205.1,149.2 202.2,149.1 202.2,146 205.3,143.3 207.7,144.1 	"/>
	<path class="st10" d="M208.5,148.2l-2.5,2.1l-0.1,3.1l1.4,0C208.1,152.2,208.9,150.5,208.5,148.2L208.5,148.2z"/>
	<polygon class="st10" points="204.8,150.3 204.8,153.7 202,156.4 198.4,156.3 198.4,152.3 201.1,150.1 204.8,150.3 	"/>
	<polygon class="st10" points="201,148.9 197.3,151.9 194.5,151.8 194.5,149.3 199.1,145.8 201,145.8 201,148.9 	"/>
	<path class="st10" d="M203.6,143l-2,1.7l-1.7-0.1l0.5-1.4C201.1,142.8,202.9,142.4,203.6,143L203.6,143z"/>
	<path class="st10" d="M199.1,144.1l-0.3,0.7l-4.2,3l-1.2-0.2C194.5,146.6,197.4,144.4,199.1,144.1L199.1,144.1z"/>
	<path class="st10" d="M202.2,160.2l0-2.4l2.9-2.8l1.2,0.1C205.6,156.5,203.5,159,202.2,160.2L202.2,160.2z"/>
	<path class="st10" d="M200.9,157.6l0,3.5c-0.8,0.8-1.5,1.7-3.5,2.9l-4.1-0.3l0.8-3.1l3.3-3.2L200.9,157.6L200.9,157.6z"/>
	<path class="st10" d="M196.9,156.2l-3.3,3.2l-3.7-0.2l0.1-2.9l3.4-3.3l3.6,0.2C196.9,153.1,196.9,156.2,196.9,156.2L196.9,156.2z"
		/>
	<path class="st10" d="M193.3,149l-0.1,2.4l-3.8,3.7l-3.5,0l0.7-2.2c1.4-1.3,3.8-3.3,4.8-4L193.3,149L193.3,149z"/>
	<polygon class="st10" points="192.7,160.9 191.9,164 188,167.2 184.1,167.8 185.6,163.9 189.1,160.7 192.7,160.9 	"/>
	<path class="st10" d="M195.6,165.6l-3.1-0.5l-3.5,2.7l-0.2,1.6C191.2,168.5,194.6,166.5,195.6,165.6L195.6,165.6z"/>
	<polygon class="st10" points="188.6,156.4 188.5,159.3 185.2,162.1 181.9,162.1 182,159.8 185.2,156.4 188.6,156.4 	"/>
	<path class="st10" d="M184.4,155.8l-1.1,1c0.2-0.7,0.8-1.3,1.2-1.6L184.4,155.8L184.4,155.8z"/>
	<path class="st10" d="M187.8,168.5l-0.2,1.5c-2,1.2-5.3,3.5-6.8,5.5l-0.1-3.5l2.8-3L187.8,168.5L187.8,168.5z"/>
	<path class="st10" d="M182.7,168c0,0-2.9,3.2-2.9,3.2c-0.1,0-3.5,0.1-3.5,0.1l-0.3-3.1l4.5-4.7l3.8,0.1L182.7,168L182.7,168z"/>
	<path class="st10" d="M180.7,159.6l-0.1,2.1l-4.3,4.7l-1.1,0.2C176.5,164.3,179.1,160.7,180.7,159.6L180.7,159.6z"/>
	<path class="st10" d="M179.6,172.3l-3.3,0.3l-2.6,3.6l0.2,3.4l4.6-1.2c0.6-0.5,1-0.8,1.4-1.5C179.8,176.8,179.6,172.2,179.6,172.3
		L179.6,172.3z"/>
	<path class="st10" d="M175.2,172.1l-3,3.9l-2.3,0l-0.2-1.7c1.2-1.9,2.8-4.1,3.9-5.6l1.3-0.4L175.2,172.1L175.2,172.1z"/>
	<path class="st10" d="M177.1,180l-4.2,0.9c0,0-2.8,3.2-2.8,3.2c-0.1,0-0.2,2.6-0.2,2.6C171.9,186.3,175.4,182.4,177.1,180
		L177.1,180z"/>
	<path class="st10" d="M172.3,179.8c0-0.1-3.9,4.6-3.9,4.6l-2.6,0.6l-0.1-3.4l2.8-4.1c0,0,3.7-0.2,3.8-0.2
		C172.3,177.2,172.3,179.8,172.3,179.8L172.3,179.8z"/>
	<path class="st10" d="M168.5,185.6l-2.7,0.7c0.1,0.8,0.9,1.4,2.6,1.1L168.5,185.6L168.5,185.6z"/>
	<path class="st10" d="M24.8,157.5l1.1,2.9l-4.4,1.1l-3.5-2.1C19.5,158.4,22.5,157.2,24.8,157.5L24.8,157.5z"/>
	<path class="st10" d="M26.2,157.3l1.1,2.7l4.5,3.1c0,0,3.9-0.9,3.9-0.9c0-0.1-1.2-3.9-1.2-3.9C32.7,157.7,28.3,156.9,26.2,157.3
		L26.2,157.3z"/>
	<polygon class="st10" points="26.9,161.3 22.1,162.6 23,166 27.8,168.5 31.9,167.7 31.1,164.1 26.9,161.3 	"/>
	<path class="st10" d="M20.8,162.6c0,0,0.9,3.5,0.9,3.5l-3.7,1.1l-4.5-2.2c-0.7-1.2,1.1-3.9,3.5-4.7
		C16.9,160.3,20.8,162.6,20.8,162.6L20.8,162.6z"/>
	<path class="st10" d="M13.4,166.4l3.9,1.9l0.8,2.7l-1.5,0.2C14.9,169.7,13.6,167.9,13.4,166.4L13.4,166.4z"/>
	<polygon class="st10" points="22.5,167.1 18.8,168.3 19.5,170.7 24,173.1 27.9,172.7 27.3,169.8 22.5,167.1 	"/>
	<path class="st10" d="M36,158.7l1,3.3l4.4,2.9l4.2-0.7l-0.1-1.2C43.5,161,38.9,159,36,158.7L36,158.7z"/>
	<path class="st10" d="M36.5,163.2c0.1,0-3.9,1-3.9,1l0.7,3.2l3.8,2.1l4.1-0.7c0,0-0.1-2.6-0.1-2.6
		C41.1,166.2,36.5,163.2,36.5,163.2L36.5,163.2z"/>
	<path class="st10" d="M37,170.7l-4-2.1l-4.4,0.9l0.7,3.3l4.6,2.1l4.1-1.3C38.1,173.7,37,170.8,37,170.7L37,170.7z"/>
	<path class="st10" d="M19.2,171.9l4.4,2.2l1.3,1.6c-2-0.2-5.9-2.4-7-3.7L19.2,171.9L19.2,171.9z"/>
	<path class="st10" d="M28.5,173.8l-3.3,0.5l1.5,2c1.4,0.7,5.2,1.6,7.8,1.9l-0.8-2.1L28.5,173.8L28.5,173.8z"/>
	<path class="st10" d="M42.2,169.6c0,0-4.2,0.8-4.2,0.8c0-0.1,1.5,3.6,1.5,3.6l4.1,2c0,0,3.6-0.8,3.6-0.8c0,0.1-0.5-3.2-0.5-3.2
		L42.2,169.6L42.2,169.6z"/>
	<path class="st10" d="M38.6,174.8l4.4,2c0,0,1.8,2.9,1.7,2.9c-3.3-0.7-6.2-1-8.7-1.3l-1.1-2.5L38.6,174.8L38.6,174.8z"/>
	<path class="st10" d="M47,165.1l-4.5,0.7l0.3,2.9l4.4,2.4l3.4-0.6l-0.8-3.6C49.7,166.9,47.1,165.1,47,165.1L47,165.1z"/>
	<path class="st10" d="M47.1,164.1l2.2,1.4c-0.4-1.3-1.7-2.3-2.4-2.6L47.1,164.1L47.1,164.1z"/>
	<path class="st10" d="M51.1,167.4l0.7,3l4.4,2.5l2.8-0.3l-0.3-2.1c-1.8-0.7-4.4-2.1-5.7-3.3L51.1,167.4L51.1,167.4z"/>
	<path class="st10" d="M51.4,171.4c0,0-3.4,0.7-3.4,0.7c0.1,0,0.5,3.2,0.5,3.2l4,2.3l3.6-1l-0.3-2.7
		C55.8,173.9,51.4,171.5,51.4,171.4L51.4,171.4z"/>
	<path class="st10" d="M47.8,176.4l4.2,2.2l1,3.1c-1.7-0.5-5.3-1.7-6.9-1.7c0,0-1.7-3-1.7-3C44.6,177,47.8,176.4,47.8,176.4
		L47.8,176.4z"/>
	<path class="st10" d="M56.9,177.7l-3.4,0.9l0.9,3.3c1.1,1,2.9,2,3.8,2.2c0,0,3.3-0.8,3.3-0.8c0-0.1-0.8-3.6-0.8-3.6L56.9,177.7
		L56.9,177.7z"/>
	<polygon class="st10" points="57.4,176.5 60.8,178.3 64.1,177.7 63.9,175.2 60.8,173.2 57.1,173.9 57.4,176.5 	"/>
	<path class="st10" d="M60.9,171.9l3.4,2.2l1.3-0.3c-1-1.2-3.8-2.4-4.9-2.7C60.8,171.2,60.9,172,60.9,171.9L60.9,171.9z"/>
	<path class="st10" d="M64.7,178.6c0,0-2.8,0.5-2.8,0.5c0.1,0,0.7,3.3,0.7,3.3l3,2.1c1.3-0.3,2.9-0.9,3.4-1.3c0,0,0.1-1.9,0.1-1.9
		L64.7,178.6L64.7,178.6z"/>
	<path class="st10" d="M65.7,178l4.1,2.5c0.7,0.1,1.4-0.4,1.4-1.2c0-0.9-1.9-3.9-3.6-4.5l-2.1,0.6L65.7,178L65.7,178z"/>
	<path class="st10" d="M62.4,184l1,0.6c-0.6,0.2-2.2,0.1-2.9-0.1L62.4,184L62.4,184z"/>
	<path class="st7" d="M111,70c4.3,0.2,13.8,1.2,21.5,8.9c7.3,7.3,0.4,16.4-12,17.3C109,97,100,90.5,100,81.9
		C100,71.9,107.8,69.9,111,70L111,70z"/>
	<path class="st7" d="M139.4,83.2c0-1.9-0.1-8.4,4.1-14.4c3.7-5.4,6.4-6.9,11.2-5c4.6,1.8,6.5,11.6,6.5,14.2c0,2.6-1.2,9.9-8.2,11.5
		c-7.5,1.8-10.2-0.8-12.3-3.3C140,85.4,139.4,84.3,139.4,83.2L139.4,83.2z"/>
	<path class="st11" d="M117,73.3c-1.9-0.5-3.1-0.5-4,0c-0.4,0.2-0.8,0.7-1,1.6c-0.1,0.7,0,1.3,0.4,1.7c0.7,1,2.3,1.3,4.4,1.6
		c2.9,0.4,6.6,1.8,9.3,2.9c1.1,0.4,2,0.8,2.7,1l1.8,0.6l-0.8-1.7C128.6,78.6,121.6,74.6,117,73.3L117,73.3z"/>
	<path class="st11" d="M152.4,65.3c-0.2-0.4-0.7-1.2-2.2-1.2c-2.1,0-3.2,2-4.3,3.8c-0.2,0.3-0.4,0.7-0.6,1.1c-0.7,1.1-1,2.3-1.4,3.4
		c-0.2,0.6-0.4,1.2-0.6,1.8l-1.5,3.4l2.8-2.5l1-0.9c2.3-2.1,4.3-3.9,5.5-5.2C152.3,67.6,152.8,66.3,152.4,65.3L152.4,65.3z"/>
	<path class="st7" d="M94.3,148.9c2.4,1.3,5.4,2.4,7.3,3.2c-6.2,2.6-14.4,8.2-18.2,13.1c-3.4,4.5-6.6,9.6-7.9,18.8
		c-3-6-4.4-14.7-2.1-19.4C76.5,160.3,84.6,151.4,94.3,148.9L94.3,148.9z"/>
	<path class="st7" d="M127.9,154.6c1.8,1.2,4.5,3.2,6.4,5.6c-10,1.3-17.8,4.5-26.1,11.2c-10.1,8.2-13.5,21.5-12.9,31
		c-4.1-1.7-7.8-4.2-9.9-6.2c0.1-6.5,2.1-20.8,13.5-30.3C103.9,162,112.5,156.5,127.9,154.6L127.9,154.6z"/>
	<path class="st7" d="M140.3,170c-6.6,0.8-14.1,3-21.3,9.8c-6.4,6-9.8,15.8-8.4,26.3c2.8,0.3,6.9,0.4,8.9,0.2
		c-0.4-5.6-1.8-14.5,6.4-21.8c7.7-6.9,14.3-6.8,17-6.7C142.2,174.4,141.4,171.9,140.3,170L140.3,170z"/>
	<path class="st7" d="M145.1,185.1c0.6,1.1,1.4,2.4,2.4,4c-4.6,3.4-10,7.8-7.2,13.6c-3.1,1.1-6.8,1.9-9,2.1
		C130.6,199.5,130.6,189.1,145.1,185.1L145.1,185.1z"/>
	<path class="st10" d="M89.7,118.2c-0.2,1.2-0.6,2.5-1,3.7c3.7,1.1,7.4,2.1,8.8,2.5c1.4,0.3,3.2-2.1,0.9-3
		C96,120.5,91.4,118.9,89.7,118.2L89.7,118.2z"/>
	<path class="st10" d="M147.6,118.6c0.8,4.1,1,6.1,1.1,7.6c6.2-2.6,28.9-6.2,40.6-7.7c1.6-0.2,2.7-2.3,1.1-3.7
		c-0.7-0.6-3.3,0.2-5.2,0.5c-1.9,0.3-15.7,2.7-23.1,3C154.6,118.6,150.9,118.6,147.6,118.6L147.6,118.6z"/>
	<path class="st10" d="M91,131.1c-1.7,0.4-4.3,1.1-7.2,1.8c-1.6-6.7,1.2-8.7,3.8-9.8c0,0,7.4,1.9,9.5,2.5c2.1,0.5,3.2-0.7,3.5-1.5
		c0.3-0.7,1.1-2.6-1.2-3.7c-2.2-1.1-5.9-2.7-9.8-4.1c2.3-4.6,8.8-7.1,14.5-7c5.5,5.1,10.4,8.3,17.4,8.4c7,0.1,15.3-2.2,20.2-4.6
		c3.7,3.5,5.5,11.2,4.7,15.3c-0.7,4.1-2.2,11.8-10.3,17.4c-8,5.6-13,5.6-16.5,5.6c-1.7,0-1.3,1,0.1,1c2.2,0,5.9,0.9,6.6,1.6
		c-11,1.1-20.4,4.6-29.3,12.3c-8.3,7.2-12.2,19-12.5,28.8c-3.8-3.1-6.9-7.3-8.3-9.7c0.9-6.8,3.1-12.8,7-18.1
		c4.1-5.7,13.1-12.3,20.1-14.9c0.9,0,1.3-0.1,2-0.1c0.7,0,1.5-0.9-0.6-1.3c-7-1.1-12.9-5.8-16-9.1c1.5-0.1,3.6-0.4,5.4-0.9
		c2-0.6,4-2.8,2-5.7C94.1,132.5,92.2,131.4,91,131.1L91,131.1z"/>
	<path class="st10" d="M137.9,147.1c-0.9,0.6-2.2,1.7-1,2c1.3,0.3,8.2,2.7,9.5,3c1.8,0.5,2.4,0.9,3,2c0.2,0.4,0.5,0.4,1.2-0.7
		c0.8-1.3,1.1-1.2,0.4-2.2c-0.7-1.1-2.6-1.9-3.9-2.3c-1.3-0.4-6.1-1.8-7.4-2.1C138.4,146.4,138.4,146.7,137.9,147.1L137.9,147.1z"/>
	<path class="st10" d="M89.9,146.5c0.9,0.6,1.9,1.4,2.6,1.9c-3.9,1.6-12,5.1-18.4,13.8c0.3-3.4,2.4-5.6,3.4-6.4
		c1.4-0.1,2.1-0.1,2.1-0.1l2.6-2.8l-2.3,0C81.4,150.6,86.6,147.3,89.9,146.5L89.9,146.5z"/>
	<path class="st10" d="M135.3,161.2c1,1.1,3.5,4.1,4.5,7.6c-12.2,2-18.5,7-21.8,10.3c-4.1,4.1-10,12-8.6,26.6
		c-5.7-0.4-10.3-1.6-12.8-2.7c-1-11.8,4.9-23.8,11.2-29.4C116.3,165.9,127,161.7,135.3,161.2L135.3,161.2z"/>
	<path class="st10" d="M143,178.8c-5.6-0.1-11.2,1-17.7,7.7c-6.5,6.6-5,15.7-4.6,19.5c3.4-0.1,7.3-0.4,9.2-0.8
		c-0.4-4.9-1.3-16.6,14.6-21.1C143.9,182.2,143.3,180,143,178.8L143,178.8z"/>
	<path class="st10" d="M148.2,190c-3.1,2-9.6,6.8-6.8,12.2c4.5-0.7,14.2-5.1,17-6.7C152.7,194.5,149.6,191.5,148.2,190L148.2,190z"
		/>
	<path class="st10" d="M89,133.3c2.1-0.6,4.2,1,5.2,2.1c1,1.2,1.7,3.1-2,3.6c-3.7,0.5-8.3,1.3-9.5,1.2c-1.3-1.7-4.6-1.3-7.5,0.8
		c-4.2,0.5-9.6,0.6-11.6,5c-1.3-0.5-1.6-0.1-4.1,3.8l-0.3-1.7c0,0,1.1-3.6,2.1-5.3c2.3-3.9,3.2-3.9,11.3-5.6
		C81.2,135.5,85.9,134.2,89,133.3L89,133.3z"/>
	<path class="st10" d="M117.8,70c1.3-0.9,3.3-1.8,5.5-1.4c1.5,0.9,5.3,3.6,6.7,4.9c1.4,1.3,1.7,0.7,1.8-0.4c0-1.1,0.1-2.5,0-3
		c0-0.4-1.1-0.4-1.1,0.3c0,0.7,0.1,1.7-1.6,0.4c-1.6-1.3-2.8-2.3-3.1-2.5c1.8-0.4,8.6-0.1,10,1.1c-0.6,0.9-0.9,2.2-1.6,1.1
		c-0.2-0.3-2.1-0.5-1.2,0.9c0.7,1.1,1.1,1.6,1.5,2c0.4,0.4,0.9,0.3,1.3-0.4c0.4-0.7,1.4-2.2,2-2.8c1.3,0.3,2.3,0.8,2.9,1.2
		c-1,2.5-2.5,7.6-2.7,10.2c-0.2,2.6-0.3,3.8,1.4,5.6c1.6,1.7,5.2,4.4,9.2,4.4c4.1,0,7-1.6,8.3-2.2c1.5,2.5,2.9,7.2,2.6,10.8
		c-2.2-0.5-5.8,2.1-8.7,4c-5.1,0.7-12.7,0.5-17.3,0.4c-5.3-0.1-8.2-1.5-12.3-3.2c-4.1-1.7-10.7-4.8-15.6-2.8
		c-4.4,1.8-1.3,6.8,2.1,6.8c3.4,0,5.6-1,6.3-1.5c-1.4-1.3-0.4-2.3,1.9-2.3c2.3,0,6.1,1.7,9.1,2.9c4,1.6,6.8,1.9,14,1.8
		c1.6,0,8.7-0.3,11.2-0.7c-2.8,3.2-13.2,10.5-27,10.5c-14.9,0-24.3-14.1-24.5-22.2c-0.1-4.7,0.4-5.8,0.8-6.6c1.5,3,6,10.5,18,10.5
		c12,0,19.2-5.3,19.4-12.1C137,78.6,126,71.3,117.8,70L117.8,70z"/>
	<path class="st4" d="M116.7,74c-2.4-0.7-3.7-0.4-3.9,0.9c-0.2,1.5,1.1,2,4.1,2.4c4.2,0.5,7.7,2.3,12.7,4.4
		C126.7,77.9,121.2,75.3,116.7,74L116.7,74z"/>
	<path class="st4" d="M150.4,68.4c1.8-1.9,1.7-3.5-0.3-3.5c-2,0-3,2.4-4.2,4.5c-1,1.7-1.3,3.6-1.9,5.1
		C146.7,72,149.1,69.9,150.4,68.4L150.4,68.4z"/>
	<path class="st5" d="M96.5,126.4l1.7,0.4l0.2,1.2c0.1,0.5,0.1,0.8,0,1.1l0.1,0c0-0.5,0.1-0.9,0.2-1.3l0.2-0.8l1.7,0.4l-1.1,4.6
		l-1.7-0.4l-0.1-1.2c-0.1-0.6-0.1-0.8,0-1.2l-0.1,0c0,0.4-0.1,1-0.2,1.4l-0.2,0.9l-1.7-0.4L96.5,126.4L96.5,126.4z"/>
	<polygon class="st5" points="101,127.5 103.9,128.2 103.6,129.2 102.5,129 102.4,129.5 103.5,129.7 103.3,130.8 102.2,130.5 
		102,131.5 103.1,131.7 102.8,132.8 99.9,132.1 101,127.5 	"/>
	<path class="st5" d="M104,128.2l1.8,0.4l0,1c0,0.5,0,0.7-0.2,1.2l0.1,0c0.1-0.6,0.1-0.6,0.3-1l0.5-1.1l1.3,0.3l0,1.2
		c0,0.4,0,0.5-0.1,1l0.1,0l0-0.1c0.1-0.4,0.2-0.7,0.3-1l0.4-1l1.8,0.4l-1.8,4.4l-1.9-0.4l0-1c0-0.3,0-0.6,0.1-0.9c0,0,0-0.1,0.1-0.2
		l-0.1,0c-0.1,0.5-0.2,0.9-0.3,1.1l-0.4,1l-1.9-0.4L104,128.2L104,128.2z"/>
	<path class="st5" d="M112.3,130.9c0.1-0.7,0.5-1,1.2-0.9l2,0.3c0.7,0.1,1,0.5,0.9,1.2l-0.4,2.6c-0.1,0.7-0.5,1-1.3,0.8l-1.8-0.3
		c-0.8-0.1-1.1-0.5-1-1.2L112.3,130.9L112.3,130.9z M113.7,133.4c0,0.3,0,0.4,0.2,0.4c0.2,0,0.2-0.1,0.3-0.3l0.3-1.8
		c0-0.3,0-0.4-0.2-0.4c-0.2,0-0.2,0.1-0.3,0.3L113.7,133.4L113.7,133.4z"/>
	<path class="st5" d="M116.9,130.6l2.9,0.4c0.9,0.1,1.1,0.5,1,1.3c-0.1,0.6-0.3,0.9-0.9,1c0.6,0.3,0.7,0.5,0.6,1.2l-0.2,1.4
		l-1.8-0.2l0.2-1.4c0.1-0.4,0-0.5-0.3-0.5c0,0,0,0-0.1,0l-0.3,1.9l-1.8-0.2L116.9,130.6L116.9,130.6z M118.5,132.6
		c0.4,0.1,0.5,0,0.5-0.3c0-0.2-0.1-0.3-0.3-0.4l-0.1,0L118.5,132.6L118.5,132.6z"/>
	<polygon class="st5" points="121.3,131.2 123.1,131.4 122.7,135 123.8,135.1 123.7,136.2 120.8,135.9 121.3,131.2 	"/>
	<polygon class="st5" points="124.4,131.5 127.4,131.8 127.3,132.9 126.2,132.8 126.1,133.3 127.2,133.4 127.1,134.4 126,134.3 
		125.9,135.3 127.1,135.4 127,136.5 124,136.2 124.4,131.5 	"/>
	<path class="st5" d="M128.3,131.9l2.9,0.2l0.6,4.7l-1.9-0.1l-0.1-1l-0.5,0l-0.1,1l-1.9-0.1L128.3,131.9L128.3,131.9z M129.7,134
		c0-0.4,0-0.8,0-1.2l-0.1,0l0,0.1c0,0.3-0.1,0.8-0.1,1l-0.1,0.6l0.4,0L129.7,134L129.7,134z"/>
	<path class="st5" d="M132.1,132.1l1.7,0l0.4,1.1c0.2,0.5,0.3,0.7,0.3,1.1h0.1c-0.1-0.5-0.1-0.9-0.1-1.3l0-0.9l1.7,0l-0.1,4.7
		l-1.7,0l-0.4-1.1c-0.2-0.6-0.3-0.8-0.3-1.2h-0.1c0.1,0.4,0.1,1,0.1,1.4l0,0.9l-1.7,0L132.1,132.1L132.1,132.1z"/>
	<path class="st5" d="M138.5,135l0,0.3c0,0.2,0.1,0.3,0.2,0.3c0.2,0,0.2-0.1,0.2-0.4c0-0.3-0.1-0.3-0.4-0.4l-1-0.3
		c-0.7-0.3-0.9-0.5-1-1.3c0-0.9,0.2-1.1,1.1-1.2l1.7-0.1c0.5,0,0.7,0,0.9,0.2c0.2,0.2,0.3,0.4,0.3,0.8l0,0.5l-1.8,0.1
		c0-0.3-0.1-0.4-0.2-0.4c-0.1,0-0.2,0.1-0.2,0.2c0,0.2,0.1,0.2,0.5,0.3l0.9,0.3c0.9,0.3,1,0.5,1.1,1.6c0,0.8-0.3,1.1-1.2,1.1
		l-1.8,0.1c-0.5,0-0.7,0-0.9-0.2c-0.2-0.2-0.3-0.4-0.3-0.8l0-0.6L138.5,135L138.5,135z"/>
	<path class="st12" d="M133.8,122.1c-2.2,0.1-4.6,0-6.6-0.1l-1.1-0.1l0,1.1l0,3.4c-2.5-0.1-7.1-0.6-9-1l0-3.6v-0.9l-0.9-0.1
		c-2.3-0.2-5.9-0.7-7.5-1.2l-1.3-0.4l0,1.4l0,6.2l0,0.8l0.8,0.2c6,1.3,19.1,3.6,25.7,2.9l0.9-0.1v-0.9l0-6.4l0-1.1L133.8,122.1
		L133.8,122.1z"/>
	<path class="st12" d="M107.7,136.1l-0.9-0.3l-0.4,0.9c-0.4,0.9-1,2.2-1.7,3.5c-0.5,0.9-0.9,1.9-1.4,2.8l-0.3,0.7l0.6,0.5
		c1.1,0.9,4.2,1.1,5.9,1.2l0.5,0l0.3-0.4c0.5-0.6,1-1.4,1.5-2.3c0.3-0.4,0.5-0.9,0.8-1.3c2.4,0.4,5.5,0.7,8.2,0.9
		c-0.3,0.7-0.8,1.6-1.4,2.5l-0.7,1.1l1.2,0.4c1.7,0.6,4.9,0.6,7.2,0.5l0.5,0l0.3-0.4c1-1.4,2.8-4.3,3.6-6.4l0.5-1.3l-1.4,0
		C125,138.5,110.4,137,107.7,136.1L107.7,136.1z"/>
	<path class="st6" d="M108.4,126.6c5.4,1.2,18.8,3.6,25.4,2.9l0-6.4c-2.3,0.1-4.8,0-6.7-0.1l0,4.4c-2.1,0-9.4-0.7-11-1.3l0-4.4
		c-2.3-0.2-6.1-0.7-7.7-1.2L108.4,126.6L108.4,126.6z"/>
	<path class="st6" d="M107.3,137c3,1,17.6,2.5,23.5,2.6c-0.8,1.9-2.4,4.8-3.4,6.2c-1.9,0.1-5.2,0-6.9-0.5c0.9-1.5,1.8-3.2,2-4
		c-3.6-0.2-7.6-0.6-10.2-1c-1,1.5-1.9,3.2-2.7,4.1c-2.1-0.1-4.6-0.4-5.4-1C105.4,141.1,106.6,138.7,107.3,137L107.3,137z"/>
	<path class="st13" d="M49.1,101.5c-2-0.8-6.7-2.8-8.6-3.5c-2.5-1-5.2-1.8-8.1-2.7c-8.3-2.6-17.4-5.4-24-11.4
		c-4.2-3.8-6.9-8-6.7-12.3c0.2-3.6,2.5-6.7,5.9-9.2c5.6-4.1,12.9-6,22.7-6.3c15.3-0.4,30.2,10.2,42,20c6.3,5.2,18.9,19.6,21.7,30.3
		c0.7,2.8-2.2,4.5-2.2,4.5c-0.9,0.8-2,1.7-2.7,2.5c-0.6-2.6-3.9-4.3-6-3.1c-3.4-2.5-7.9-5.3-14.2-8.8c-4.7-2.6-9.6-1.5-14.1-0.4
		C54.7,101.2,53.4,101.9,49.1,101.5L49.1,101.5z"/>
	<path class="st5" d="M92.1,109.6c0-0.4-0.2-1.9-0.8-3.5c-1.5-4.4-8.2-17.9-20.5-28c-12-9.8-26.1-19.8-40.4-19.4
		c-9.5,0.2-16.2,2.1-21.3,5.8c-3.1,2.3-4.7,4.8-4.9,7.4c-0.2,3.2,1.8,6.6,5.9,10.3c6,5.4,14.7,8.2,23.1,10.9
		c2.9,0.9,5.6,1.8,8.2,2.8c3.7,1.4,9.2,3.6,11.7,4.8l1.3,0.6c4.5-1.1,9.7-2.2,14.4,0.4c6.3,3.5,10.9,6.3,14.2,8.8
		c2.1-1.3,5.4,0.4,6,3.1c0.7-0.8,1.8-1.8,2.7-2.5L92.1,109.6L92.1,109.6z"/>
	<path class="st13" d="M160.7,69.1l1.8-1.2c7.6-5.2,16.4-11,25.5-13c5.5-1.2,18.6-4.2,23.3,0.1c3.2,2.9,4.5,6.3,4.3,10.7
		c-0.9,13.1-20.5,27.5-30.9,31.5c-2.9,1.1-9.5,3.5-12.7,4c-3.2,0.5-12.9,3.8-21.9,8.9l-4.5,2.5c-0.3-0.7-0.3-0.6-0.8-1.1
		c1.4-1,2.7-1.9,4.2-3.1c2.3-1.8,5.3-4.1,6.5-4.9c1.9-1.4,4.5-2.2,5.5-1c1-2.4-0.4-10.3-2.2-14.3c1.3-1.9,4.1-5.4,3.9-10.7
		c-0.1-2.8-0.6-4.9-1-6.4L160.7,69.1L160.7,69.1z"/>
	<path class="st5" d="M155,103.6c-1.2,0.8-3.7,2.8-6,4.7c9.1-5.1,19.1-8.6,22.6-9.2c2.9-0.4,9.3-2.7,12.3-3.9
		c10.8-4.2,20.3-13.7,23-16.5c4.2-4.5,6.4-9.9,6.6-13.1c0.2-3.7-0.9-6.5-3.6-9c-3.4-3.1-13.8-1.3-21.3,0.4
		c-9.3,2.1-19,8.7-24.7,12.7l-2,1.3l-0.3,0.2c0.5,1.5,0.9,3.6,1,6.4c0.2,5.2-2.6,8.7-3.9,10.7c1.8,3.9,3.2,11.9,2.2,14.3
		C159.8,101.4,157,102.2,155,103.6L155,103.6z"/>
	<path class="st2" d="M28.3,62.3c5.1,0.9,14.8,3.5,21,7c0.4,0.2,0.5,0.7,0.3,1.1c-0.2,0.4-0.7,0.5-1.1,0.3c-6-3.5-15.6-6-20.5-6.8
		c-0.4-0.1-0.7-0.5-0.6-0.9C27.5,62.6,27.9,62.3,28.3,62.3L28.3,62.3z M29.6,67.9c-0.1,0.4,0.1,0.9,0.5,1c8.3,2.4,17.2,5.2,26,11.3
		c0.4,0.2,0.8,0.2,1.1-0.2c0.2-0.4,0.2-0.8-0.2-1.1c-9-6.2-18-9.1-26.5-11.5C30.2,67.2,29.8,67.5,29.6,67.9L29.6,67.9z M40.4,77.5
		c-0.1,0.4,0.1,0.9,0.5,1c6.6,2.3,15.5,6.3,21,10.4c0.3,0.3,0.8,0.2,1.1-0.2c0.3-0.3,0.2-0.8-0.2-1.1c-5.6-4.2-14.7-8.3-21.4-10.6
		C41,76.8,40.5,77.1,40.4,77.5L40.4,77.5z"/>
	<path class="st2" d="M199.9,58.7c0,0.4-0.3,0.8-0.7,0.8c-5.1,0.4-13.4,2.8-17.4,5c-0.4,0.2-0.9,0.1-1.1-0.3
		c-0.2-0.4-0.1-0.9,0.3-1.1c4.2-2.4,12.7-4.8,18.1-5.2C199.5,57.9,199.9,58.2,199.9,58.7L199.9,58.7z M186.5,66.5
		c-5,0.4-12.9,3.1-16.3,5.1c-0.4,0.2-0.5,0.7-0.3,1.1c0.2,0.4,0.7,0.5,1.1,0.3c3.3-1.9,10.8-4.5,15.6-4.9c0.4,0,0.8-0.4,0.7-0.9
		C187.3,66.8,186.9,66.4,186.5,66.5L186.5,66.5z M175.4,73.1c-1.4,0.4-4.1,1.3-5.7,2.4c-0.4,0.2-0.5,0.7-0.2,1.1
		c0.2,0.4,0.7,0.5,1.1,0.2c1.1-0.7,3-1.5,5.3-2.2c0.4-0.1,0.7-0.6,0.5-1C176.2,73.2,175.8,73,175.4,73.1L175.4,73.1z"/>
</g>
</svg>
